999
dxflib 3.3.4.0
  0
SECTION
  2
HEADER
  9
$ACADVER
  1
AC1015
  9
$HANDSEED
  5
FFFFF
  9
$INSUNITS
 70
2
  9
$LUNITS
 70
2
  9
$MEASUREMENT
 70
0
  9
$LTSCALE
 40
32.80839895
  9
$DIMEXE
 40
1.25
  9
$TEXTSTYLE
  7
Standard
  9
$LIMMIN
 10
0.0
 20
0.0
  9
$SHADEDGE
 70
3
  0
ENDSEC
  0
SECTION
  2
TABLES
  0
TABLE
  2
VPORT
  5
8
100
AcDbSymbolTable
 70
1
  0
VPORT
  5
30
100
AcDbSymbolTableRecord
100
AcDbViewportTableRecord
  2
*Active
 70
0
 10
-13.60475737
 20
-9.12972424
 11
26.15954648
 21
22.1095146
 12
6.27739455
 22
6.48989518
 13
0.0
 23
0.0
 14
10.0
 24
10.0
 15
1.0
 25
1.0
 16
0.0
 26
0.0
 36
1.0
 17
0.0
 27
0.0
 37
0.0
 40
42.6374124
 41
1.92798354
 42
50.0
 43
0.0
 44
0.0
 50
0.0
 51
0.0
 71
0
 72
100
 73
1
 74
3
 75
1
 76
1
 77
0
 78
0
281
0
 65
1
110
0.0
120
0.0
130
0.0
111
1.0
121
0.0
131
0.0
112
0.0
122
1.0
132
0.0
 79
0
146
0.0
  0
ENDTAB
  0
TABLE
  2
LTYPE
  5
5
100
AcDbSymbolTable
 70
4
  0
LTYPE
  5
14
100
AcDbSymbolTableRecord
100
AcDbLinetypeTableRecord
  2
BYBLOCK
 70
0
  3

 72
65
 73
0
 40
0.0
  0
LTYPE
  5
15
100
AcDbSymbolTableRecord
100
AcDbLinetypeTableRecord
  2
BYLAYER
 70
0
  3

 72
65
 73
0
 40
0.0
  0
LTYPE
  5
16
100
AcDbSymbolTableRecord
100
AcDbLinetypeTableRecord
  2
CONTINUOUS
 70
0
  3
Solid line
 72
65
 73
0
 40
0.0
  0
LTYPE
  5
31
100
AcDbSymbolTableRecord
100
AcDbLinetypeTableRecord
  2
DASHED2
 70
0
  3
Dashed (.5x) _ _ _ _ _ _ _ _ _ _ _ _ _ _ _ _ _
 72
65
 73
2
 40
9.525
 49
6.35
 74
0
 49
-3.175
 74
0
  0
ENDTAB
  0
TABLE
  2
LAYER
  5
2
100
AcDbSymbolTable
 70
6
  0
LAYER
  5
10
100
AcDbSymbolTableRecord
100
AcDbLayerTableRecord
  2
0
 70
0
 62
7
  6
CONTINUOUS
370
100
390
F
  0
LAYER
  5
32
100
AcDbSymbolTableRecord
100
AcDbLayerTableRecord
  2
doors
 70
0
 62
1
  6
CONTINUOUS
370
100
390
F
  0
LAYER
  5
33
100
AcDbSymbolTableRecord
100
AcDbLayerTableRecord
  2
furnitures
 70
0
 62
6
  6
CONTINUOUS
370
100
390
F
  0
LAYER
  5
34
100
AcDbSymbolTableRecord
100
AcDbLayerTableRecord
  2
texts
 70
0
 62
5
  6
CONTINUOUS
370
100
390
F
  0
LAYER
  5
35
100
AcDbSymbolTableRecord
100
AcDbLayerTableRecord
  2
walls
 70
0
 62
8
  6
CONTINUOUS
370
100
390
F
  0
LAYER
  5
36
100
AcDbSymbolTableRecord
100
AcDbLayerTableRecord
  2
windows
 70
0
 62
3
  6
CONTINUOUS
370
100
390
F
  0
ENDTAB
  0
TABLE
  2
STYLE
  5
3
100
AcDbSymbolTable
 70
1
  0
STYLE
  5
11
100
AcDbSymbolTableRecord
100
AcDbTextStyleTableRecord
  2
Standard
 70
0
 40
0.0
 41
0.75
 50
0.0
 71
0
 42
2.5
  3
txt
  4
bigfont.shx
  0
ENDTAB
  0
TABLE
  2
VIEW
  5
6
100
AcDbSymbolTable
 70
0
  0
ENDTAB
  0
TABLE
  2
UCS
  5
7
100
AcDbSymbolTable
 70
0
  0
ENDTAB
  0
TABLE
  2
APPID
  5
9
100
AcDbSymbolTable
 70
1
  0
APPID
  5
12
100
AcDbSymbolTableRecord
100
AcDbRegAppTableRecord
  2
ACAD
 70
0
  0
ENDTAB
  0
TABLE
  2
DIMSTYLE
  5
A
100
AcDbSymbolTable
 70
1
100
AcDbDimStyleTable
 71
0
  0
DIMSTYLE
105
27
100
AcDbSymbolTableRecord
100
AcDbDimStyleTableRecord
  2
Standard
 41
1.0
 42
1.0
 43
3.75
 44
1.0
 70
0
 73
0
 74
0
 77
1
 78
8
140
1.0
141
2.5
143
0.03937008
147
1.0
171
3
172
1
271
2
272
2
274
3
278
44
283
0
284
8
340
0
  0
ENDTAB
  0
TABLE
  2
BLOCK_RECORD
  5
1
100
AcDbSymbolTable
 70
1
  0
BLOCK_RECORD
  5
1F
100
AcDbSymbolTableRecord
100
AcDbBlockTableRecord
  2
*Model_Space
340
22
  0
BLOCK_RECORD
  5
1B
100
AcDbSymbolTableRecord
100
AcDbBlockTableRecord
  2
*Paper_Space
340
1E
  0
BLOCK_RECORD
  5
23
100
AcDbSymbolTableRecord
100
AcDbBlockTableRecord
  2
*Paper_Space0
340
26
  0
BLOCK_RECORD
  5
37
100
AcDbSymbolTableRecord
100
AcDbBlockTableRecord
  2
W-0-0
340
0
  0
BLOCK_RECORD
  5
38
100
AcDbSymbolTableRecord
100
AcDbBlockTableRecord
  2
W-0-7
340
0
  0
BLOCK_RECORD
  5
39
100
AcDbSymbolTableRecord
100
AcDbBlockTableRecord
  2
W-0-6
340
0
  0
BLOCK_RECORD
  5
3A
100
AcDbSymbolTableRecord
100
AcDbBlockTableRecord
  2
W-0-3
340
0
  0
BLOCK_RECORD
  5
3B
100
AcDbSymbolTableRecord
100
AcDbBlockTableRecord
  2
W-0-2
340
0
  0
BLOCK_RECORD
  5
3C
100
AcDbSymbolTableRecord
100
AcDbBlockTableRecord
  2
W-0-4
340
0
  0
BLOCK_RECORD
  5
3D
100
AcDbSymbolTableRecord
100
AcDbBlockTableRecord
  2
W-0-1
340
0
  0
BLOCK_RECORD
  5
3E
100
AcDbSymbolTableRecord
100
AcDbBlockTableRecord
  2
W-0-5
340
0
  0
BLOCK_RECORD
  5
3F
100
AcDbSymbolTableRecord
100
AcDbBlockTableRecord
  2
W-1-1
340
0
  0
BLOCK_RECORD
  5
40
100
AcDbSymbolTableRecord
100
AcDbBlockTableRecord
  2
W-1-0
340
0
  0
BLOCK_RECORD
  5
41
100
AcDbSymbolTableRecord
100
AcDbBlockTableRecord
  2
W-2-0
340
0
  0
BLOCK_RECORD
  5
42
100
AcDbSymbolTableRecord
100
AcDbBlockTableRecord
  2
W-2-1
340
0
  0
BLOCK_RECORD
  5
43
100
AcDbSymbolTableRecord
100
AcDbBlockTableRecord
  2
W-3-0
340
0
  0
ENDTAB
  0
ENDSEC
  0
SECTION
  2
BLOCKS
  0
BLOCK
  5
20
100
AcDbEntity
  8
0
100
AcDbBlockBegin
  2
*Model_Space
 70
0
 10
0.0
 20
0.0
 30
0.0
  3
*Model_Space
  1

  0
ENDBLK
  5
21
100
AcDbEntity
  8
0
100
AcDbBlockEnd
  0
BLOCK
  5
1C
100
AcDbEntity
 67
1
  8
0
100
AcDbBlockBegin
  2
*Paper_Space
 70
0
 10
0.0
 20
0.0
 30
0.0
  3
*Paper_Space
  1

  0
ENDBLK
  5
1D
100
AcDbEntity
 67
1
  8
0
100
AcDbBlockEnd
  0
BLOCK
  5
24
100
AcDbEntity
  8
0
100
AcDbBlockBegin
  2
*Paper_Space0
 70
0
 10
0.0
 20
0.0
 30
0.0
  3
*Paper_Space0
  1

  0
ENDBLK
  5
25
100
AcDbEntity
  8
0
100
AcDbBlockEnd
  0
BLOCK
  5
44
100
AcDbEntity
  8
0
100
AcDbBlockBegin
  2
W-0-0
 70
0
 10
0.0
 20
0.0
 30
0.0
  3
W-0-0
  1

  0
ENDBLK
  5
45
100
AcDbEntity
  8
0
100
AcDbBlockEnd
  0
BLOCK
  5
46
100
AcDbEntity
  8
0
100
AcDbBlockBegin
  2
W-0-7
 70
0
 10
0.0
 20
0.0
 30
0.0
  3
W-0-7
  1

  0
LWPOLYLINE
  5
47
  8
0
 62
0
370
-1
  6
BYLAYER
100
AcDbEntity
100
AcDbPolyline
 90
2
 70
0
 43
0.01
 10
-2548.35964724
 20
-196.8503908
 30
0.0
 10
-2548.35964724
 20
-196.8503908
 30
0.0
  0
LWPOLYLINE
  5
48
  8
0
 62
0
370
-1
  6
BYLAYER
100
AcDbEntity
100
AcDbPolyline
 90
2
 70
0
 43
0.01
 10
-2548.35964724
 20
-196.8503908
 30
0.0
 10
-2123.63304684
 20
-196.8503908
 30
0.0
  0
LWPOLYLINE
  5
49
  8
0
 62
0
370
-1
  6
BYLAYER
100
AcDbEntity
100
AcDbPolyline
 90
2
 70
0
 43
0.01
 10
-2123.63304684
 20
-196.8503908
 30
0.0
 10
-1698.90645865
 20
-196.8503908
 30
0.0
  0
LWPOLYLINE
  5
4A
  8
0
 62
0
370
-1
  6
BYLAYER
100
AcDbEntity
100
AcDbPolyline
 90
2
 70
0
 43
0.01
 10
-1698.90645865
 20
-196.8503908
 30
0.0
 10
-1274.17987862
 20
-196.8503908
 30
0.0
  0
LWPOLYLINE
  5
4B
  8
0
 62
0
370
-1
  6
BYLAYER
100
AcDbEntity
100
AcDbPolyline
 90
2
 70
0
 43
0.01
 10
-1274.17987862
 20
-196.8503908
 30
0.0
 10
-849.45330266
 20
-196.8503908
 30
0.0
  0
LWPOLYLINE
  5
4C
  8
0
 62
0
370
-1
  6
BYLAYER
100
AcDbEntity
100
AcDbPolyline
 90
2
 70
0
 43
0.01
 10
-849.45330266
 20
-196.8503908
 30
0.0
 10
-424.7267267
 20
-196.8503908
 30
0.0
  0
LWPOLYLINE
  5
4D
  8
0
 62
0
370
-1
  6
BYLAYER
100
AcDbEntity
100
AcDbPolyline
 90
2
 70
0
 43
0.01
 10
-424.7267267
 20
-196.8503908
 30
0.0
 10
-0.00014666
 20
-196.8503908
 30
0.0
  0
LWPOLYLINE
  5
4E
  8
0
 62
0
370
-1
  6
BYLAYER
100
AcDbEntity
100
AcDbPolyline
 90
2
 70
0
 43
0.01
 10
-0.00014666
 20
-196.8503908
 30
0.0
 10
424.72644152
 20
-196.8503908
 30
0.0
  0
LWPOLYLINE
  5
4F
  8
0
 62
0
370
-1
  6
BYLAYER
100
AcDbEntity
100
AcDbPolyline
 90
2
 70
0
 43
0.01
 10
424.72644152
 20
-196.8503908
 30
0.0
 10
849.45304192
 20
-196.8503908
 30
0.0
  0
LWPOLYLINE
  5
50
  8
0
 62
0
370
-1
  6
BYLAYER
100
AcDbEntity
100
AcDbPolyline
 90
2
 70
0
 43
0.01
 10
849.45304192
 20
-196.8503908
 30
0.0
 10
1274.17965862
 20
-196.8503908
 30
0.0
  0
LWPOLYLINE
  5
51
  8
0
 62
0
370
-1
  6
BYLAYER
100
AcDbEntity
100
AcDbPolyline
 90
2
 70
0
 43
0.01
 10
1274.17965862
 20
-196.8503908
 30
0.0
 10
1698.90629569
 20
-196.8503908
 30
0.0
  0
LWPOLYLINE
  5
52
  8
0
 62
0
370
-1
  6
BYLAYER
100
AcDbEntity
100
AcDbPolyline
 90
2
 70
0
 43
0.01
 10
1698.90629569
 20
-196.8503908
 30
0.0
 10
2123.63295721
 20
-196.8503908
 30
0.0
  0
LWPOLYLINE
  5
53
  8
0
 62
0
370
-1
  6
BYLAYER
100
AcDbEntity
100
AcDbPolyline
 90
2
 70
0
 43
0.01
 10
2123.63295721
 20
-196.8503908
 30
0.0
 10
2548.35964724
 20
-196.8503908
 30
0.0
  0
LWPOLYLINE
  5
54
  8
0
 62
0
370
-1
  6
BYLAYER
100
AcDbEntity
100
AcDbPolyline
 90
2
 70
0
 43
0.01
 10
2548.35964724
 20
-196.8503908
 30
0.0
 10
2548.35964724
 20
-164.04199234
 30
0.0
  0
LWPOLYLINE
  5
55
  8
0
 62
0
370
-1
  6
BYLAYER
100
AcDbEntity
100
AcDbPolyline
 90
2
 70
0
 43
0.01
 10
2548.35964724
 20
-164.04199234
 30
0.0
 10
2548.35964724
 20
-131.23359387
 30
0.0
  0
LWPOLYLINE
  5
56
  8
0
 62
0
370
-1
  6
BYLAYER
100
AcDbEntity
100
AcDbPolyline
 90
2
 70
0
 43
0.01
 10
2548.35964724
 20
-131.23359387
 30
0.0
 10
2548.35964724
 20
-98.4251954
 30
0.0
  0
LWPOLYLINE
  5
57
  8
0
 62
0
370
-1
  6
BYLAYER
100
AcDbEntity
100
AcDbPolyline
 90
2
 70
0
 43
0.01
 10
2548.35964724
 20
-98.4251954
 30
0.0
 10
2548.35964724
 20
-65.61679693
 30
0.0
  0
LWPOLYLINE
  5
58
  8
0
 62
0
370
-1
  6
BYLAYER
100
AcDbEntity
100
AcDbPolyline
 90
2
 70
0
 43
0.01
 10
2548.35964724
 20
-65.61679693
 30
0.0
 10
2548.35964724
 20
-32.80839847
 30
0.0
  0
LWPOLYLINE
  5
59
  8
0
 62
0
370
-1
  6
BYLAYER
100
AcDbEntity
100
AcDbPolyline
 90
2
 70
0
 43
0.01
 10
2548.35964724
 20
-32.80839847
 30
0.0
 10
2548.35964724
 20
-0.0
 30
0.0
  0
LWPOLYLINE
  5
5A
  8
0
 62
0
370
-1
  6
BYLAYER
100
AcDbEntity
100
AcDbPolyline
 90
2
 70
0
 43
0.01
 10
2548.35964724
 20
-0.0
 30
0.0
 10
2548.35964724
 20
32.80839847
 30
0.0
  0
LWPOLYLINE
  5
5B
  8
0
 62
0
370
-1
  6
BYLAYER
100
AcDbEntity
100
AcDbPolyline
 90
2
 70
0
 43
0.01
 10
2548.35964724
 20
32.80839847
 30
0.0
 10
2548.35964724
 20
65.61679693
 30
0.0
  0
LWPOLYLINE
  5
5C
  8
0
 62
0
370
-1
  6
BYLAYER
100
AcDbEntity
100
AcDbPolyline
 90
2
 70
0
 43
0.01
 10
2548.35964724
 20
65.61679693
 30
0.0
 10
2548.35964724
 20
98.4251954
 30
0.0
  0
LWPOLYLINE
  5
5D
  8
0
 62
0
370
-1
  6
BYLAYER
100
AcDbEntity
100
AcDbPolyline
 90
2
 70
0
 43
0.01
 10
2548.35964724
 20
98.4251954
 30
0.0
 10
2548.35964724
 20
131.23359387
 30
0.0
  0
LWPOLYLINE
  5
5E
  8
0
 62
0
370
-1
  6
BYLAYER
100
AcDbEntity
100
AcDbPolyline
 90
2
 70
0
 43
0.01
 10
2548.35964724
 20
131.23359387
 30
0.0
 10
2548.35964724
 20
164.04199234
 30
0.0
  0
LWPOLYLINE
  5
5F
  8
0
 62
0
370
-1
  6
BYLAYER
100
AcDbEntity
100
AcDbPolyline
 90
2
 70
0
 43
0.01
 10
2548.35964724
 20
164.04199234
 30
0.0
 10
2548.35964724
 20
196.8503908
 30
0.0
  0
LWPOLYLINE
  5
60
  8
0
 62
0
370
-1
  6
BYLAYER
100
AcDbEntity
100
AcDbPolyline
 90
2
 70
0
 43
0.01
 10
2548.35964724
 20
196.8503908
 30
0.0
 10
2123.63295721
 20
196.8503908
 30
0.0
  0
LWPOLYLINE
  5
61
  8
0
 62
0
370
-1
  6
BYLAYER
100
AcDbEntity
100
AcDbPolyline
 90
2
 70
0
 43
0.01
 10
2123.63295721
 20
196.8503908
 30
0.0
 10
1698.90629569
 20
196.8503908
 30
0.0
  0
LWPOLYLINE
  5
62
  8
0
 62
0
370
-1
  6
BYLAYER
100
AcDbEntity
100
AcDbPolyline
 90
2
 70
0
 43
0.01
 10
1698.90629569
 20
196.8503908
 30
0.0
 10
1274.17965862
 20
196.8503908
 30
0.0
  0
LWPOLYLINE
  5
63
  8
0
 62
0
370
-1
  6
BYLAYER
100
AcDbEntity
100
AcDbPolyline
 90
2
 70
0
 43
0.01
 10
1274.17965862
 20
196.8503908
 30
0.0
 10
849.45304192
 20
196.8503908
 30
0.0
  0
LWPOLYLINE
  5
64
  8
0
 62
0
370
-1
  6
BYLAYER
100
AcDbEntity
100
AcDbPolyline
 90
2
 70
0
 43
0.01
 10
849.45304192
 20
196.8503908
 30
0.0
 10
424.72644152
 20
196.8503908
 30
0.0
  0
LWPOLYLINE
  5
65
  8
0
 62
0
370
-1
  6
BYLAYER
100
AcDbEntity
100
AcDbPolyline
 90
2
 70
0
 43
0.01
 10
424.72644152
 20
196.8503908
 30
0.0
 10
-0.00014666
 20
196.8503908
 30
0.0
  0
LWPOLYLINE
  5
66
  8
0
 62
0
370
-1
  6
BYLAYER
100
AcDbEntity
100
AcDbPolyline
 90
2
 70
0
 43
0.01
 10
-0.00014666
 20
196.8503908
 30
0.0
 10
-424.7267267
 20
196.8503908
 30
0.0
  0
LWPOLYLINE
  5
67
  8
0
 62
0
370
-1
  6
BYLAYER
100
AcDbEntity
100
AcDbPolyline
 90
2
 70
0
 43
0.01
 10
-424.7267267
 20
196.8503908
 30
0.0
 10
-849.45330266
 20
196.8503908
 30
0.0
  0
LWPOLYLINE
  5
68
  8
0
 62
0
370
-1
  6
BYLAYER
100
AcDbEntity
100
AcDbPolyline
 90
2
 70
0
 43
0.01
 10
-849.45330266
 20
196.8503908
 30
0.0
 10
-1274.17987862
 20
196.8503908
 30
0.0
  0
LWPOLYLINE
  5
69
  8
0
 62
0
370
-1
  6
BYLAYER
100
AcDbEntity
100
AcDbPolyline
 90
2
 70
0
 43
0.01
 10
-1274.17987862
 20
196.8503908
 30
0.0
 10
-1698.90645865
 20
196.8503908
 30
0.0
  0
LWPOLYLINE
  5
6A
  8
0
 62
0
370
-1
  6
BYLAYER
100
AcDbEntity
100
AcDbPolyline
 90
2
 70
0
 43
0.01
 10
-1698.90645865
 20
196.8503908
 30
0.0
 10
-2123.63304684
 20
196.8503908
 30
0.0
  0
LWPOLYLINE
  5
6B
  8
0
 62
0
370
-1
  6
BYLAYER
100
AcDbEntity
100
AcDbPolyline
 90
2
 70
0
 43
0.01
 10
-2123.63304684
 20
196.8503908
 30
0.0
 10
-2548.35964724
 20
196.8503908
 30
0.0
  0
LWPOLYLINE
  5
6C
  8
0
 62
0
370
-1
  6
BYLAYER
100
AcDbEntity
100
AcDbPolyline
 90
2
 70
0
 43
0.01
 10
-2548.35964724
 20
196.8503908
 30
0.0
 10
-2548.35964724
 20
164.04199234
 30
0.0
  0
LWPOLYLINE
  5
6D
  8
0
 62
0
370
-1
  6
BYLAYER
100
AcDbEntity
100
AcDbPolyline
 90
2
 70
0
 43
0.01
 10
-2548.35964724
 20
164.04199234
 30
0.0
 10
-2548.35964724
 20
131.23359387
 30
0.0
  0
LWPOLYLINE
  5
6E
  8
0
 62
0
370
-1
  6
BYLAYER
100
AcDbEntity
100
AcDbPolyline
 90
2
 70
0
 43
0.01
 10
-2548.35964724
 20
131.23359387
 30
0.0
 10
-2548.35964724
 20
98.4251954
 30
0.0
  0
LWPOLYLINE
  5
6F
  8
0
 62
0
370
-1
  6
BYLAYER
100
AcDbEntity
100
AcDbPolyline
 90
2
 70
0
 43
0.01
 10
-2548.35964724
 20
98.4251954
 30
0.0
 10
-2548.35964724
 20
65.61679693
 30
0.0
  0
LWPOLYLINE
  5
70
  8
0
 62
0
370
-1
  6
BYLAYER
100
AcDbEntity
100
AcDbPolyline
 90
2
 70
0
 43
0.01
 10
-2548.35964724
 20
65.61679693
 30
0.0
 10
-2548.35964724
 20
32.80839847
 30
0.0
  0
LWPOLYLINE
  5
71
  8
0
 62
0
370
-1
  6
BYLAYER
100
AcDbEntity
100
AcDbPolyline
 90
2
 70
0
 43
0.01
 10
-2548.35964724
 20
32.80839847
 30
0.0
 10
-2548.35964724
 20
-0.0
 30
0.0
  0
LWPOLYLINE
  5
72
  8
0
 62
0
370
-1
  6
BYLAYER
100
AcDbEntity
100
AcDbPolyline
 90
2
 70
0
 43
0.01
 10
-2548.35964724
 20
-0.0
 30
0.0
 10
-2548.35964724
 20
-32.80839847
 30
0.0
  0
LWPOLYLINE
  5
73
  8
0
 62
0
370
-1
  6
BYLAYER
100
AcDbEntity
100
AcDbPolyline
 90
2
 70
0
 43
0.01
 10
-2548.35964724
 20
-32.80839847
 30
0.0
 10
-2548.35964724
 20
-65.61679693
 30
0.0
  0
LWPOLYLINE
  5
74
  8
0
 62
0
370
-1
  6
BYLAYER
100
AcDbEntity
100
AcDbPolyline
 90
2
 70
0
 43
0.01
 10
-2548.35964724
 20
-65.61679693
 30
0.0
 10
-2548.35964724
 20
-98.4251954
 30
0.0
  0
LWPOLYLINE
  5
75
  8
0
 62
0
370
-1
  6
BYLAYER
100
AcDbEntity
100
AcDbPolyline
 90
2
 70
0
 43
0.01
 10
-2548.35964724
 20
-98.4251954
 30
0.0
 10
-2548.35964724
 20
-131.23359387
 30
0.0
  0
LWPOLYLINE
  5
76
  8
0
 62
0
370
-1
  6
BYLAYER
100
AcDbEntity
100
AcDbPolyline
 90
2
 70
0
 43
0.01
 10
-2548.35964724
 20
-131.23359387
 30
0.0
 10
-2548.35964724
 20
-164.04199234
 30
0.0
  0
LWPOLYLINE
  5
77
  8
0
 62
0
370
-1
  6
BYLAYER
100
AcDbEntity
100
AcDbPolyline
 90
2
 70
0
 43
0.01
 10
-2548.35964724
 20
-164.04199234
 30
0.0
 10
-2548.35964724
 20
-196.8503908
 30
0.0
  0
LWPOLYLINE
  5
78
  8
0
 62
0
370
-1
  6
BYLAYER
100
AcDbEntity
100
AcDbPolyline
 90
2
 70
0
 43
0.01
 10
-2548.35964724
 20
-196.8503908
 30
0.0
 10
-2548.35964724
 20
-196.8503908
 30
0.0
  0
LWPOLYLINE
  5
79
  8
0
 62
0
370
-1
  6
BYLAYER
100
AcDbEntity
100
AcDbPolyline
 90
2
 70
0
 43
0.01
 10
-2548.35964724
 20
-196.8503908
 30
0.0
 10
-2548.35964724
 20
-196.8503908
 30
0.0
  0
LWPOLYLINE
  5
7A
  8
0
 62
0
370
-1
  6
BYLAYER
100
AcDbEntity
100
AcDbPolyline
 90
2
 70
0
 43
0.01
 10
-2548.35964724
 20
-196.8503908
 30
0.0
 10
-2548.35964724
 20
-196.8503908
 30
0.0
  0
LWPOLYLINE
  5
7B
  8
0
 62
0
370
-1
  6
BYLAYER
100
AcDbEntity
100
AcDbPolyline
 90
2
 70
0
 43
0.01
 10
-2548.35964724
 20
-196.8503908
 30
0.0
 10
-2123.63304684
 20
-196.8503908
 30
0.0
  0
LWPOLYLINE
  5
7C
  8
0
 62
0
370
-1
  6
BYLAYER
100
AcDbEntity
100
AcDbPolyline
 90
2
 70
0
 43
0.01
 10
-2123.63304684
 20
-196.8503908
 30
0.0
 10
-1698.90645865
 20
-196.8503908
 30
0.0
  0
LWPOLYLINE
  5
7D
  8
0
 62
0
370
-1
  6
BYLAYER
100
AcDbEntity
100
AcDbPolyline
 90
2
 70
0
 43
0.01
 10
-1698.90645865
 20
-196.8503908
 30
0.0
 10
-1274.17987862
 20
-196.8503908
 30
0.0
  0
LWPOLYLINE
  5
7E
  8
0
 62
0
370
-1
  6
BYLAYER
100
AcDbEntity
100
AcDbPolyline
 90
2
 70
0
 43
0.01
 10
-1274.17987862
 20
-196.8503908
 30
0.0
 10
-849.45330266
 20
-196.8503908
 30
0.0
  0
LWPOLYLINE
  5
7F
  8
0
 62
0
370
-1
  6
BYLAYER
100
AcDbEntity
100
AcDbPolyline
 90
2
 70
0
 43
0.01
 10
-849.45330266
 20
-196.8503908
 30
0.0
 10
-424.7267267
 20
-196.8503908
 30
0.0
  0
LWPOLYLINE
  5
80
  8
0
 62
0
370
-1
  6
BYLAYER
100
AcDbEntity
100
AcDbPolyline
 90
2
 70
0
 43
0.01
 10
-424.7267267
 20
-196.8503908
 30
0.0
 10
-0.00014666
 20
-196.8503908
 30
0.0
  0
LWPOLYLINE
  5
81
  8
0
 62
0
370
-1
  6
BYLAYER
100
AcDbEntity
100
AcDbPolyline
 90
2
 70
0
 43
0.01
 10
-0.00014666
 20
-196.8503908
 30
0.0
 10
424.72644152
 20
-196.8503908
 30
0.0
  0
LWPOLYLINE
  5
82
  8
0
 62
0
370
-1
  6
BYLAYER
100
AcDbEntity
100
AcDbPolyline
 90
2
 70
0
 43
0.01
 10
424.72644152
 20
-196.8503908
 30
0.0
 10
849.45304192
 20
-196.8503908
 30
0.0
  0
LWPOLYLINE
  5
83
  8
0
 62
0
370
-1
  6
BYLAYER
100
AcDbEntity
100
AcDbPolyline
 90
2
 70
0
 43
0.01
 10
849.45304192
 20
-196.8503908
 30
0.0
 10
1274.17965862
 20
-196.8503908
 30
0.0
  0
LWPOLYLINE
  5
84
  8
0
 62
0
370
-1
  6
BYLAYER
100
AcDbEntity
100
AcDbPolyline
 90
2
 70
0
 43
0.01
 10
1274.17965862
 20
-196.8503908
 30
0.0
 10
1698.90629569
 20
-196.8503908
 30
0.0
  0
LWPOLYLINE
  5
85
  8
0
 62
0
370
-1
  6
BYLAYER
100
AcDbEntity
100
AcDbPolyline
 90
2
 70
0
 43
0.01
 10
1698.90629569
 20
-196.8503908
 30
0.0
 10
2123.63295721
 20
-196.8503908
 30
0.0
  0
LWPOLYLINE
  5
86
  8
0
 62
0
370
-1
  6
BYLAYER
100
AcDbEntity
100
AcDbPolyline
 90
2
 70
0
 43
0.01
 10
2123.63295721
 20
-196.8503908
 30
0.0
 10
2548.35964724
 20
-196.8503908
 30
0.0
  0
LWPOLYLINE
  5
87
  8
0
 62
0
370
-1
  6
BYLAYER
100
AcDbEntity
100
AcDbPolyline
 90
2
 70
0
 43
0.01
 10
2548.35964724
 20
196.8503908
 30
0.0
 10
2548.35964724
 20
196.8503908
 30
0.0
  0
LWPOLYLINE
  5
88
  8
0
 62
0
370
-1
  6
BYLAYER
100
AcDbEntity
100
AcDbPolyline
 90
2
 70
0
 43
0.01
 10
2548.35964724
 20
196.8503908
 30
0.0
 10
2123.63295721
 20
196.8503908
 30
0.0
  0
LWPOLYLINE
  5
89
  8
0
 62
0
370
-1
  6
BYLAYER
100
AcDbEntity
100
AcDbPolyline
 90
2
 70
0
 43
0.01
 10
2123.63295721
 20
196.8503908
 30
0.0
 10
1698.90629569
 20
196.8503908
 30
0.0
  0
LWPOLYLINE
  5
8A
  8
0
 62
0
370
-1
  6
BYLAYER
100
AcDbEntity
100
AcDbPolyline
 90
2
 70
0
 43
0.01
 10
1698.90629569
 20
196.8503908
 30
0.0
 10
1274.17965862
 20
196.8503908
 30
0.0
  0
LWPOLYLINE
  5
8B
  8
0
 62
0
370
-1
  6
BYLAYER
100
AcDbEntity
100
AcDbPolyline
 90
2
 70
0
 43
0.01
 10
1274.17965862
 20
196.8503908
 30
0.0
 10
849.45304192
 20
196.8503908
 30
0.0
  0
LWPOLYLINE
  5
8C
  8
0
 62
0
370
-1
  6
BYLAYER
100
AcDbEntity
100
AcDbPolyline
 90
2
 70
0
 43
0.01
 10
849.45304192
 20
196.8503908
 30
0.0
 10
424.72644152
 20
196.8503908
 30
0.0
  0
LWPOLYLINE
  5
8D
  8
0
 62
0
370
-1
  6
BYLAYER
100
AcDbEntity
100
AcDbPolyline
 90
2
 70
0
 43
0.01
 10
424.72644152
 20
196.8503908
 30
0.0
 10
-0.00014666
 20
196.8503908
 30
0.0
  0
LWPOLYLINE
  5
8E
  8
0
 62
0
370
-1
  6
BYLAYER
100
AcDbEntity
100
AcDbPolyline
 90
2
 70
0
 43
0.01
 10
-0.00014666
 20
196.8503908
 30
0.0
 10
-424.7267267
 20
196.8503908
 30
0.0
  0
LWPOLYLINE
  5
8F
  8
0
 62
0
370
-1
  6
BYLAYER
100
AcDbEntity
100
AcDbPolyline
 90
2
 70
0
 43
0.01
 10
-424.7267267
 20
196.8503908
 30
0.0
 10
-849.45330266
 20
196.8503908
 30
0.0
  0
LWPOLYLINE
  5
90
  8
0
 62
0
370
-1
  6
BYLAYER
100
AcDbEntity
100
AcDbPolyline
 90
2
 70
0
 43
0.01
 10
-849.45330266
 20
196.8503908
 30
0.0
 10
-1274.17987862
 20
196.8503908
 30
0.0
  0
LWPOLYLINE
  5
91
  8
0
 62
0
370
-1
  6
BYLAYER
100
AcDbEntity
100
AcDbPolyline
 90
2
 70
0
 43
0.01
 10
-1274.17987862
 20
196.8503908
 30
0.0
 10
-1698.90645865
 20
196.8503908
 30
0.0
  0
LWPOLYLINE
  5
92
  8
0
 62
0
370
-1
  6
BYLAYER
100
AcDbEntity
100
AcDbPolyline
 90
2
 70
0
 43
0.01
 10
-1698.90645865
 20
196.8503908
 30
0.0
 10
-2123.63304684
 20
196.8503908
 30
0.0
  0
LWPOLYLINE
  5
93
  8
0
 62
0
370
-1
  6
BYLAYER
100
AcDbEntity
100
AcDbPolyline
 90
2
 70
0
 43
0.01
 10
-2123.63304684
 20
196.8503908
 30
0.0
 10
-2548.35964724
 20
196.8503908
 30
0.0
  0
LWPOLYLINE
  5
94
  8
0
 62
0
370
-1
  6
BYLAYER
100
AcDbEntity
100
AcDbPolyline
 90
2
 70
0
 43
0.01
 10
-2548.35964724
 20
-65.61679693
 30
0.0
 10
-2548.35964724
 20
-65.61679693
 30
0.0
  0
LWPOLYLINE
  5
95
  8
0
 62
0
370
-1
  6
BYLAYER
100
AcDbEntity
100
AcDbPolyline
 90
2
 70
0
 43
0.01
 10
-2548.35964724
 20
-65.61679693
 30
0.0
 10
-2335.99634704
 20
-65.61679693
 30
0.0
  0
LWPOLYLINE
  5
96
  8
0
 62
0
370
-1
  6
BYLAYER
100
AcDbEntity
100
AcDbPolyline
 90
2
 70
0
 43
0.01
 10
-2335.99634704
 20
-65.61679693
 30
0.0
 10
-2123.63305295
 20
-65.61679693
 30
0.0
  0
LWPOLYLINE
  5
97
  8
0
 62
0
370
-1
  6
BYLAYER
100
AcDbEntity
100
AcDbPolyline
 90
2
 70
0
 43
0.01
 10
-2123.63305295
 20
-65.61679693
 30
0.0
 10
-1911.26976293
 20
-65.61679693
 30
0.0
  0
LWPOLYLINE
  5
98
  8
0
 62
0
370
-1
  6
BYLAYER
100
AcDbEntity
100
AcDbPolyline
 90
2
 70
0
 43
0.01
 10
-1911.26976293
 20
-65.61679693
 30
0.0
 10
-1698.90647495
 20
-65.61679693
 30
0.0
  0
LWPOLYLINE
  5
99
  8
0
 62
0
370
-1
  6
BYLAYER
100
AcDbEntity
100
AcDbPolyline
 90
2
 70
0
 43
0.01
 10
-1698.90647495
 20
-65.61679693
 30
0.0
 10
-1486.54318697
 20
-65.61679693
 30
0.0
  0
LWPOLYLINE
  5
9A
  8
0
 62
0
370
-1
  6
BYLAYER
100
AcDbEntity
100
AcDbPolyline
 90
2
 70
0
 43
0.01
 10
-1486.54318697
 20
-65.61679693
 30
0.0
 10
-1274.17989695
 20
-65.61679693
 30
0.0
  0
LWPOLYLINE
  5
9B
  8
0
 62
0
370
-1
  6
BYLAYER
100
AcDbEntity
100
AcDbPolyline
 90
2
 70
0
 43
0.01
 10
-1274.17989695
 20
-65.61679693
 30
0.0
 10
-1061.81660286
 20
-65.61679693
 30
0.0
  0
LWPOLYLINE
  5
9C
  8
0
 62
0
370
-1
  6
BYLAYER
100
AcDbEntity
100
AcDbPolyline
 90
2
 70
0
 43
0.01
 10
-1061.81660286
 20
-65.61679693
 30
0.0
 10
-849.45330266
 20
-65.61679693
 30
0.0
  0
LWPOLYLINE
  5
9D
  8
0
 62
0
370
-1
  6
BYLAYER
100
AcDbEntity
100
AcDbPolyline
 90
2
 70
0
 43
0.01
 10
-849.45330266
 20
-65.61679693
 30
0.0
 10
-637.08999431
 20
-65.61679693
 30
0.0
  0
LWPOLYLINE
  5
9E
  8
0
 62
0
370
-1
  6
BYLAYER
100
AcDbEntity
100
AcDbPolyline
 90
2
 70
0
 43
0.01
 10
-637.08999431
 20
-65.61679693
 30
0.0
 10
-424.72667577
 20
-65.61679693
 30
0.0
  0
LWPOLYLINE
  5
9F
  8
0
 62
0
370
-1
  6
BYLAYER
100
AcDbEntity
100
AcDbPolyline
 90
2
 70
0
 43
0.01
 10
-424.72667577
 20
-65.61679693
 30
0.0
 10
-212.36334502
 20
-65.61679693
 30
0.0
  0
LWPOLYLINE
  5
A0
  8
0
 62
0
370
-1
  6
BYLAYER
100
AcDbEntity
100
AcDbPolyline
 90
2
 70
0
 43
0.01
 10
-212.36334502
 20
-65.61679693
 30
0.0
 10
0.0
 20
-65.61679693
 30
0.0
  0
LWPOLYLINE
  5
A1
  8
0
 62
0
370
-1
  6
BYLAYER
100
AcDbEntity
100
AcDbPolyline
 90
2
 70
0
 43
0.01
 10
0.0
 20
65.61679693
 30
0.0
 10
0.0
 20
65.61679693
 30
0.0
  0
LWPOLYLINE
  5
A2
  8
0
 62
0
370
-1
  6
BYLAYER
100
AcDbEntity
100
AcDbPolyline
 90
2
 70
0
 43
0.01
 10
0.0
 20
65.61679693
 30
0.0
 10
212.3633002
 20
65.61679693
 30
0.0
  0
LWPOLYLINE
  5
A3
  8
0
 62
0
370
-1
  6
BYLAYER
100
AcDbEntity
100
AcDbPolyline
 90
2
 70
0
 43
0.01
 10
212.3633002
 20
65.61679693
 30
0.0
 10
424.72659429
 20
65.61679693
 30
0.0
  0
LWPOLYLINE
  5
A4
  8
0
 62
0
370
-1
  6
BYLAYER
100
AcDbEntity
100
AcDbPolyline
 90
2
 70
0
 43
0.01
 10
424.72659429
 20
65.61679693
 30
0.0
 10
637.08988431
 20
65.61679693
 30
0.0
  0
LWPOLYLINE
  5
A5
  8
0
 62
0
370
-1
  6
BYLAYER
100
AcDbEntity
100
AcDbPolyline
 90
2
 70
0
 43
0.01
 10
637.08988431
 20
65.61679693
 30
0.0
 10
849.45317229
 20
65.61679693
 30
0.0
  0
LWPOLYLINE
  5
A6
  8
0
 62
0
370
-1
  6
BYLAYER
100
AcDbEntity
100
AcDbPolyline
 90
2
 70
0
 43
0.01
 10
849.45317229
 20
65.61679693
 30
0.0
 10
1061.81646027
 20
65.61679693
 30
0.0
  0
LWPOLYLINE
  5
A7
  8
0
 62
0
370
-1
  6
BYLAYER
100
AcDbEntity
100
AcDbPolyline
 90
2
 70
0
 43
0.01
 10
1061.81646027
 20
65.61679693
 30
0.0
 10
1274.17975029
 20
65.61679693
 30
0.0
  0
LWPOLYLINE
  5
A8
  8
0
 62
0
370
-1
  6
BYLAYER
100
AcDbEntity
100
AcDbPolyline
 90
2
 70
0
 43
0.01
 10
1274.17975029
 20
65.61679693
 30
0.0
 10
1486.54304438
 20
65.61679693
 30
0.0
  0
LWPOLYLINE
  5
A9
  8
0
 62
0
370
-1
  6
BYLAYER
100
AcDbEntity
100
AcDbPolyline
 90
2
 70
0
 43
0.01
 10
1486.54304438
 20
65.61679693
 30
0.0
 10
1698.90634458
 20
65.61679693
 30
0.0
  0
LWPOLYLINE
  5
AA
  8
0
 62
0
370
-1
  6
BYLAYER
100
AcDbEntity
100
AcDbPolyline
 90
2
 70
0
 43
0.01
 10
1698.90634458
 20
65.61679693
 30
0.0
 10
1911.26965293
 20
65.61679693
 30
0.0
  0
LWPOLYLINE
  5
AB
  8
0
 62
0
370
-1
  6
BYLAYER
100
AcDbEntity
100
AcDbPolyline
 90
2
 70
0
 43
0.01
 10
1911.26965293
 20
65.61679693
 30
0.0
 10
2123.63297147
 20
65.61679693
 30
0.0
  0
LWPOLYLINE
  5
AC
  8
0
 62
0
370
-1
  6
BYLAYER
100
AcDbEntity
100
AcDbPolyline
 90
2
 70
0
 43
0.01
 10
2123.63297147
 20
65.61679693
 30
0.0
 10
2335.99630222
 20
65.61679693
 30
0.0
  0
LWPOLYLINE
  5
AD
  8
0
 62
0
370
-1
  6
BYLAYER
100
AcDbEntity
100
AcDbPolyline
 90
2
 70
0
 43
0.01
 10
2335.99630222
 20
65.61679693
 30
0.0
 10
2548.35964724
 20
65.61679693
 30
0.0
  0
LWPOLYLINE
  5
AE
  8
0
 62
0
370
-1
  6
BYLAYER
100
AcDbEntity
100
AcDbPolyline
 90
2
 70
0
 43
0.01
 10
-2285.8924595
 20
196.8503908
 30
0.0
 10
-2285.8924595
 20
196.8503908
 30
0.0
  0
LWPOLYLINE
  5
AF
  8
0
 62
0
370
-1
  6
BYLAYER
100
AcDbEntity
100
AcDbPolyline
 90
2
 70
0
 43
0.01
 10
-2285.8924595
 20
196.8503908
 30
0.0
 10
-2307.76472849
 20
196.8503908
 30
0.0
  0
LWPOLYLINE
  5
B0
  8
0
 62
0
370
-1
  6
BYLAYER
100
AcDbEntity
100
AcDbPolyline
 90
2
 70
0
 43
0.01
 10
-2307.76472849
 20
196.8503908
 30
0.0
 10
-2329.63699617
 20
196.8503908
 30
0.0
  0
LWPOLYLINE
  5
B1
  8
0
 62
0
370
-1
  6
BYLAYER
100
AcDbEntity
100
AcDbPolyline
 90
2
 70
0
 43
0.01
 10
-2329.63699617
 20
196.8503908
 30
0.0
 10
-2351.50926274
 20
196.8503908
 30
0.0
  0
LWPOLYLINE
  5
B2
  8
0
 62
0
370
-1
  6
BYLAYER
100
AcDbEntity
100
AcDbPolyline
 90
2
 70
0
 43
0.01
 10
-2351.50926274
 20
196.8503908
 30
0.0
 10
-2373.38152842
 20
196.8503908
 30
0.0
  0
LWPOLYLINE
  5
B3
  8
0
 62
0
370
-1
  6
BYLAYER
100
AcDbEntity
100
AcDbPolyline
 90
2
 70
0
 43
0.01
 10
-2373.38152842
 20
196.8503908
 30
0.0
 10
-2395.25379342
 20
196.8503908
 30
0.0
  0
LWPOLYLINE
  5
B4
  8
0
 62
0
370
-1
  6
BYLAYER
100
AcDbEntity
100
AcDbPolyline
 90
2
 70
0
 43
0.01
 10
-2395.25379342
 20
196.8503908
 30
0.0
 10
-2417.12605796
 20
196.8503908
 30
0.0
  0
LWPOLYLINE
  5
B5
  8
0
 62
0
370
-1
  6
BYLAYER
100
AcDbEntity
100
AcDbPolyline
 90
2
 70
0
 43
0.01
 10
-2417.12605796
 20
196.8503908
 30
0.0
 10
-2438.99832224
 20
196.8503908
 30
0.0
  0
LWPOLYLINE
  5
B6
  8
0
 62
0
370
-1
  6
BYLAYER
100
AcDbEntity
100
AcDbPolyline
 90
2
 70
0
 43
0.01
 10
-2438.99832224
 20
196.8503908
 30
0.0
 10
-2460.87058647
 20
196.8503908
 30
0.0
  0
LWPOLYLINE
  5
B7
  8
0
 62
0
370
-1
  6
BYLAYER
100
AcDbEntity
100
AcDbPolyline
 90
2
 70
0
 43
0.01
 10
-2460.87058647
 20
196.8503908
 30
0.0
 10
-2482.74285088
 20
196.8503908
 30
0.0
  0
LWPOLYLINE
  5
B8
  8
0
 62
0
370
-1
  6
BYLAYER
100
AcDbEntity
100
AcDbPolyline
 90
2
 70
0
 43
0.01
 10
-2482.74285088
 20
196.8503908
 30
0.0
 10
-2504.61511567
 20
196.8503908
 30
0.0
  0
LWPOLYLINE
  5
B9
  8
0
 62
0
370
-1
  6
BYLAYER
100
AcDbEntity
100
AcDbPolyline
 90
2
 70
0
 43
0.01
 10
-2504.61511567
 20
196.8503908
 30
0.0
 10
-2526.48738105
 20
196.8503908
 30
0.0
  0
LWPOLYLINE
  5
BA
  8
0
 62
0
370
-1
  6
BYLAYER
100
AcDbEntity
100
AcDbPolyline
 90
2
 70
0
 43
0.01
 10
-2526.48738105
 20
196.8503908
 30
0.0
 10
-2548.35964724
 20
196.8503908
 30
0.0
  0
LWPOLYLINE
  5
BB
  8
0
 62
0
370
-1
  6
BYLAYER
100
AcDbEntity
100
AcDbPolyline
 90
2
 70
0
 43
0.01
 10
-2548.35964724
 20
196.8503908
 30
0.0
 10
-2548.35964724
 20
164.04199234
 30
0.0
  0
LWPOLYLINE
  5
BC
  8
0
 62
0
370
-1
  6
BYLAYER
100
AcDbEntity
100
AcDbPolyline
 90
2
 70
0
 43
0.01
 10
-2548.35964724
 20
164.04199234
 30
0.0
 10
-2548.35964724
 20
131.23359387
 30
0.0
  0
LWPOLYLINE
  5
BD
  8
0
 62
0
370
-1
  6
BYLAYER
100
AcDbEntity
100
AcDbPolyline
 90
2
 70
0
 43
0.01
 10
-2548.35964724
 20
131.23359387
 30
0.0
 10
-2548.35964724
 20
98.4251954
 30
0.0
  0
LWPOLYLINE
  5
BE
  8
0
 62
0
370
-1
  6
BYLAYER
100
AcDbEntity
100
AcDbPolyline
 90
2
 70
0
 43
0.01
 10
-2548.35964724
 20
98.4251954
 30
0.0
 10
-2548.35964724
 20
65.61679693
 30
0.0
  0
LWPOLYLINE
  5
BF
  8
0
 62
0
370
-1
  6
BYLAYER
100
AcDbEntity
100
AcDbPolyline
 90
2
 70
0
 43
0.01
 10
-2548.35964724
 20
65.61679693
 30
0.0
 10
-2548.35964724
 20
32.80839847
 30
0.0
  0
LWPOLYLINE
  5
C0
  8
0
 62
0
370
-1
  6
BYLAYER
100
AcDbEntity
100
AcDbPolyline
 90
2
 70
0
 43
0.01
 10
-2548.35964724
 20
32.80839847
 30
0.0
 10
-2548.35964724
 20
-0.0
 30
0.0
  0
LWPOLYLINE
  5
C1
  8
0
 62
0
370
-1
  6
BYLAYER
100
AcDbEntity
100
AcDbPolyline
 90
2
 70
0
 43
0.01
 10
-2548.35964724
 20
-0.0
 30
0.0
 10
-2548.35964724
 20
-32.80839847
 30
0.0
  0
LWPOLYLINE
  5
C2
  8
0
 62
0
370
-1
  6
BYLAYER
100
AcDbEntity
100
AcDbPolyline
 90
2
 70
0
 43
0.01
 10
-2548.35964724
 20
-32.80839847
 30
0.0
 10
-2548.35964724
 20
-65.61679693
 30
0.0
  0
LWPOLYLINE
  5
C3
  8
0
 62
0
370
-1
  6
BYLAYER
100
AcDbEntity
100
AcDbPolyline
 90
2
 70
0
 43
0.01
 10
-2548.35964724
 20
-65.61679693
 30
0.0
 10
-2548.35964724
 20
-98.4251954
 30
0.0
  0
LWPOLYLINE
  5
C4
  8
0
 62
0
370
-1
  6
BYLAYER
100
AcDbEntity
100
AcDbPolyline
 90
2
 70
0
 43
0.01
 10
-2548.35964724
 20
-98.4251954
 30
0.0
 10
-2548.35964724
 20
-131.23359387
 30
0.0
  0
LWPOLYLINE
  5
C5
  8
0
 62
0
370
-1
  6
BYLAYER
100
AcDbEntity
100
AcDbPolyline
 90
2
 70
0
 43
0.01
 10
-2548.35964724
 20
-131.23359387
 30
0.0
 10
-2548.35964724
 20
-164.04199234
 30
0.0
  0
LWPOLYLINE
  5
C6
  8
0
 62
0
370
-1
  6
BYLAYER
100
AcDbEntity
100
AcDbPolyline
 90
2
 70
0
 43
0.01
 10
-2548.35964724
 20
-164.04199234
 30
0.0
 10
-2548.35964724
 20
-196.8503908
 30
0.0
  0
LWPOLYLINE
  5
C7
  8
0
 62
0
370
-1
  6
BYLAYER
100
AcDbEntity
100
AcDbPolyline
 90
2
 70
0
 43
0.01
 10
-2548.35964724
 20
-196.8503908
 30
0.0
 10
-2526.48738105
 20
-196.8503908
 30
0.0
  0
LWPOLYLINE
  5
C8
  8
0
 62
0
370
-1
  6
BYLAYER
100
AcDbEntity
100
AcDbPolyline
 90
2
 70
0
 43
0.01
 10
-2526.48738105
 20
-196.8503908
 30
0.0
 10
-2504.61511567
 20
-196.8503908
 30
0.0
  0
LWPOLYLINE
  5
C9
  8
0
 62
0
370
-1
  6
BYLAYER
100
AcDbEntity
100
AcDbPolyline
 90
2
 70
0
 43
0.01
 10
-2504.61511567
 20
-196.8503908
 30
0.0
 10
-2482.74285088
 20
-196.8503908
 30
0.0
  0
LWPOLYLINE
  5
CA
  8
0
 62
0
370
-1
  6
BYLAYER
100
AcDbEntity
100
AcDbPolyline
 90
2
 70
0
 43
0.01
 10
-2482.74285088
 20
-196.8503908
 30
0.0
 10
-2460.87058647
 20
-196.8503908
 30
0.0
  0
LWPOLYLINE
  5
CB
  8
0
 62
0
370
-1
  6
BYLAYER
100
AcDbEntity
100
AcDbPolyline
 90
2
 70
0
 43
0.01
 10
-2460.87058647
 20
-196.8503908
 30
0.0
 10
-2438.99832224
 20
-196.8503908
 30
0.0
  0
LWPOLYLINE
  5
CC
  8
0
 62
0
370
-1
  6
BYLAYER
100
AcDbEntity
100
AcDbPolyline
 90
2
 70
0
 43
0.01
 10
-2438.99832224
 20
-196.8503908
 30
0.0
 10
-2417.12605796
 20
-196.8503908
 30
0.0
  0
LWPOLYLINE
  5
CD
  8
0
 62
0
370
-1
  6
BYLAYER
100
AcDbEntity
100
AcDbPolyline
 90
2
 70
0
 43
0.01
 10
-2417.12605796
 20
-196.8503908
 30
0.0
 10
-2395.25379342
 20
-196.8503908
 30
0.0
  0
LWPOLYLINE
  5
CE
  8
0
 62
0
370
-1
  6
BYLAYER
100
AcDbEntity
100
AcDbPolyline
 90
2
 70
0
 43
0.01
 10
-2395.25379342
 20
-196.8503908
 30
0.0
 10
-2373.38152842
 20
-196.8503908
 30
0.0
  0
LWPOLYLINE
  5
CF
  8
0
 62
0
370
-1
  6
BYLAYER
100
AcDbEntity
100
AcDbPolyline
 90
2
 70
0
 43
0.01
 10
-2373.38152842
 20
-196.8503908
 30
0.0
 10
-2351.50926274
 20
-196.8503908
 30
0.0
  0
LWPOLYLINE
  5
D0
  8
0
 62
0
370
-1
  6
BYLAYER
100
AcDbEntity
100
AcDbPolyline
 90
2
 70
0
 43
0.01
 10
-2351.50926274
 20
-196.8503908
 30
0.0
 10
-2329.63699617
 20
-196.8503908
 30
0.0
  0
LWPOLYLINE
  5
D1
  8
0
 62
0
370
-1
  6
BYLAYER
100
AcDbEntity
100
AcDbPolyline
 90
2
 70
0
 43
0.01
 10
-2329.63699617
 20
-196.8503908
 30
0.0
 10
-2307.76472849
 20
-196.8503908
 30
0.0
  0
LWPOLYLINE
  5
D2
  8
0
 62
0
370
-1
  6
BYLAYER
100
AcDbEntity
100
AcDbPolyline
 90
2
 70
0
 43
0.01
 10
-2307.76472849
 20
-196.8503908
 30
0.0
 10
-2285.8924595
 20
-196.8503908
 30
0.0
  0
LWPOLYLINE
  5
D3
  8
0
 62
0
370
-1
  6
BYLAYER
100
AcDbEntity
100
AcDbPolyline
 90
2
 70
0
 43
0.04
 10
-2548.35964724
 20
-65.61679693
 30
0.0
 10
-2548.35964724
 20
-65.61679693
 30
0.0
  0
LWPOLYLINE
  5
D4
  8
0
 62
0
370
-1
  6
BYLAYER
100
AcDbEntity
100
AcDbPolyline
 90
2
 70
0
 43
0.04
 10
-2548.35964724
 20
-65.61679693
 30
0.0
 10
-2526.48738105
 20
-65.61679693
 30
0.0
  0
LWPOLYLINE
  5
D5
  8
0
 62
0
370
-1
  6
BYLAYER
100
AcDbEntity
100
AcDbPolyline
 90
2
 70
0
 43
0.04
 10
-2526.48738105
 20
-65.61679693
 30
0.0
 10
-2504.61511567
 20
-65.61679693
 30
0.0
  0
LWPOLYLINE
  5
D6
  8
0
 62
0
370
-1
  6
BYLAYER
100
AcDbEntity
100
AcDbPolyline
 90
2
 70
0
 43
0.04
 10
-2504.61511567
 20
-65.61679693
 30
0.0
 10
-2482.74285088
 20
-65.61679693
 30
0.0
  0
LWPOLYLINE
  5
D7
  8
0
 62
0
370
-1
  6
BYLAYER
100
AcDbEntity
100
AcDbPolyline
 90
2
 70
0
 43
0.04
 10
-2482.74285088
 20
-65.61679693
 30
0.0
 10
-2460.87058647
 20
-65.61679693
 30
0.0
  0
LWPOLYLINE
  5
D8
  8
0
 62
0
370
-1
  6
BYLAYER
100
AcDbEntity
100
AcDbPolyline
 90
2
 70
0
 43
0.04
 10
-2460.87058647
 20
-65.61679693
 30
0.0
 10
-2438.99832224
 20
-65.61679693
 30
0.0
  0
LWPOLYLINE
  5
D9
  8
0
 62
0
370
-1
  6
BYLAYER
100
AcDbEntity
100
AcDbPolyline
 90
2
 70
0
 43
0.04
 10
-2438.99832224
 20
-65.61679693
 30
0.0
 10
-2417.12605796
 20
-65.61679693
 30
0.0
  0
LWPOLYLINE
  5
DA
  8
0
 62
0
370
-1
  6
BYLAYER
100
AcDbEntity
100
AcDbPolyline
 90
2
 70
0
 43
0.04
 10
-2417.12605796
 20
-65.61679693
 30
0.0
 10
-2395.25379342
 20
-65.61679693
 30
0.0
  0
LWPOLYLINE
  5
DB
  8
0
 62
0
370
-1
  6
BYLAYER
100
AcDbEntity
100
AcDbPolyline
 90
2
 70
0
 43
0.04
 10
-2395.25379342
 20
-65.61679693
 30
0.0
 10
-2373.38152842
 20
-65.61679693
 30
0.0
  0
LWPOLYLINE
  5
DC
  8
0
 62
0
370
-1
  6
BYLAYER
100
AcDbEntity
100
AcDbPolyline
 90
2
 70
0
 43
0.04
 10
-2373.38152842
 20
-65.61679693
 30
0.0
 10
-2351.50926274
 20
-65.61679693
 30
0.0
  0
LWPOLYLINE
  5
DD
  8
0
 62
0
370
-1
  6
BYLAYER
100
AcDbEntity
100
AcDbPolyline
 90
2
 70
0
 43
0.04
 10
-2351.50926274
 20
-65.61679693
 30
0.0
 10
-2329.63699617
 20
-65.61679693
 30
0.0
  0
LWPOLYLINE
  5
DE
  8
0
 62
0
370
-1
  6
BYLAYER
100
AcDbEntity
100
AcDbPolyline
 90
2
 70
0
 43
0.04
 10
-2329.63699617
 20
-65.61679693
 30
0.0
 10
-2307.76472849
 20
-65.61679693
 30
0.0
  0
LWPOLYLINE
  5
DF
  8
0
 62
0
370
-1
  6
BYLAYER
100
AcDbEntity
100
AcDbPolyline
 90
2
 70
0
 43
0.04
 10
-2307.76472849
 20
-65.61679693
 30
0.0
 10
-2285.8924595
 20
-65.61679693
 30
0.0
  0
LWPOLYLINE
  5
E0
  8
0
 62
0
370
-1
  6
BYLAYER
100
AcDbEntity
100
AcDbPolyline
 90
2
 70
0
 43
0.04
 10
-131.2336672
 20
65.61679693
 30
0.0
 10
-131.2336672
 20
65.61679693
 30
0.0
  0
LWPOLYLINE
  5
E1
  8
0
 62
0
370
-1
  6
BYLAYER
100
AcDbEntity
100
AcDbPolyline
 90
2
 70
0
 43
0.04
 10
-131.2336672
 20
65.61679693
 30
0.0
 10
-109.36140101
 20
65.61679693
 30
0.0
  0
LWPOLYLINE
  5
E2
  8
0
 62
0
370
-1
  6
BYLAYER
100
AcDbEntity
100
AcDbPolyline
 90
2
 70
0
 43
0.04
 10
-109.36140101
 20
65.61679693
 30
0.0
 10
-87.48913563
 20
65.61679693
 30
0.0
  0
LWPOLYLINE
  5
E3
  8
0
 62
0
370
-1
  6
BYLAYER
100
AcDbEntity
100
AcDbPolyline
 90
2
 70
0
 43
0.04
 10
-87.48913563
 20
65.61679693
 30
0.0
 10
-65.61687084
 20
65.61679693
 30
0.0
  0
LWPOLYLINE
  5
E4
  8
0
 62
0
370
-1
  6
BYLAYER
100
AcDbEntity
100
AcDbPolyline
 90
2
 70
0
 43
0.04
 10
-65.61687084
 20
65.61679693
 30
0.0
 10
-43.74460643
 20
65.61679693
 30
0.0
  0
LWPOLYLINE
  5
E5
  8
0
 62
0
370
-1
  6
BYLAYER
100
AcDbEntity
100
AcDbPolyline
 90
2
 70
0
 43
0.04
 10
-43.74460643
 20
65.61679693
 30
0.0
 10
-21.8723422
 20
65.61679693
 30
0.0
  0
LWPOLYLINE
  5
E6
  8
0
 62
0
370
-1
  6
BYLAYER
100
AcDbEntity
100
AcDbPolyline
 90
2
 70
0
 43
0.04
 10
-21.8723422
 20
65.61679693
 30
0.0
 10
-0.00007792
 20
65.61679693
 30
0.0
  0
LWPOLYLINE
  5
E7
  8
0
 62
0
370
-1
  6
BYLAYER
100
AcDbEntity
100
AcDbPolyline
 90
2
 70
0
 43
0.04
 10
-0.00007792
 20
65.61679693
 30
0.0
 10
21.87218662
 20
65.61679693
 30
0.0
  0
LWPOLYLINE
  5
E8
  8
0
 62
0
370
-1
  6
BYLAYER
100
AcDbEntity
100
AcDbPolyline
 90
2
 70
0
 43
0.04
 10
21.87218662
 20
65.61679693
 30
0.0
 10
43.74445162
 20
65.61679693
 30
0.0
  0
LWPOLYLINE
  5
E9
  8
0
 62
0
370
-1
  6
BYLAYER
100
AcDbEntity
100
AcDbPolyline
 90
2
 70
0
 43
0.04
 10
43.74445162
 20
65.61679693
 30
0.0
 10
65.6167173
 20
65.61679693
 30
0.0
  0
LWPOLYLINE
  5
EA
  8
0
 62
0
370
-1
  6
BYLAYER
100
AcDbEntity
100
AcDbPolyline
 90
2
 70
0
 43
0.04
 10
65.6167173
 20
65.61679693
 30
0.0
 10
87.48898387
 20
65.61679693
 30
0.0
  0
LWPOLYLINE
  5
EB
  8
0
 62
0
370
-1
  6
BYLAYER
100
AcDbEntity
100
AcDbPolyline
 90
2
 70
0
 43
0.04
 10
87.48898387
 20
65.61679693
 30
0.0
 10
109.36125155
 20
65.61679693
 30
0.0
  0
LWPOLYLINE
  5
EC
  8
0
 62
0
370
-1
  6
BYLAYER
100
AcDbEntity
100
AcDbPolyline
 90
2
 70
0
 43
0.04
 10
109.36125155
 20
65.61679693
 30
0.0
 10
131.23352054
 20
65.61679693
 30
0.0
  0
LWPOLYLINE
  5
ED
  8
0
 62
0
370
-1
  6
BYLAYER
100
AcDbEntity
100
AcDbPolyline
 90
2
 70
0
 43
0.04
 10
-131.2336672
 20
-65.61679693
 30
0.0
 10
-131.2336672
 20
-65.61679693
 30
0.0
  0
LWPOLYLINE
  5
EE
  8
0
 62
0
370
-1
  6
BYLAYER
100
AcDbEntity
100
AcDbPolyline
 90
2
 70
0
 43
0.04
 10
-131.2336672
 20
-65.61679693
 30
0.0
 10
-109.36140101
 20
-65.61679693
 30
0.0
  0
LWPOLYLINE
  5
EF
  8
0
 62
0
370
-1
  6
BYLAYER
100
AcDbEntity
100
AcDbPolyline
 90
2
 70
0
 43
0.04
 10
-109.36140101
 20
-65.61679693
 30
0.0
 10
-87.48913563
 20
-65.61679693
 30
0.0
  0
LWPOLYLINE
  5
F0
  8
0
 62
0
370
-1
  6
BYLAYER
100
AcDbEntity
100
AcDbPolyline
 90
2
 70
0
 43
0.04
 10
-87.48913563
 20
-65.61679693
 30
0.0
 10
-65.61687084
 20
-65.61679693
 30
0.0
  0
LWPOLYLINE
  5
F1
  8
0
 62
0
370
-1
  6
BYLAYER
100
AcDbEntity
100
AcDbPolyline
 90
2
 70
0
 43
0.04
 10
-65.61687084
 20
-65.61679693
 30
0.0
 10
-43.74460643
 20
-65.61679693
 30
0.0
  0
LWPOLYLINE
  5
F2
  8
0
 62
0
370
-1
  6
BYLAYER
100
AcDbEntity
100
AcDbPolyline
 90
2
 70
0
 43
0.04
 10
-43.74460643
 20
-65.61679693
 30
0.0
 10
-21.8723422
 20
-65.61679693
 30
0.0
  0
LWPOLYLINE
  5
F3
  8
0
 62
0
370
-1
  6
BYLAYER
100
AcDbEntity
100
AcDbPolyline
 90
2
 70
0
 43
0.04
 10
-21.8723422
 20
-65.61679693
 30
0.0
 10
-0.00007792
 20
-65.61679693
 30
0.0
  0
LWPOLYLINE
  5
F4
  8
0
 62
0
370
-1
  6
BYLAYER
100
AcDbEntity
100
AcDbPolyline
 90
2
 70
0
 43
0.04
 10
-0.00007792
 20
-65.61679693
 30
0.0
 10
21.87218662
 20
-65.61679693
 30
0.0
  0
LWPOLYLINE
  5
F5
  8
0
 62
0
370
-1
  6
BYLAYER
100
AcDbEntity
100
AcDbPolyline
 90
2
 70
0
 43
0.04
 10
21.87218662
 20
-65.61679693
 30
0.0
 10
43.74445162
 20
-65.61679693
 30
0.0
  0
LWPOLYLINE
  5
F6
  8
0
 62
0
370
-1
  6
BYLAYER
100
AcDbEntity
100
AcDbPolyline
 90
2
 70
0
 43
0.04
 10
43.74445162
 20
-65.61679693
 30
0.0
 10
65.6167173
 20
-65.61679693
 30
0.0
  0
LWPOLYLINE
  5
F7
  8
0
 62
0
370
-1
  6
BYLAYER
100
AcDbEntity
100
AcDbPolyline
 90
2
 70
0
 43
0.04
 10
65.6167173
 20
-65.61679693
 30
0.0
 10
87.48898387
 20
-65.61679693
 30
0.0
  0
LWPOLYLINE
  5
F8
  8
0
 62
0
370
-1
  6
BYLAYER
100
AcDbEntity
100
AcDbPolyline
 90
2
 70
0
 43
0.04
 10
87.48898387
 20
-65.61679693
 30
0.0
 10
109.36125155
 20
-65.61679693
 30
0.0
  0
LWPOLYLINE
  5
F9
  8
0
 62
0
370
-1
  6
BYLAYER
100
AcDbEntity
100
AcDbPolyline
 90
2
 70
0
 43
0.04
 10
109.36125155
 20
-65.61679693
 30
0.0
 10
131.23352054
 20
-65.61679693
 30
0.0
  0
LWPOLYLINE
  5
FA
  8
0
 62
0
370
-1
  6
BYLAYER
100
AcDbEntity
100
AcDbPolyline
 90
2
 70
0
 43
0.01
 10
2285.89231284
 20
-196.8503908
 30
0.0
 10
2285.89231284
 20
-196.8503908
 30
0.0
  0
LWPOLYLINE
  5
FB
  8
0
 62
0
370
-1
  6
BYLAYER
100
AcDbEntity
100
AcDbPolyline
 90
2
 70
0
 43
0.01
 10
2285.89231284
 20
-196.8503908
 30
0.0
 10
2307.76457903
 20
-196.8503908
 30
0.0
  0
LWPOLYLINE
  5
FC
  8
0
 62
0
370
-1
  6
BYLAYER
100
AcDbEntity
100
AcDbPolyline
 90
2
 70
0
 43
0.01
 10
2307.76457903
 20
-196.8503908
 30
0.0
 10
2329.63684441
 20
-196.8503908
 30
0.0
  0
LWPOLYLINE
  5
FD
  8
0
 62
0
370
-1
  6
BYLAYER
100
AcDbEntity
100
AcDbPolyline
 90
2
 70
0
 43
0.01
 10
2329.63684441
 20
-196.8503908
 30
0.0
 10
2351.5091092
 20
-196.8503908
 30
0.0
  0
LWPOLYLINE
  5
FE
  8
0
 62
0
370
-1
  6
BYLAYER
100
AcDbEntity
100
AcDbPolyline
 90
2
 70
0
 43
0.01
 10
2351.5091092
 20
-196.8503908
 30
0.0
 10
2373.38137361
 20
-196.8503908
 30
0.0
  0
LWPOLYLINE
  5
FF
  8
0
 62
0
370
-1
  6
BYLAYER
100
AcDbEntity
100
AcDbPolyline
 90
2
 70
0
 43
0.01
 10
2373.38137361
 20
-196.8503908
 30
0.0
 10
2395.25363784
 20
-196.8503908
 30
0.0
  0
LWPOLYLINE
  5
100
  8
0
 62
0
370
-1
  6
BYLAYER
100
AcDbEntity
100
AcDbPolyline
 90
2
 70
0
 43
0.01
 10
2395.25363784
 20
-196.8503908
 30
0.0
 10
2417.12590212
 20
-196.8503908
 30
0.0
  0
LWPOLYLINE
  5
101
  8
0
 62
0
370
-1
  6
BYLAYER
100
AcDbEntity
100
AcDbPolyline
 90
2
 70
0
 43
0.01
 10
2417.12590212
 20
-196.8503908
 30
0.0
 10
2438.99816666
 20
-196.8503908
 30
0.0
  0
LWPOLYLINE
  5
102
  8
0
 62
0
370
-1
  6
BYLAYER
100
AcDbEntity
100
AcDbPolyline
 90
2
 70
0
 43
0.01
 10
2438.99816666
 20
-196.8503908
 30
0.0
 10
2460.87043166
 20
-196.8503908
 30
0.0
  0
LWPOLYLINE
  5
103
  8
0
 62
0
370
-1
  6
BYLAYER
100
AcDbEntity
100
AcDbPolyline
 90
2
 70
0
 43
0.01
 10
2460.87043166
 20
-196.8503908
 30
0.0
 10
2482.74269734
 20
-196.8503908
 30
0.0
  0
LWPOLYLINE
  5
104
  8
0
 62
0
370
-1
  6
BYLAYER
100
AcDbEntity
100
AcDbPolyline
 90
2
 70
0
 43
0.01
 10
2482.74269734
 20
-196.8503908
 30
0.0
 10
2504.61496391
 20
-196.8503908
 30
0.0
  0
LWPOLYLINE
  5
105
  8
0
 62
0
370
-1
  6
BYLAYER
100
AcDbEntity
100
AcDbPolyline
 90
2
 70
0
 43
0.01
 10
2504.61496391
 20
-196.8503908
 30
0.0
 10
2526.48723159
 20
-196.8503908
 30
0.0
  0
LWPOLYLINE
  5
106
  8
0
 62
0
370
-1
  6
BYLAYER
100
AcDbEntity
100
AcDbPolyline
 90
2
 70
0
 43
0.01
 10
2526.48723159
 20
-196.8503908
 30
0.0
 10
2548.35950058
 20
-196.8503908
 30
0.0
  0
LWPOLYLINE
  5
107
  8
0
 62
0
370
-1
  6
BYLAYER
100
AcDbEntity
100
AcDbPolyline
 90
2
 70
0
 43
0.01
 10
2548.35950058
 20
-196.8503908
 30
0.0
 10
2548.35950058
 20
-164.04199234
 30
0.0
  0
LWPOLYLINE
  5
108
  8
0
 62
0
370
-1
  6
BYLAYER
100
AcDbEntity
100
AcDbPolyline
 90
2
 70
0
 43
0.01
 10
2548.35950058
 20
-164.04199234
 30
0.0
 10
2548.35950058
 20
-131.23359387
 30
0.0
  0
LWPOLYLINE
  5
109
  8
0
 62
0
370
-1
  6
BYLAYER
100
AcDbEntity
100
AcDbPolyline
 90
2
 70
0
 43
0.01
 10
2548.35950058
 20
-131.23359387
 30
0.0
 10
2548.35950058
 20
-98.4251954
 30
0.0
  0
LWPOLYLINE
  5
10A
  8
0
 62
0
370
-1
  6
BYLAYER
100
AcDbEntity
100
AcDbPolyline
 90
2
 70
0
 43
0.01
 10
2548.35950058
 20
-98.4251954
 30
0.0
 10
2548.35950058
 20
-65.61679693
 30
0.0
  0
LWPOLYLINE
  5
10B
  8
0
 62
0
370
-1
  6
BYLAYER
100
AcDbEntity
100
AcDbPolyline
 90
2
 70
0
 43
0.01
 10
2548.35950058
 20
-65.61679693
 30
0.0
 10
2548.35950058
 20
-32.80839847
 30
0.0
  0
LWPOLYLINE
  5
10C
  8
0
 62
0
370
-1
  6
BYLAYER
100
AcDbEntity
100
AcDbPolyline
 90
2
 70
0
 43
0.01
 10
2548.35950058
 20
-32.80839847
 30
0.0
 10
2548.35950058
 20
-0.0
 30
0.0
  0
LWPOLYLINE
  5
10D
  8
0
 62
0
370
-1
  6
BYLAYER
100
AcDbEntity
100
AcDbPolyline
 90
2
 70
0
 43
0.01
 10
2548.35950058
 20
-0.0
 30
0.0
 10
2548.35950058
 20
32.80839847
 30
0.0
  0
LWPOLYLINE
  5
10E
  8
0
 62
0
370
-1
  6
BYLAYER
100
AcDbEntity
100
AcDbPolyline
 90
2
 70
0
 43
0.01
 10
2548.35950058
 20
32.80839847
 30
0.0
 10
2548.35950058
 20
65.61679693
 30
0.0
  0
LWPOLYLINE
  5
10F
  8
0
 62
0
370
-1
  6
BYLAYER
100
AcDbEntity
100
AcDbPolyline
 90
2
 70
0
 43
0.01
 10
2548.35950058
 20
65.61679693
 30
0.0
 10
2548.35950058
 20
98.4251954
 30
0.0
  0
LWPOLYLINE
  5
110
  8
0
 62
0
370
-1
  6
BYLAYER
100
AcDbEntity
100
AcDbPolyline
 90
2
 70
0
 43
0.01
 10
2548.35950058
 20
98.4251954
 30
0.0
 10
2548.35950058
 20
131.23359387
 30
0.0
  0
LWPOLYLINE
  5
111
  8
0
 62
0
370
-1
  6
BYLAYER
100
AcDbEntity
100
AcDbPolyline
 90
2
 70
0
 43
0.01
 10
2548.35950058
 20
131.23359387
 30
0.0
 10
2548.35950058
 20
164.04199234
 30
0.0
  0
LWPOLYLINE
  5
112
  8
0
 62
0
370
-1
  6
BYLAYER
100
AcDbEntity
100
AcDbPolyline
 90
2
 70
0
 43
0.01
 10
2548.35950058
 20
164.04199234
 30
0.0
 10
2548.35950058
 20
196.8503908
 30
0.0
  0
LWPOLYLINE
  5
113
  8
0
 62
0
370
-1
  6
BYLAYER
100
AcDbEntity
100
AcDbPolyline
 90
2
 70
0
 43
0.01
 10
2548.35950058
 20
196.8503908
 30
0.0
 10
2526.48723159
 20
196.8503908
 30
0.0
  0
LWPOLYLINE
  5
114
  8
0
 62
0
370
-1
  6
BYLAYER
100
AcDbEntity
100
AcDbPolyline
 90
2
 70
0
 43
0.01
 10
2526.48723159
 20
196.8503908
 30
0.0
 10
2504.61496391
 20
196.8503908
 30
0.0
  0
LWPOLYLINE
  5
115
  8
0
 62
0
370
-1
  6
BYLAYER
100
AcDbEntity
100
AcDbPolyline
 90
2
 70
0
 43
0.01
 10
2504.61496391
 20
196.8503908
 30
0.0
 10
2482.74269734
 20
196.8503908
 30
0.0
  0
LWPOLYLINE
  5
116
  8
0
 62
0
370
-1
  6
BYLAYER
100
AcDbEntity
100
AcDbPolyline
 90
2
 70
0
 43
0.01
 10
2482.74269734
 20
196.8503908
 30
0.0
 10
2460.87043166
 20
196.8503908
 30
0.0
  0
LWPOLYLINE
  5
117
  8
0
 62
0
370
-1
  6
BYLAYER
100
AcDbEntity
100
AcDbPolyline
 90
2
 70
0
 43
0.01
 10
2460.87043166
 20
196.8503908
 30
0.0
 10
2438.99816666
 20
196.8503908
 30
0.0
  0
LWPOLYLINE
  5
118
  8
0
 62
0
370
-1
  6
BYLAYER
100
AcDbEntity
100
AcDbPolyline
 90
2
 70
0
 43
0.01
 10
2438.99816666
 20
196.8503908
 30
0.0
 10
2417.12590212
 20
196.8503908
 30
0.0
  0
LWPOLYLINE
  5
119
  8
0
 62
0
370
-1
  6
BYLAYER
100
AcDbEntity
100
AcDbPolyline
 90
2
 70
0
 43
0.01
 10
2417.12590212
 20
196.8503908
 30
0.0
 10
2395.25363784
 20
196.8503908
 30
0.0
  0
LWPOLYLINE
  5
11A
  8
0
 62
0
370
-1
  6
BYLAYER
100
AcDbEntity
100
AcDbPolyline
 90
2
 70
0
 43
0.01
 10
2395.25363784
 20
196.8503908
 30
0.0
 10
2373.38137361
 20
196.8503908
 30
0.0
  0
LWPOLYLINE
  5
11B
  8
0
 62
0
370
-1
  6
BYLAYER
100
AcDbEntity
100
AcDbPolyline
 90
2
 70
0
 43
0.01
 10
2373.38137361
 20
196.8503908
 30
0.0
 10
2351.5091092
 20
196.8503908
 30
0.0
  0
LWPOLYLINE
  5
11C
  8
0
 62
0
370
-1
  6
BYLAYER
100
AcDbEntity
100
AcDbPolyline
 90
2
 70
0
 43
0.01
 10
2351.5091092
 20
196.8503908
 30
0.0
 10
2329.63684441
 20
196.8503908
 30
0.0
  0
LWPOLYLINE
  5
11D
  8
0
 62
0
370
-1
  6
BYLAYER
100
AcDbEntity
100
AcDbPolyline
 90
2
 70
0
 43
0.01
 10
2329.63684441
 20
196.8503908
 30
0.0
 10
2307.76457903
 20
196.8503908
 30
0.0
  0
LWPOLYLINE
  5
11E
  8
0
 62
0
370
-1
  6
BYLAYER
100
AcDbEntity
100
AcDbPolyline
 90
2
 70
0
 43
0.01
 10
2307.76457903
 20
196.8503908
 30
0.0
 10
2285.89231284
 20
196.8503908
 30
0.0
  0
LWPOLYLINE
  5
11F
  8
0
 62
0
370
-1
  6
BYLAYER
100
AcDbEntity
100
AcDbPolyline
 90
2
 70
0
 43
0.04
 10
2285.89231284
 20
65.61679693
 30
0.0
 10
2285.89231284
 20
65.61679693
 30
0.0
  0
LWPOLYLINE
  5
120
  8
0
 62
0
370
-1
  6
BYLAYER
100
AcDbEntity
100
AcDbPolyline
 90
2
 70
0
 43
0.04
 10
2285.89231284
 20
65.61679693
 30
0.0
 10
2307.76457903
 20
65.61679693
 30
0.0
  0
LWPOLYLINE
  5
121
  8
0
 62
0
370
-1
  6
BYLAYER
100
AcDbEntity
100
AcDbPolyline
 90
2
 70
0
 43
0.04
 10
2307.76457903
 20
65.61679693
 30
0.0
 10
2329.63684441
 20
65.61679693
 30
0.0
  0
LWPOLYLINE
  5
122
  8
0
 62
0
370
-1
  6
BYLAYER
100
AcDbEntity
100
AcDbPolyline
 90
2
 70
0
 43
0.04
 10
2329.63684441
 20
65.61679693
 30
0.0
 10
2351.5091092
 20
65.61679693
 30
0.0
  0
LWPOLYLINE
  5
123
  8
0
 62
0
370
-1
  6
BYLAYER
100
AcDbEntity
100
AcDbPolyline
 90
2
 70
0
 43
0.04
 10
2351.5091092
 20
65.61679693
 30
0.0
 10
2373.38137361
 20
65.61679693
 30
0.0
  0
LWPOLYLINE
  5
124
  8
0
 62
0
370
-1
  6
BYLAYER
100
AcDbEntity
100
AcDbPolyline
 90
2
 70
0
 43
0.04
 10
2373.38137361
 20
65.61679693
 30
0.0
 10
2395.25363784
 20
65.61679693
 30
0.0
  0
LWPOLYLINE
  5
125
  8
0
 62
0
370
-1
  6
BYLAYER
100
AcDbEntity
100
AcDbPolyline
 90
2
 70
0
 43
0.04
 10
2395.25363784
 20
65.61679693
 30
0.0
 10
2417.12590212
 20
65.61679693
 30
0.0
  0
LWPOLYLINE
  5
126
  8
0
 62
0
370
-1
  6
BYLAYER
100
AcDbEntity
100
AcDbPolyline
 90
2
 70
0
 43
0.04
 10
2417.12590212
 20
65.61679693
 30
0.0
 10
2438.99816666
 20
65.61679693
 30
0.0
  0
LWPOLYLINE
  5
127
  8
0
 62
0
370
-1
  6
BYLAYER
100
AcDbEntity
100
AcDbPolyline
 90
2
 70
0
 43
0.04
 10
2438.99816666
 20
65.61679693
 30
0.0
 10
2460.87043166
 20
65.61679693
 30
0.0
  0
LWPOLYLINE
  5
128
  8
0
 62
0
370
-1
  6
BYLAYER
100
AcDbEntity
100
AcDbPolyline
 90
2
 70
0
 43
0.04
 10
2460.87043166
 20
65.61679693
 30
0.0
 10
2482.74269734
 20
65.61679693
 30
0.0
  0
LWPOLYLINE
  5
129
  8
0
 62
0
370
-1
  6
BYLAYER
100
AcDbEntity
100
AcDbPolyline
 90
2
 70
0
 43
0.04
 10
2482.74269734
 20
65.61679693
 30
0.0
 10
2504.61496391
 20
65.61679693
 30
0.0
  0
LWPOLYLINE
  5
12A
  8
0
 62
0
370
-1
  6
BYLAYER
100
AcDbEntity
100
AcDbPolyline
 90
2
 70
0
 43
0.04
 10
2504.61496391
 20
65.61679693
 30
0.0
 10
2526.48723159
 20
65.61679693
 30
0.0
  0
LWPOLYLINE
  5
12B
  8
0
 62
0
370
-1
  6
BYLAYER
100
AcDbEntity
100
AcDbPolyline
 90
2
 70
0
 43
0.04
 10
2526.48723159
 20
65.61679693
 30
0.0
 10
2548.35950058
 20
65.61679693
 30
0.0
  0
ENDBLK
  5
12C
100
AcDbEntity
  8
0
100
AcDbBlockEnd
  0
BLOCK
  5
12D
100
AcDbEntity
  8
0
100
AcDbBlockBegin
  2
W-0-6
 70
0
 10
0.0
 20
0.0
 30
0.0
  3
W-0-6
  1

  0
LWPOLYLINE
  5
12E
  8
0
 62
0
370
-1
  6
BYLAYER
100
AcDbEntity
100
AcDbPolyline
 90
2
 70
0
 43
0.01
 10
1524.49146724
 20
-0.0
 30
0.0
 10
1524.49146724
 20
-0.0
 30
0.0
  0
LWPOLYLINE
  5
12F
  8
0
 62
0
370
-1
  6
BYLAYER
100
AcDbEntity
100
AcDbPolyline
 90
2
 70
0
 43
0.01
 10
1524.49146724
 20
-0.0
 30
0.0
 10
1496.67038234
 20
-413.86679397
 30
0.0
  0
LWPOLYLINE
  5
130
  8
0
 62
0
370
-1
  6
BYLAYER
100
AcDbEntity
100
AcDbPolyline
 90
2
 70
0
 43
0.01
 10
1496.67038234
 20
-413.86679397
 30
0.0
 10
1415.62443393
 20
-810.76832592
 30
0.0
  0
LWPOLYLINE
  5
131
  8
0
 62
0
370
-1
  6
BYLAYER
100
AcDbEntity
100
AcDbPolyline
 90
2
 70
0
 43
0.01
 10
1415.62443393
 20
-810.76832592
 30
0.0
 10
1284.97958144
 20
-1187.07863541
 30
0.0
  0
LWPOLYLINE
  5
132
  8
0
 62
0
370
-1
  6
BYLAYER
100
AcDbEntity
100
AcDbPolyline
 90
2
 70
0
 43
0.01
 10
1284.97958144
 20
-1187.07863541
 30
0.0
 10
1108.36178432
 20
-1539.17176196
 30
0.0
  0
LWPOLYLINE
  5
133
  8
0
 62
0
370
-1
  6
BYLAYER
100
AcDbEntity
100
AcDbPolyline
 90
2
 70
0
 43
0.01
 10
1108.36178432
 20
-1539.17176196
 30
0.0
 10
889.39700199
 20
-1863.42174514
 30
0.0
  0
LWPOLYLINE
  5
134
  8
0
 62
0
370
-1
  6
BYLAYER
100
AcDbEntity
100
AcDbPolyline
 90
2
 70
0
 43
0.01
 10
889.39700199
 20
-1863.42174514
 30
0.0
 10
631.7111939
 20
-2156.20262448
 30
0.0
  0
LWPOLYLINE
  5
135
  8
0
 62
0
370
-1
  6
BYLAYER
100
AcDbEntity
100
AcDbPolyline
 90
2
 70
0
 43
0.01
 10
631.7111939
 20
-2156.20262448
 30
0.0
 10
338.93031949
 20
-2413.88843953
 30
0.0
  0
LWPOLYLINE
  5
136
  8
0
 62
0
370
-1
  6
BYLAYER
100
AcDbEntity
100
AcDbPolyline
 90
2
 70
0
 43
0.01
 10
338.93031949
 20
-2413.88843953
 30
0.0
 10
14.68033818
 20
-2632.85322983
 30
0.0
  0
LWPOLYLINE
  5
137
  8
0
 62
0
370
-1
  6
BYLAYER
100
AcDbEntity
100
AcDbPolyline
 90
2
 70
0
 43
0.01
 10
14.68033818
 20
-2632.85322983
 30
0.0
 10
-337.41279059
 20
-2809.47103494
 30
0.0
  0
LWPOLYLINE
  5
138
  8
0
 62
0
370
-1
  6
BYLAYER
100
AcDbEntity
100
AcDbPolyline
 90
2
 70
0
 43
0.01
 10
-337.41279059
 20
-2809.47103494
 30
0.0
 10
-713.72310737
 20
-2940.11589438
 30
0.0
  0
LWPOLYLINE
  5
139
  8
0
 62
0
370
-1
  6
BYLAYER
100
AcDbEntity
100
AcDbPolyline
 90
2
 70
0
 43
0.01
 10
-713.72310737
 20
-2940.11589438
 30
0.0
 10
-1110.62465273
 20
-3021.16184772
 30
0.0
  0
LWPOLYLINE
  5
13A
  8
0
 62
0
370
-1
  6
BYLAYER
100
AcDbEntity
100
AcDbPolyline
 90
2
 70
0
 43
0.01
 10
-1110.62465273
 20
-3021.16184772
 30
0.0
 10
-1524.49146724
 20
-3048.98293448
 30
0.0
  0
LWPOLYLINE
  5
13B
  8
0
 62
0
370
-1
  6
BYLAYER
100
AcDbEntity
100
AcDbPolyline
 90
2
 70
0
 43
0.01
 10
-1524.49146724
 20
-3048.98293448
 30
0.0
 10
-1524.49146724
 20
-2794.90102328
 30
0.0
  0
LWPOLYLINE
  5
13C
  8
0
 62
0
370
-1
  6
BYLAYER
100
AcDbEntity
100
AcDbPolyline
 90
2
 70
0
 43
0.01
 10
-1524.49146724
 20
-2794.90102328
 30
0.0
 10
-1524.49146724
 20
-2540.81911207
 30
0.0
  0
LWPOLYLINE
  5
13D
  8
0
 62
0
370
-1
  6
BYLAYER
100
AcDbEntity
100
AcDbPolyline
 90
2
 70
0
 43
0.01
 10
-1524.49146724
 20
-2540.81911207
 30
0.0
 10
-1524.49146724
 20
-2286.73720086
 30
0.0
  0
LWPOLYLINE
  5
13E
  8
0
 62
0
370
-1
  6
BYLAYER
100
AcDbEntity
100
AcDbPolyline
 90
2
 70
0
 43
0.01
 10
-1524.49146724
 20
-2286.73720086
 30
0.0
 10
-1524.49146724
 20
-2032.65528966
 30
0.0
  0
LWPOLYLINE
  5
13F
  8
0
 62
0
370
-1
  6
BYLAYER
100
AcDbEntity
100
AcDbPolyline
 90
2
 70
0
 43
0.01
 10
-1524.49146724
 20
-2032.65528966
 30
0.0
 10
-1524.49146724
 20
-1778.57337845
 30
0.0
  0
LWPOLYLINE
  5
140
  8
0
 62
0
370
-1
  6
BYLAYER
100
AcDbEntity
100
AcDbPolyline
 90
2
 70
0
 43
0.01
 10
-1524.49146724
 20
-1778.57337845
 30
0.0
 10
-1524.49146724
 20
-1524.49146724
 30
0.0
  0
LWPOLYLINE
  5
141
  8
0
 62
0
370
-1
  6
BYLAYER
100
AcDbEntity
100
AcDbPolyline
 90
2
 70
0
 43
0.01
 10
-1524.49146724
 20
-1524.49146724
 30
0.0
 10
-1524.49146724
 20
-1270.40955604
 30
0.0
  0
LWPOLYLINE
  5
142
  8
0
 62
0
370
-1
  6
BYLAYER
100
AcDbEntity
100
AcDbPolyline
 90
2
 70
0
 43
0.01
 10
-1524.49146724
 20
-1270.40955604
 30
0.0
 10
-1524.49146724
 20
-1016.32764483
 30
0.0
  0
LWPOLYLINE
  5
143
  8
0
 62
0
370
-1
  6
BYLAYER
100
AcDbEntity
100
AcDbPolyline
 90
2
 70
0
 43
0.01
 10
-1524.49146724
 20
-1016.32764483
 30
0.0
 10
-1524.49146724
 20
-762.24573362
 30
0.0
  0
LWPOLYLINE
  5
144
  8
0
 62
0
370
-1
  6
BYLAYER
100
AcDbEntity
100
AcDbPolyline
 90
2
 70
0
 43
0.01
 10
-1524.49146724
 20
-762.24573362
 30
0.0
 10
-1524.49146724
 20
-508.16382241
 30
0.0
  0
LWPOLYLINE
  5
145
  8
0
 62
0
370
-1
  6
BYLAYER
100
AcDbEntity
100
AcDbPolyline
 90
2
 70
0
 43
0.01
 10
-1524.49146724
 20
-508.16382241
 30
0.0
 10
-1524.49146724
 20
-254.08191121
 30
0.0
  0
LWPOLYLINE
  5
146
  8
0
 62
0
370
-1
  6
BYLAYER
100
AcDbEntity
100
AcDbPolyline
 90
2
 70
0
 43
0.01
 10
-1524.49146724
 20
-254.08191121
 30
0.0
 10
-1524.49146724
 20
-0.0
 30
0.0
  0
ENDBLK
  5
147
100
AcDbEntity
  8
0
100
AcDbBlockEnd
  0
BLOCK
  5
148
100
AcDbEntity
  8
0
100
AcDbBlockBegin
  2
W-0-3
 70
0
 10
0.0
 20
0.0
 30
0.0
  3
W-0-3
  1

  0
LWPOLYLINE
  5
149
  8
0
 62
0
370
-1
  6
BYLAYER
100
AcDbEntity
100
AcDbPolyline
 90
2
 70
0
 43
0.01
 10
1355.54466209
 20
-0.0
 30
0.0
 10
1355.54466209
 20
-0.0
 30
0.0
  0
LWPOLYLINE
  5
14A
  8
0
 62
0
370
-1
  6
BYLAYER
100
AcDbEntity
100
AcDbPolyline
 90
2
 70
0
 43
0.01
 10
1355.54466209
 20
-0.0
 30
0.0
 10
1330.8067566
 20
-368.00135232
 30
0.0
  0
LWPOLYLINE
  5
14B
  8
0
 62
0
370
-1
  6
BYLAYER
100
AcDbEntity
100
AcDbPolyline
 90
2
 70
0
 43
0.01
 10
1330.8067566
 20
-368.00135232
 30
0.0
 10
1258.74245698
 20
-720.917563
 30
0.0
  0
LWPOLYLINE
  5
14C
  8
0
 62
0
370
-1
  6
BYLAYER
100
AcDbEntity
100
AcDbPolyline
 90
2
 70
0
 43
0.01
 10
1258.74245698
 20
-720.917563
 30
0.0
 10
1142.57588847
 20
-1055.52450677
 30
0.0
  0
LWPOLYLINE
  5
14D
  8
0
 62
0
370
-1
  6
BYLAYER
100
AcDbEntity
100
AcDbPolyline
 90
2
 70
0
 43
0.01
 10
1142.57588847
 20
-1055.52450677
 30
0.0
 10
985.53117632
 20
-1368.59805839
 30
0.0
  0
LWPOLYLINE
  5
14E
  8
0
 62
0
370
-1
  6
BYLAYER
100
AcDbEntity
100
AcDbPolyline
 90
2
 70
0
 43
0.01
 10
985.53117632
 20
-1368.59805839
 30
0.0
 10
790.83244578
 20
-1656.91409261
 30
0.0
  0
LWPOLYLINE
  5
14F
  8
0
 62
0
370
-1
  6
BYLAYER
100
AcDbEntity
100
AcDbPolyline
 90
2
 70
0
 43
0.01
 10
790.83244578
 20
-1656.91409261
 30
0.0
 10
561.7038221
 20
-1917.24848419
 30
0.0
  0
LWPOLYLINE
  5
150
  8
0
 62
0
370
-1
  6
BYLAYER
100
AcDbEntity
100
AcDbPolyline
 90
2
 70
0
 43
0.01
 10
561.7038221
 20
-1917.24848419
 30
0.0
 10
301.36943052
 20
-2146.37710787
 30
0.0
  0
LWPOLYLINE
  5
151
  8
0
 62
0
370
-1
  6
BYLAYER
100
AcDbEntity
100
AcDbPolyline
 90
2
 70
0
 43
0.01
 10
301.36943052
 20
-2146.37710787
 30
0.0
 10
13.0533963
 20
-2341.07583841
 30
0.0
  0
LWPOLYLINE
  5
152
  8
0
 62
0
370
-1
  6
BYLAYER
100
AcDbEntity
100
AcDbPolyline
 90
2
 70
0
 43
0.01
 10
13.0533963
 20
-2341.07583841
 30
0.0
 10
-300.02015532
 20
-2498.12055056
 30
0.0
  0
LWPOLYLINE
  5
153
  8
0
 62
0
370
-1
  6
BYLAYER
100
AcDbEntity
100
AcDbPolyline
 90
2
 70
0
 43
0.01
 10
-300.02015532
 20
-2498.12055056
 30
0.0
 10
-634.62709909
 20
-2614.28711907
 30
0.0
  0
LWPOLYLINE
  5
154
  8
0
 62
0
370
-1
  6
BYLAYER
100
AcDbEntity
100
AcDbPolyline
 90
2
 70
0
 43
0.01
 10
-634.62709909
 20
-2614.28711907
 30
0.0
 10
-987.54330976
 20
-2686.35141869
 30
0.0
  0
LWPOLYLINE
  5
155
  8
0
 62
0
370
-1
  6
BYLAYER
100
AcDbEntity
100
AcDbPolyline
 90
2
 70
0
 43
0.01
 10
-987.54330976
 20
-2686.35141869
 30
0.0
 10
-1355.54466209
 20
-2711.08932417
 30
0.0
  0
LWPOLYLINE
  5
156
  8
0
 62
0
370
-1
  6
BYLAYER
100
AcDbEntity
100
AcDbPolyline
 90
2
 70
0
 43
0.01
 10
-1355.54466209
 20
-2711.08932417
 30
0.0
 10
-1355.54466209
 20
-2485.16522627
 30
0.0
  0
LWPOLYLINE
  5
157
  8
0
 62
0
370
-1
  6
BYLAYER
100
AcDbEntity
100
AcDbPolyline
 90
2
 70
0
 43
0.01
 10
-1355.54466209
 20
-2485.16522627
 30
0.0
 10
-1355.54466209
 20
-2259.24112158
 30
0.0
  0
LWPOLYLINE
  5
158
  8
0
 62
0
370
-1
  6
BYLAYER
100
AcDbEntity
100
AcDbPolyline
 90
2
 70
0
 43
0.01
 10
-1355.54466209
 20
-2259.24112158
 30
0.0
 10
-1355.54466209
 20
-2033.31701146
 30
0.0
  0
LWPOLYLINE
  5
159
  8
0
 62
0
370
-1
  6
BYLAYER
100
AcDbEntity
100
AcDbPolyline
 90
2
 70
0
 43
0.01
 10
-1355.54466209
 20
-2033.31701146
 30
0.0
 10
-1355.54466209
 20
-1807.39289727
 30
0.0
  0
LWPOLYLINE
  5
15A
  8
0
 62
0
370
-1
  6
BYLAYER
100
AcDbEntity
100
AcDbPolyline
 90
2
 70
0
 43
0.01
 10
-1355.54466209
 20
-1807.39289727
 30
0.0
 10
-1355.54466209
 20
-1581.46878035
 30
0.0
  0
LWPOLYLINE
  5
15B
  8
0
 62
0
370
-1
  6
BYLAYER
100
AcDbEntity
100
AcDbPolyline
 90
2
 70
0
 43
0.01
 10
-1355.54466209
 20
-1581.46878035
 30
0.0
 10
-1355.54466209
 20
-1355.54466209
 30
0.0
  0
LWPOLYLINE
  5
15C
  8
0
 62
0
370
-1
  6
BYLAYER
100
AcDbEntity
100
AcDbPolyline
 90
2
 70
0
 43
0.01
 10
-1355.54466209
 20
-1355.54466209
 30
0.0
 10
-1355.54466209
 20
-1129.62054382
 30
0.0
  0
LWPOLYLINE
  5
15D
  8
0
 62
0
370
-1
  6
BYLAYER
100
AcDbEntity
100
AcDbPolyline
 90
2
 70
0
 43
0.01
 10
-1355.54466209
 20
-1129.62054382
 30
0.0
 10
-1355.54466209
 20
-903.6964269
 30
0.0
  0
LWPOLYLINE
  5
15E
  8
0
 62
0
370
-1
  6
BYLAYER
100
AcDbEntity
100
AcDbPolyline
 90
2
 70
0
 43
0.01
 10
-1355.54466209
 20
-903.6964269
 30
0.0
 10
-1355.54466209
 20
-677.77231271
 30
0.0
  0
LWPOLYLINE
  5
15F
  8
0
 62
0
370
-1
  6
BYLAYER
100
AcDbEntity
100
AcDbPolyline
 90
2
 70
0
 43
0.01
 10
-1355.54466209
 20
-677.77231271
 30
0.0
 10
-1355.54466209
 20
-451.84820259
 30
0.0
  0
LWPOLYLINE
  5
160
  8
0
 62
0
370
-1
  6
BYLAYER
100
AcDbEntity
100
AcDbPolyline
 90
2
 70
0
 43
0.01
 10
-1355.54466209
 20
-451.84820259
 30
0.0
 10
-1355.54466209
 20
-225.9240979
 30
0.0
  0
LWPOLYLINE
  5
161
  8
0
 62
0
370
-1
  6
BYLAYER
100
AcDbEntity
100
AcDbPolyline
 90
2
 70
0
 43
0.01
 10
-1355.54466209
 20
-225.9240979
 30
0.0
 10
-1355.54466209
 20
-0.0
 30
0.0
  0
ENDBLK
  5
162
100
AcDbEntity
  8
0
100
AcDbBlockEnd
  0
BLOCK
  5
163
100
AcDbEntity
  8
0
100
AcDbBlockBegin
  2
W-0-2
 70
0
 10
0.0
 20
0.0
 30
0.0
  3
W-0-2
  1

  0
LWPOLYLINE
  5
164
  8
0
 62
0
370
-1
  6
BYLAYER
100
AcDbEntity
100
AcDbPolyline
 90
2
 70
0
 43
0.01
 10
1468.53672654
 20
-0.0
 30
0.0
 10
1468.53672654
 20
-0.0
 30
0.0
  0
LWPOLYLINE
  5
165
  8
0
 62
0
370
-1
  6
BYLAYER
100
AcDbEntity
100
AcDbPolyline
 90
2
 70
0
 43
0.01
 10
1468.53672654
 20
-0.0
 30
0.0
 10
1441.73678039
 20
-398.67628932
 30
0.0
  0
LWPOLYLINE
  5
166
  8
0
 62
0
370
-1
  6
BYLAYER
100
AcDbEntity
100
AcDbPolyline
 90
2
 70
0
 43
0.01
 10
1441.73678039
 20
-398.67628932
 30
0.0
 10
1363.66552475
 20
-781.01000416
 30
0.0
  0
LWPOLYLINE
  5
167
  8
0
 62
0
370
-1
  6
BYLAYER
100
AcDbEntity
100
AcDbPolyline
 90
2
 70
0
 43
0.01
 10
1363.66552475
 20
-781.01000416
 30
0.0
 10
1237.81583384
 20
-1143.50827132
 30
0.0
  0
LWPOLYLINE
  5
168
  8
0
 62
0
370
-1
  6
BYLAYER
100
AcDbEntity
100
AcDbPolyline
 90
2
 70
0
 43
0.01
 10
1237.81583384
 20
-1143.50827132
 30
0.0
 10
1067.68058186
 20
-1482.67821761
 30
0.0
  0
LWPOLYLINE
  5
169
  8
0
 62
0
370
-1
  6
BYLAYER
100
AcDbEntity
100
AcDbPolyline
 90
2
 70
0
 43
0.01
 10
1067.68058186
 20
-1482.67821761
 30
0.0
 10
856.75264304
 20
-1795.02696983
 30
0.0
  0
LWPOLYLINE
  5
16A
  8
0
 62
0
370
-1
  6
BYLAYER
100
AcDbEntity
100
AcDbPolyline
 90
2
 70
0
 43
0.01
 10
856.75264304
 20
-1795.02696983
 30
0.0
 10
608.52489158
 20
-2077.06165479
 30
0.0
  0
LWPOLYLINE
  5
16B
  8
0
 62
0
370
-1
  6
BYLAYER
100
AcDbEntity
100
AcDbPolyline
 90
2
 70
0
 43
0.01
 10
608.52489158
 20
-2077.06165479
 30
0.0
 10
326.4902017
 20
-2325.28939929
 30
0.0
  0
LWPOLYLINE
  5
16C
  8
0
 62
0
370
-1
  6
BYLAYER
100
AcDbEntity
100
AcDbPolyline
 90
2
 70
0
 43
0.01
 10
326.4902017
 20
-2325.28939929
 30
0.0
 10
14.14144761
 20
-2536.21733013
 30
0.0
  0
LWPOLYLINE
  5
16D
  8
0
 62
0
370
-1
  6
BYLAYER
100
AcDbEntity
100
AcDbPolyline
 90
2
 70
0
 43
0.01
 10
14.14144761
 20
-2536.21733013
 30
0.0
 10
-325.02849647
 20
-2706.35257413
 30
0.0
  0
LWPOLYLINE
  5
16E
  8
0
 62
0
370
-1
  6
BYLAYER
100
AcDbEntity
100
AcDbPolyline
 90
2
 70
0
 43
0.01
 10
-325.02849647
 20
-2706.35257413
 30
0.0
 10
-687.52675633
 20
-2832.20225809
 30
0.0
  0
LWPOLYLINE
  5
16F
  8
0
 62
0
370
-1
  6
BYLAYER
100
AcDbEntity
100
AcDbPolyline
 90
2
 70
0
 43
0.01
 10
-687.52675633
 20
-2832.20225809
 30
0.0
 10
-1069.86045776
 20
-2910.2735088
 30
0.0
  0
LWPOLYLINE
  5
170
  8
0
 62
0
370
-1
  6
BYLAYER
100
AcDbEntity
100
AcDbPolyline
 90
2
 70
0
 43
0.01
 10
-1069.86045776
 20
-2910.2735088
 30
0.0
 10
-1468.53672654
 20
-2937.07345309
 30
0.0
  0
LWPOLYLINE
  5
171
  8
0
 62
0
370
-1
  6
BYLAYER
100
AcDbEntity
100
AcDbPolyline
 90
2
 70
0
 43
0.01
 10
-1468.53672654
 20
-2937.07345309
 30
0.0
 10
-1468.53672654
 20
-2692.31733199
 30
0.0
  0
LWPOLYLINE
  5
172
  8
0
 62
0
370
-1
  6
BYLAYER
100
AcDbEntity
100
AcDbPolyline
 90
2
 70
0
 43
0.01
 10
-1468.53672654
 20
-2692.31733199
 30
0.0
 10
-1468.53672654
 20
-2447.5612109
 30
0.0
  0
LWPOLYLINE
  5
173
  8
0
 62
0
370
-1
  6
BYLAYER
100
AcDbEntity
100
AcDbPolyline
 90
2
 70
0
 43
0.01
 10
-1468.53672654
 20
-2447.5612109
 30
0.0
 10
-1468.53672654
 20
-2202.80508981
 30
0.0
  0
LWPOLYLINE
  5
174
  8
0
 62
0
370
-1
  6
BYLAYER
100
AcDbEntity
100
AcDbPolyline
 90
2
 70
0
 43
0.01
 10
-1468.53672654
 20
-2202.80508981
 30
0.0
 10
-1468.53672654
 20
-1958.04896872
 30
0.0
  0
LWPOLYLINE
  5
175
  8
0
 62
0
370
-1
  6
BYLAYER
100
AcDbEntity
100
AcDbPolyline
 90
2
 70
0
 43
0.01
 10
-1468.53672654
 20
-1958.04896872
 30
0.0
 10
-1468.53672654
 20
-1713.29284763
 30
0.0
  0
LWPOLYLINE
  5
176
  8
0
 62
0
370
-1
  6
BYLAYER
100
AcDbEntity
100
AcDbPolyline
 90
2
 70
0
 43
0.01
 10
-1468.53672654
 20
-1713.29284763
 30
0.0
 10
-1468.53672654
 20
-1468.53672654
 30
0.0
  0
LWPOLYLINE
  5
177
  8
0
 62
0
370
-1
  6
BYLAYER
100
AcDbEntity
100
AcDbPolyline
 90
2
 70
0
 43
0.01
 10
-1468.53672654
 20
-1468.53672654
 30
0.0
 10
-1468.53672654
 20
-1223.78060545
 30
0.0
  0
LWPOLYLINE
  5
178
  8
0
 62
0
370
-1
  6
BYLAYER
100
AcDbEntity
100
AcDbPolyline
 90
2
 70
0
 43
0.01
 10
-1468.53672654
 20
-1223.78060545
 30
0.0
 10
-1468.53672654
 20
-979.02448436
 30
0.0
  0
LWPOLYLINE
  5
179
  8
0
 62
0
370
-1
  6
BYLAYER
100
AcDbEntity
100
AcDbPolyline
 90
2
 70
0
 43
0.01
 10
-1468.53672654
 20
-979.02448436
 30
0.0
 10
-1468.53672654
 20
-734.26836327
 30
0.0
  0
LWPOLYLINE
  5
17A
  8
0
 62
0
370
-1
  6
BYLAYER
100
AcDbEntity
100
AcDbPolyline
 90
2
 70
0
 43
0.01
 10
-1468.53672654
 20
-734.26836327
 30
0.0
 10
-1468.53672654
 20
-489.51224218
 30
0.0
  0
LWPOLYLINE
  5
17B
  8
0
 62
0
370
-1
  6
BYLAYER
100
AcDbEntity
100
AcDbPolyline
 90
2
 70
0
 43
0.01
 10
-1468.53672654
 20
-489.51224218
 30
0.0
 10
-1468.53672654
 20
-244.75612109
 30
0.0
  0
LWPOLYLINE
  5
17C
  8
0
 62
0
370
-1
  6
BYLAYER
100
AcDbEntity
100
AcDbPolyline
 90
2
 70
0
 43
0.01
 10
-1468.53672654
 20
-244.75612109
 30
0.0
 10
-1468.53672654
 20
-0.0
 30
0.0
  0
ENDBLK
  5
17D
100
AcDbEntity
  8
0
100
AcDbBlockEnd
  0
BLOCK
  5
17E
100
AcDbEntity
  8
0
100
AcDbBlockBegin
  2
W-0-4
 70
0
 10
0.0
 20
0.0
 30
0.0
  3
W-0-4
  1

  0
LWPOLYLINE
  5
17F
  8
0
 62
0
370
-1
  6
BYLAYER
100
AcDbEntity
100
AcDbPolyline
 90
2
 70
0
 43
0.01
 10
1329.4127771
 20
-0.0
 30
0.0
 10
1329.4127771
 20
-0.0
 30
0.0
  0
LWPOLYLINE
  5
180
  8
0
 62
0
370
-1
  6
BYLAYER
100
AcDbEntity
100
AcDbPolyline
 90
2
 70
0
 43
0.01
 10
1329.4127771
 20
-0.0
 30
0.0
 10
1305.15176415
 20
-360.90711341
 30
0.0
  0
LWPOLYLINE
  5
181
  8
0
 62
0
370
-1
  6
BYLAYER
100
AcDbEntity
100
AcDbPolyline
 90
2
 70
0
 43
0.01
 10
1305.15176415
 20
-360.90711341
 30
0.0
 10
1234.47670588
 20
-707.01989023
 30
0.0
  0
LWPOLYLINE
  5
182
  8
0
 62
0
370
-1
  6
BYLAYER
100
AcDbEntity
100
AcDbPolyline
 90
2
 70
0
 43
0.01
 10
1234.47670588
 20
-707.01989023
 30
0.0
 10
1120.54957317
 20
-1035.17635959
 30
0.0
  0
LWPOLYLINE
  5
183
  8
0
 62
0
370
-1
  6
BYLAYER
100
AcDbEntity
100
AcDbPolyline
 90
2
 70
0
 43
0.01
 10
1120.54957317
 20
-1035.17635959
 30
0.0
 10
966.53233689
 20
-1342.21455062
 30
0.0
  0
LWPOLYLINE
  5
184
  8
0
 62
0
370
-1
  6
BYLAYER
100
AcDbEntity
100
AcDbPolyline
 90
2
 70
0
 43
0.01
 10
966.53233689
 20
-1342.21455062
 30
0.0
 10
775.58696791
 20
-1624.97249245
 30
0.0
  0
LWPOLYLINE
  5
185
  8
0
 62
0
370
-1
  6
BYLAYER
100
AcDbEntity
100
AcDbPolyline
 90
2
 70
0
 43
0.01
 10
775.58696791
 20
-1624.97249245
 30
0.0
 10
550.87543711
 20
-1880.28821421
 30
0.0
  0
LWPOLYLINE
  5
186
  8
0
 62
0
370
-1
  6
BYLAYER
100
AcDbEntity
100
AcDbPolyline
 90
2
 70
0
 43
0.01
 10
550.87543711
 20
-1880.28821421
 30
0.0
 10
295.55971536
 20
-2104.99974501
 30
0.0
  0
LWPOLYLINE
  5
187
  8
0
 62
0
370
-1
  6
BYLAYER
100
AcDbEntity
100
AcDbPolyline
 90
2
 70
0
 43
0.01
 10
295.55971536
 20
-2104.99974501
 30
0.0
 10
12.80177353
 20
-2295.94511399
 30
0.0
  0
LWPOLYLINE
  5
188
  8
0
 62
0
370
-1
  6
BYLAYER
100
AcDbEntity
100
AcDbPolyline
 90
2
 70
0
 43
0.01
 10
12.80177353
 20
-2295.94511399
 30
0.0
 10
-294.23641751
 20
-2449.96235027
 30
0.0
  0
LWPOLYLINE
  5
189
  8
0
 62
0
370
-1
  6
BYLAYER
100
AcDbEntity
100
AcDbPolyline
 90
2
 70
0
 43
0.01
 10
-294.23641751
 20
-2449.96235027
 30
0.0
 10
-622.39288687
 20
-2563.88948298
 30
0.0
  0
LWPOLYLINE
  5
18A
  8
0
 62
0
370
-1
  6
BYLAYER
100
AcDbEntity
100
AcDbPolyline
 90
2
 70
0
 43
0.01
 10
-622.39288687
 20
-2563.88948298
 30
0.0
 10
-968.50566369
 20
-2634.56454125
 30
0.0
  0
LWPOLYLINE
  5
18B
  8
0
 62
0
370
-1
  6
BYLAYER
100
AcDbEntity
100
AcDbPolyline
 90
2
 70
0
 43
0.01
 10
-968.50566369
 20
-2634.56454125
 30
0.0
 10
-1329.4127771
 20
-2658.82555419
 30
0.0
  0
LWPOLYLINE
  5
18C
  8
0
 62
0
370
-1
  6
BYLAYER
100
AcDbEntity
100
AcDbPolyline
 90
2
 70
0
 43
0.01
 10
-1329.4127771
 20
-2658.82555419
 30
0.0
 10
-1329.4127771
 20
-2437.25677046
 30
0.0
  0
LWPOLYLINE
  5
18D
  8
0
 62
0
370
-1
  6
BYLAYER
100
AcDbEntity
100
AcDbPolyline
 90
2
 70
0
 43
0.01
 10
-1329.4127771
 20
-2437.25677046
 30
0.0
 10
-1329.4127771
 20
-2215.68797994
 30
0.0
  0
LWPOLYLINE
  5
18E
  8
0
 62
0
370
-1
  6
BYLAYER
100
AcDbEntity
100
AcDbPolyline
 90
2
 70
0
 43
0.01
 10
-1329.4127771
 20
-2215.68797994
 30
0.0
 10
-1329.4127771
 20
-1994.11918398
 30
0.0
  0
LWPOLYLINE
  5
18F
  8
0
 62
0
370
-1
  6
BYLAYER
100
AcDbEntity
100
AcDbPolyline
 90
2
 70
0
 43
0.01
 10
-1329.4127771
 20
-1994.11918398
 30
0.0
 10
-1329.4127771
 20
-1772.55038395
 30
0.0
  0
LWPOLYLINE
  5
190
  8
0
 62
0
370
-1
  6
BYLAYER
100
AcDbEntity
100
AcDbPolyline
 90
2
 70
0
 43
0.01
 10
-1329.4127771
 20
-1772.55038395
 30
0.0
 10
-1329.4127771
 20
-1550.9815812
 30
0.0
  0
LWPOLYLINE
  5
191
  8
0
 62
0
370
-1
  6
BYLAYER
100
AcDbEntity
100
AcDbPolyline
 90
2
 70
0
 43
0.01
 10
-1329.4127771
 20
-1550.9815812
 30
0.0
 10
-1329.4127771
 20
-1329.4127771
 30
0.0
  0
LWPOLYLINE
  5
192
  8
0
 62
0
370
-1
  6
BYLAYER
100
AcDbEntity
100
AcDbPolyline
 90
2
 70
0
 43
0.01
 10
-1329.4127771
 20
-1329.4127771
 30
0.0
 10
-1329.4127771
 20
-1107.84397299
 30
0.0
  0
LWPOLYLINE
  5
193
  8
0
 62
0
370
-1
  6
BYLAYER
100
AcDbEntity
100
AcDbPolyline
 90
2
 70
0
 43
0.01
 10
-1329.4127771
 20
-1107.84397299
 30
0.0
 10
-1329.4127771
 20
-886.27517025
 30
0.0
  0
LWPOLYLINE
  5
194
  8
0
 62
0
370
-1
  6
BYLAYER
100
AcDbEntity
100
AcDbPolyline
 90
2
 70
0
 43
0.01
 10
-1329.4127771
 20
-886.27517025
 30
0.0
 10
-1329.4127771
 20
-664.70637022
 30
0.0
  0
LWPOLYLINE
  5
195
  8
0
 62
0
370
-1
  6
BYLAYER
100
AcDbEntity
100
AcDbPolyline
 90
2
 70
0
 43
0.01
 10
-1329.4127771
 20
-664.70637022
 30
0.0
 10
-1329.4127771
 20
-443.13757426
 30
0.0
  0
LWPOLYLINE
  5
196
  8
0
 62
0
370
-1
  6
BYLAYER
100
AcDbEntity
100
AcDbPolyline
 90
2
 70
0
 43
0.01
 10
-1329.4127771
 20
-443.13757426
 30
0.0
 10
-1329.4127771
 20
-221.56878373
 30
0.0
  0
LWPOLYLINE
  5
197
  8
0
 62
0
370
-1
  6
BYLAYER
100
AcDbEntity
100
AcDbPolyline
 90
2
 70
0
 43
0.01
 10
-1329.4127771
 20
-221.56878373
 30
0.0
 10
-1329.4127771
 20
-0.0
 30
0.0
  0
ENDBLK
  5
198
100
AcDbEntity
  8
0
100
AcDbBlockEnd
  0
BLOCK
  5
199
100
AcDbEntity
  8
0
100
AcDbBlockBegin
  2
W-0-1
 70
0
 10
0.0
 20
0.0
 30
0.0
  3
W-0-1
  1

  0
LWPOLYLINE
  5
19A
  8
0
 62
0
370
-1
  6
BYLAYER
100
AcDbEntity
100
AcDbPolyline
 90
2
 70
0
 43
0.01
 10
-1488.07416322
 20
-0.0
 30
0.0
 10
-1488.07416322
 20
-0.0
 30
0.0
  0
LWPOLYLINE
  5
19B
  8
0
 62
0
370
-1
  6
BYLAYER
100
AcDbEntity
100
AcDbPolyline
 90
2
 70
0
 43
0.01
 10
-1488.07416322
 20
-0.0
 30
0.0
 10
-1464.82300442
 20
-62.00309514
 30
0.0
  0
LWPOLYLINE
  5
19C
  8
0
 62
0
370
-1
  6
BYLAYER
100
AcDbEntity
100
AcDbPolyline
 90
2
 70
0
 43
0.01
 10
-1464.82300442
 20
-62.00309514
 30
0.0
 10
-1441.57184562
 20
-124.00619181
 30
0.0
  0
LWPOLYLINE
  5
19D
  8
0
 62
0
370
-1
  6
BYLAYER
100
AcDbEntity
100
AcDbPolyline
 90
2
 70
0
 43
0.01
 10
-1441.57184562
 20
-124.00619181
 30
0.0
 10
-1418.32068682
 20
-186.0092895
 30
0.0
  0
LWPOLYLINE
  5
19E
  8
0
 62
0
370
-1
  6
BYLAYER
100
AcDbEntity
100
AcDbPolyline
 90
2
 70
0
 43
0.01
 10
-1418.32068682
 20
-186.0092895
 30
0.0
 10
-1395.06952801
 20
-248.0123877
 30
0.0
  0
LWPOLYLINE
  5
19F
  8
0
 62
0
370
-1
  6
BYLAYER
100
AcDbEntity
100
AcDbPolyline
 90
2
 70
0
 43
0.01
 10
-1395.06952801
 20
-248.0123877
 30
0.0
 10
-1371.81836921
 20
-310.01548589
 30
0.0
  0
LWPOLYLINE
  5
1A0
  8
0
 62
0
370
-1
  6
BYLAYER
100
AcDbEntity
100
AcDbPolyline
 90
2
 70
0
 43
0.01
 10
-1371.81836921
 20
-310.01548589
 30
0.0
 10
-1348.56721041
 20
-372.01858358
 30
0.0
  0
LWPOLYLINE
  5
1A1
  8
0
 62
0
370
-1
  6
BYLAYER
100
AcDbEntity
100
AcDbPolyline
 90
2
 70
0
 43
0.01
 10
-1348.56721041
 20
-372.01858358
 30
0.0
 10
-1325.31605161
 20
-434.02168025
 30
0.0
  0
LWPOLYLINE
  5
1A2
  8
0
 62
0
370
-1
  6
BYLAYER
100
AcDbEntity
100
AcDbPolyline
 90
2
 70
0
 43
0.01
 10
-1325.31605161
 20
-434.02168025
 30
0.0
 10
-1302.06489281
 20
-496.02477539
 30
0.0
  0
LWPOLYLINE
  5
1A3
  8
0
 62
0
370
-1
  6
BYLAYER
100
AcDbEntity
100
AcDbPolyline
 90
2
 70
0
 43
0.01
 10
-1302.06489281
 20
-496.02477539
 30
0.0
 10
-1278.81373401
 20
-558.0278685
 30
0.0
  0
LWPOLYLINE
  5
1A4
  8
0
 62
0
370
-1
  6
BYLAYER
100
AcDbEntity
100
AcDbPolyline
 90
2
 70
0
 43
0.01
 10
-1278.81373401
 20
-558.0278685
 30
0.0
 10
-1255.56257521
 20
-620.03095906
 30
0.0
  0
LWPOLYLINE
  5
1A5
  8
0
 62
0
370
-1
  6
BYLAYER
100
AcDbEntity
100
AcDbPolyline
 90
2
 70
0
 43
0.01
 10
-1255.56257521
 20
-620.03095906
 30
0.0
 10
-1232.31141641
 20
-682.03404656
 30
0.0
  0
LWPOLYLINE
  5
1A6
  8
0
 62
0
370
-1
  6
BYLAYER
100
AcDbEntity
100
AcDbPolyline
 90
2
 70
0
 43
0.01
 10
-1232.31141641
 20
-682.03404656
 30
0.0
 10
-1209.06025761
 20
-744.0371305
 30
0.0
  0
LWPOLYLINE
  5
1A7
  8
0
 62
0
370
-1
  6
BYLAYER
100
AcDbEntity
100
AcDbPolyline
 90
2
 70
0
 43
0.01
 10
-930.04635201
 20
-0.0
 30
0.0
 10
-930.04635201
 20
-0.0
 30
0.0
  0
LWPOLYLINE
  5
1A8
  8
0
 62
0
370
-1
  6
BYLAYER
100
AcDbEntity
100
AcDbPolyline
 90
2
 70
0
 43
0.01
 10
-930.04635201
 20
-0.0
 30
0.0
 10
-953.29750568
 20
-62.00309514
 30
0.0
  0
LWPOLYLINE
  5
1A9
  8
0
 62
0
370
-1
  6
BYLAYER
100
AcDbEntity
100
AcDbPolyline
 90
2
 70
0
 43
0.01
 10
-953.29750568
 20
-62.00309514
 30
0.0
 10
-976.54866112
 20
-124.00619181
 30
0.0
  0
LWPOLYLINE
  5
1AA
  8
0
 62
0
370
-1
  6
BYLAYER
100
AcDbEntity
100
AcDbPolyline
 90
2
 70
0
 43
0.01
 10
-976.54866112
 20
-124.00619181
 30
0.0
 10
-999.7998181
 20
-186.0092895
 30
0.0
  0
LWPOLYLINE
  5
1AB
  8
0
 62
0
370
-1
  6
BYLAYER
100
AcDbEntity
100
AcDbPolyline
 90
2
 70
0
 43
0.01
 10
-999.7998181
 20
-186.0092895
 30
0.0
 10
-1023.05097635
 20
-248.0123877
 30
0.0
  0
LWPOLYLINE
  5
1AC
  8
0
 62
0
370
-1
  6
BYLAYER
100
AcDbEntity
100
AcDbPolyline
 90
2
 70
0
 43
0.01
 10
-1023.05097635
 20
-248.0123877
 30
0.0
 10
-1046.30213561
 20
-310.01548589
 30
0.0
  0
LWPOLYLINE
  5
1AD
  8
0
 62
0
370
-1
  6
BYLAYER
100
AcDbEntity
100
AcDbPolyline
 90
2
 70
0
 43
0.01
 10
-1046.30213561
 20
-310.01548589
 30
0.0
 10
-1069.55329564
 20
-372.01858358
 30
0.0
  0
LWPOLYLINE
  5
1AE
  8
0
 62
0
370
-1
  6
BYLAYER
100
AcDbEntity
100
AcDbPolyline
 90
2
 70
0
 43
0.01
 10
-1069.55329564
 20
-372.01858358
 30
0.0
 10
-1092.80445618
 20
-434.02168025
 30
0.0
  0
LWPOLYLINE
  5
1AF
  8
0
 62
0
370
-1
  6
BYLAYER
100
AcDbEntity
100
AcDbPolyline
 90
2
 70
0
 43
0.01
 10
-1092.80445618
 20
-434.02168025
 30
0.0
 10
-1116.05561698
 20
-496.02477539
 30
0.0
  0
LWPOLYLINE
  5
1B0
  8
0
 62
0
370
-1
  6
BYLAYER
100
AcDbEntity
100
AcDbPolyline
 90
2
 70
0
 43
0.01
 10
-1116.05561698
 20
-496.02477539
 30
0.0
 10
-1139.30677777
 20
-558.0278685
 30
0.0
  0
LWPOLYLINE
  5
1B1
  8
0
 62
0
370
-1
  6
BYLAYER
100
AcDbEntity
100
AcDbPolyline
 90
2
 70
0
 43
0.01
 10
-1139.30677777
 20
-558.0278685
 30
0.0
 10
-1162.55793831
 20
-620.03095906
 30
0.0
  0
LWPOLYLINE
  5
1B2
  8
0
 62
0
370
-1
  6
BYLAYER
100
AcDbEntity
100
AcDbPolyline
 90
2
 70
0
 43
0.01
 10
-1162.55793831
 20
-620.03095906
 30
0.0
 10
-1185.80909835
 20
-682.03404656
 30
0.0
  0
LWPOLYLINE
  5
1B3
  8
0
 62
0
370
-1
  6
BYLAYER
100
AcDbEntity
100
AcDbPolyline
 90
2
 70
0
 43
0.01
 10
-1185.80909835
 20
-682.03404656
 30
0.0
 10
-1209.06025761
 20
-744.0371305
 30
0.0
  0
LWPOLYLINE
  5
1B4
  8
0
 62
0
370
-1
  6
BYLAYER
100
AcDbEntity
100
AcDbPolyline
 90
2
 70
0
 43
0.01
 10
930.0464009
 20
-0.0
 30
0.0
 10
930.0464009
 20
-0.0
 30
0.0
  0
LWPOLYLINE
  5
1B5
  8
0
 62
0
370
-1
  6
BYLAYER
100
AcDbEntity
100
AcDbPolyline
 90
2
 70
0
 43
0.01
 10
930.0464009
 20
-0.0
 30
0.0
 10
953.29754521
 20
-62.00309514
 30
0.0
  0
LWPOLYLINE
  5
1B6
  8
0
 62
0
370
-1
  6
BYLAYER
100
AcDbEntity
100
AcDbPolyline
 90
2
 70
0
 43
0.01
 10
953.29754521
 20
-62.00309514
 30
0.0
 10
976.54869632
 20
-124.00619181
 30
0.0
  0
LWPOLYLINE
  5
1B7
  8
0
 62
0
370
-1
  6
BYLAYER
100
AcDbEntity
100
AcDbPolyline
 90
2
 70
0
 43
0.01
 10
976.54869632
 20
-124.00619181
 30
0.0
 10
999.79985285
 20
-186.0092895
 30
0.0
  0
LWPOLYLINE
  5
1B8
  8
0
 62
0
370
-1
  6
BYLAYER
100
AcDbEntity
100
AcDbPolyline
 90
2
 70
0
 43
0.01
 10
999.79985285
 20
-186.0092895
 30
0.0
 10
1023.05101347
 20
-248.0123877
 30
0.0
  0
LWPOLYLINE
  5
1B9
  8
0
 62
0
370
-1
  6
BYLAYER
100
AcDbEntity
100
AcDbPolyline
 90
2
 70
0
 43
0.01
 10
1023.05101347
 20
-248.0123877
 30
0.0
 10
1046.30217679
 20
-310.01548589
 30
0.0
  0
LWPOLYLINE
  5
1BA
  8
0
 62
0
370
-1
  6
BYLAYER
100
AcDbEntity
100
AcDbPolyline
 90
2
 70
0
 43
0.01
 10
1046.30217679
 20
-310.01548589
 30
0.0
 10
1069.55334148
 20
-372.01858358
 30
0.0
  0
LWPOLYLINE
  5
1BB
  8
0
 62
0
370
-1
  6
BYLAYER
100
AcDbEntity
100
AcDbPolyline
 90
2
 70
0
 43
0.01
 10
1069.55334148
 20
-372.01858358
 30
0.0
 10
1092.80450616
 20
-434.02168025
 30
0.0
  0
LWPOLYLINE
  5
1BC
  8
0
 62
0
370
-1
  6
BYLAYER
100
AcDbEntity
100
AcDbPolyline
 90
2
 70
0
 43
0.01
 10
1092.80450616
 20
-434.02168025
 30
0.0
 10
1116.05566949
 20
-496.02477539
 30
0.0
  0
LWPOLYLINE
  5
1BD
  8
0
 62
0
370
-1
  6
BYLAYER
100
AcDbEntity
100
AcDbPolyline
 90
2
 70
0
 43
0.01
 10
1116.05566949
 20
-496.02477539
 30
0.0
 10
1139.3068301
 20
-558.0278685
 30
0.0
  0
LWPOLYLINE
  5
1BE
  8
0
 62
0
370
-1
  6
BYLAYER
100
AcDbEntity
100
AcDbPolyline
 90
2
 70
0
 43
0.01
 10
1139.3068301
 20
-558.0278685
 30
0.0
 10
1162.55798664
 20
-620.03095906
 30
0.0
  0
LWPOLYLINE
  5
1BF
  8
0
 62
0
370
-1
  6
BYLAYER
100
AcDbEntity
100
AcDbPolyline
 90
2
 70
0
 43
0.01
 10
1162.55798664
 20
-620.03095906
 30
0.0
 10
1185.80913774
 20
-682.03404656
 30
0.0
  0
LWPOLYLINE
  5
1C0
  8
0
 62
0
370
-1
  6
BYLAYER
100
AcDbEntity
100
AcDbPolyline
 90
2
 70
0
 43
0.01
 10
1185.80913774
 20
-682.03404656
 30
0.0
 10
1209.06028206
 20
-744.0371305
 30
0.0
  0
LWPOLYLINE
  5
1C1
  8
0
 62
0
370
-1
  6
BYLAYER
100
AcDbEntity
100
AcDbPolyline
 90
2
 70
0
 43
0.01
 10
1488.07416322
 20
-0.0
 30
0.0
 10
1488.07416322
 20
-0.0
 30
0.0
  0
LWPOLYLINE
  5
1C2
  8
0
 62
0
370
-1
  6
BYLAYER
100
AcDbEntity
100
AcDbPolyline
 90
2
 70
0
 43
0.01
 10
1488.07416322
 20
-0.0
 30
0.0
 10
1464.8230189
 20
-62.00309514
 30
0.0
  0
LWPOLYLINE
  5
1C3
  8
0
 62
0
370
-1
  6
BYLAYER
100
AcDbEntity
100
AcDbPolyline
 90
2
 70
0
 43
0.01
 10
1464.8230189
 20
-62.00309514
 30
0.0
 10
1441.5718678
 20
-124.00619181
 30
0.0
  0
LWPOLYLINE
  5
1C4
  8
0
 62
0
370
-1
  6
BYLAYER
100
AcDbEntity
100
AcDbPolyline
 90
2
 70
0
 43
0.01
 10
1441.5718678
 20
-124.00619181
 30
0.0
 10
1418.32071126
 20
-186.0092895
 30
0.0
  0
LWPOLYLINE
  5
1C5
  8
0
 62
0
370
-1
  6
BYLAYER
100
AcDbEntity
100
AcDbPolyline
 90
2
 70
0
 43
0.01
 10
1418.32071126
 20
-186.0092895
 30
0.0
 10
1395.06955065
 20
-248.0123877
 30
0.0
  0
LWPOLYLINE
  5
1C6
  8
0
 62
0
370
-1
  6
BYLAYER
100
AcDbEntity
100
AcDbPolyline
 90
2
 70
0
 43
0.01
 10
1395.06955065
 20
-248.0123877
 30
0.0
 10
1371.81838732
 20
-310.01548589
 30
0.0
  0
LWPOLYLINE
  5
1C7
  8
0
 62
0
370
-1
  6
BYLAYER
100
AcDbEntity
100
AcDbPolyline
 90
2
 70
0
 43
0.01
 10
1371.81838732
 20
-310.01548589
 30
0.0
 10
1348.56722264
 20
-372.01858358
 30
0.0
  0
LWPOLYLINE
  5
1C8
  8
0
 62
0
370
-1
  6
BYLAYER
100
AcDbEntity
100
AcDbPolyline
 90
2
 70
0
 43
0.01
 10
1348.56722264
 20
-372.01858358
 30
0.0
 10
1325.31605795
 20
-434.02168025
 30
0.0
  0
LWPOLYLINE
  5
1C9
  8
0
 62
0
370
-1
  6
BYLAYER
100
AcDbEntity
100
AcDbPolyline
 90
2
 70
0
 43
0.01
 10
1325.31605795
 20
-434.02168025
 30
0.0
 10
1302.06489462
 20
-496.02477539
 30
0.0
  0
LWPOLYLINE
  5
1CA
  8
0
 62
0
370
-1
  6
BYLAYER
100
AcDbEntity
100
AcDbPolyline
 90
2
 70
0
 43
0.01
 10
1302.06489462
 20
-496.02477539
 30
0.0
 10
1278.81373401
 20
-558.0278685
 30
0.0
  0
LWPOLYLINE
  5
1CB
  8
0
 62
0
370
-1
  6
BYLAYER
100
AcDbEntity
100
AcDbPolyline
 90
2
 70
0
 43
0.01
 10
1278.81373401
 20
-558.0278685
 30
0.0
 10
1255.56257748
 20
-620.03095906
 30
0.0
  0
LWPOLYLINE
  5
1CC
  8
0
 62
0
370
-1
  6
BYLAYER
100
AcDbEntity
100
AcDbPolyline
 90
2
 70
0
 43
0.01
 10
1255.56257748
 20
-620.03095906
 30
0.0
 10
1232.31142637
 20
-682.03404656
 30
0.0
  0
LWPOLYLINE
  5
1CD
  8
0
 62
0
370
-1
  6
BYLAYER
100
AcDbEntity
100
AcDbPolyline
 90
2
 70
0
 43
0.01
 10
1232.31142637
 20
-682.03404656
 30
0.0
 10
1209.06028206
 20
-744.0371305
 30
0.0
  0
ENDBLK
  5
1CE
100
AcDbEntity
  8
0
100
AcDbBlockEnd
  0
BLOCK
  5
1CF
100
AcDbEntity
  8
0
100
AcDbBlockBegin
  2
W-0-5
 70
0
 10
0.0
 20
0.0
 30
0.0
  3
W-0-5
  1

  0
LWPOLYLINE
  5
1D0
  8
0
 62
0
370
-1
  6
BYLAYER
100
AcDbEntity
100
AcDbPolyline
 90
2
 70
0
 43
0.01
 10
1046.40745757
 20
-0.0
 30
0.0
 10
1046.40745757
 20
-0.0
 30
0.0
  0
LWPOLYLINE
  5
1D1
  8
0
 62
0
370
-1
  6
BYLAYER
100
AcDbEntity
100
AcDbPolyline
 90
2
 70
0
 43
0.01
 10
1046.40745757
 20
-0.0
 30
0.0
 10
1027.31112724
 20
-284.07724182
 30
0.0
  0
LWPOLYLINE
  5
1D2
  8
0
 62
0
370
-1
  6
BYLAYER
100
AcDbEntity
100
AcDbPolyline
 90
2
 70
0
 43
0.01
 10
1027.31112724
 20
-284.07724182
 30
0.0
 10
971.6813702
 20
-556.50955939
 30
0.0
  0
LWPOLYLINE
  5
1D3
  8
0
 62
0
370
-1
  6
BYLAYER
100
AcDbEntity
100
AcDbPolyline
 90
2
 70
0
 43
0.01
 10
971.6813702
 20
-556.50955939
 30
0.0
 10
882.00703743
 20
-814.80810279
 30
0.0
  0
LWPOLYLINE
  5
1D4
  8
0
 62
0
370
-1
  6
BYLAYER
100
AcDbEntity
100
AcDbPolyline
 90
2
 70
0
 43
0.01
 10
882.00703743
 20
-814.80810279
 30
0.0
 10
760.77697988
 20
-1056.48402207
 30
0.0
  0
LWPOLYLINE
  5
1D5
  8
0
 62
0
370
-1
  6
BYLAYER
100
AcDbEntity
100
AcDbPolyline
 90
2
 70
0
 43
0.01
 10
760.77697988
 20
-1056.48402207
 30
0.0
 10
610.4800485
 20
-1279.04846729
 30
0.0
  0
LWPOLYLINE
  5
1D6
  8
0
 62
0
370
-1
  6
BYLAYER
100
AcDbEntity
100
AcDbPolyline
 90
2
 70
0
 43
0.01
 10
610.4800485
 20
-1279.04846729
 30
0.0
 10
433.60509427
 20
-1480.0125885
 30
0.0
  0
LWPOLYLINE
  5
1D7
  8
0
 62
0
370
-1
  6
BYLAYER
100
AcDbEntity
100
AcDbPolyline
 90
2
 70
0
 43
0.01
 10
433.60509427
 20
-1480.0125885
 30
0.0
 10
232.64096812
 20
-1656.88753578
 30
0.0
  0
LWPOLYLINE
  5
1D8
  8
0
 62
0
370
-1
  6
BYLAYER
100
AcDbEntity
100
AcDbPolyline
 90
2
 70
0
 43
0.01
 10
232.64096812
 20
-1656.88753578
 30
0.0
 10
10.07652104
 20
-1807.18445918
 30
0.0
  0
LWPOLYLINE
  5
1D9
  8
0
 62
0
370
-1
  6
BYLAYER
100
AcDbEntity
100
AcDbPolyline
 90
2
 70
0
 43
0.01
 10
10.07652104
 20
-1807.18445918
 30
0.0
 10
-231.59939603
 20
-1928.41450875
 30
0.0
  0
LWPOLYLINE
  5
1DA
  8
0
 62
0
370
-1
  6
BYLAYER
100
AcDbEntity
100
AcDbPolyline
 90
2
 70
0
 43
0.01
 10
-231.59939603
 20
-1928.41450875
 30
0.0
 10
-489.89793213
 20
-2018.08883457
 30
0.0
  0
LWPOLYLINE
  5
1DB
  8
0
 62
0
370
-1
  6
BYLAYER
100
AcDbEntity
100
AcDbPolyline
 90
2
 70
0
 43
0.01
 10
-489.89793213
 20
-2018.08883457
 30
0.0
 10
-762.3302363
 20
-2073.71858668
 30
0.0
  0
LWPOLYLINE
  5
1DC
  8
0
 62
0
370
-1
  6
BYLAYER
100
AcDbEntity
100
AcDbPolyline
 90
2
 70
0
 43
0.01
 10
-762.3302363
 20
-2073.71858668
 30
0.0
 10
-1046.40745757
 20
-2092.81491515
 30
0.0
  0
LWPOLYLINE
  5
1DD
  8
0
 62
0
370
-1
  6
BYLAYER
100
AcDbEntity
100
AcDbPolyline
 90
2
 70
0
 43
0.01
 10
-1046.40745757
 20
-2092.81491515
 30
0.0
 10
-1046.40745757
 20
-1918.41368653
 30
0.0
  0
LWPOLYLINE
  5
1DE
  8
0
 62
0
370
-1
  6
BYLAYER
100
AcDbEntity
100
AcDbPolyline
 90
2
 70
0
 43
0.01
 10
-1046.40745757
 20
-1918.41368653
 30
0.0
 10
-1046.40745757
 20
-1744.01245419
 30
0.0
  0
LWPOLYLINE
  5
1DF
  8
0
 62
0
370
-1
  6
BYLAYER
100
AcDbEntity
100
AcDbPolyline
 90
2
 70
0
 43
0.01
 10
-1046.40745757
 20
-1744.01245419
 30
0.0
 10
-1046.40745757
 20
-1569.61121844
 30
0.0
  0
LWPOLYLINE
  5
1E0
  8
0
 62
0
370
-1
  6
BYLAYER
100
AcDbEntity
100
AcDbPolyline
 90
2
 70
0
 43
0.01
 10
-1046.40745757
 20
-1569.61121844
 30
0.0
 10
-1046.40745757
 20
-1395.20997964
 30
0.0
  0
LWPOLYLINE
  5
1E1
  8
0
 62
0
370
-1
  6
BYLAYER
100
AcDbEntity
100
AcDbPolyline
 90
2
 70
0
 43
0.01
 10
-1046.40745757
 20
-1395.20997964
 30
0.0
 10
-1046.40745757
 20
-1220.80873813
 30
0.0
  0
LWPOLYLINE
  5
1E2
  8
0
 62
0
370
-1
  6
BYLAYER
100
AcDbEntity
100
AcDbPolyline
 90
2
 70
0
 43
0.01
 10
-1046.40745757
 20
-1220.80873813
 30
0.0
 10
-1046.40745757
 20
-1046.40749424
 30
0.0
  0
LWPOLYLINE
  5
1E3
  8
0
 62
0
370
-1
  6
BYLAYER
100
AcDbEntity
100
AcDbPolyline
 90
2
 70
0
 43
0.01
 10
-1046.40745757
 20
-1046.40749424
 30
0.0
 10
-1046.40745757
 20
-872.00624831
 30
0.0
  0
LWPOLYLINE
  5
1E4
  8
0
 62
0
370
-1
  6
BYLAYER
100
AcDbEntity
100
AcDbPolyline
 90
2
 70
0
 43
0.01
 10
-1046.40745757
 20
-872.00624831
 30
0.0
 10
-1046.40745757
 20
-697.60500069
 30
0.0
  0
LWPOLYLINE
  5
1E5
  8
0
 62
0
370
-1
  6
BYLAYER
100
AcDbEntity
100
AcDbPolyline
 90
2
 70
0
 43
0.01
 10
-1046.40745757
 20
-697.60500069
 30
0.0
 10
-1046.40745757
 20
-523.2037517
 30
0.0
  0
LWPOLYLINE
  5
1E6
  8
0
 62
0
370
-1
  6
BYLAYER
100
AcDbEntity
100
AcDbPolyline
 90
2
 70
0
 43
0.01
 10
-1046.40745757
 20
-523.2037517
 30
0.0
 10
-1046.40745757
 20
-348.8025017
 30
0.0
  0
LWPOLYLINE
  5
1E7
  8
0
 62
0
370
-1
  6
BYLAYER
100
AcDbEntity
100
AcDbPolyline
 90
2
 70
0
 43
0.01
 10
-1046.40745757
 20
-348.8025017
 30
0.0
 10
-1046.40745757
 20
-174.40125102
 30
0.0
  0
LWPOLYLINE
  5
1E8
  8
0
 62
0
370
-1
  6
BYLAYER
100
AcDbEntity
100
AcDbPolyline
 90
2
 70
0
 43
0.01
 10
-1046.40745757
 20
-174.40125102
 30
0.0
 10
-1046.40745757
 20
-0.0
 30
0.0
  0
ENDBLK
  5
1E9
100
AcDbEntity
  8
0
100
AcDbBlockEnd
  0
BLOCK
  5
1EA
100
AcDbEntity
  8
0
100
AcDbBlockBegin
  2
W-1-1
 70
0
 10
0.0
 20
0.0
 30
0.0
  3
W-1-1
  1

  0
LWPOLYLINE
  5
1EB
  8
0
 62
0
370
-1
  6
BYLAYER
100
AcDbEntity
100
AcDbPolyline
 90
2
 70
0
 43
0.01
 10
-2614.73102324
 20
-196.8503908
 30
0.0
 10
-2614.73102324
 20
-196.8503908
 30
0.0
  0
LWPOLYLINE
  5
1EC
  8
0
 62
0
370
-1
  6
BYLAYER
100
AcDbEntity
100
AcDbPolyline
 90
2
 70
0
 43
0.01
 10
-2614.73102324
 20
-196.8503908
 30
0.0
 10
-2178.94251065
 20
-196.8503908
 30
0.0
  0
LWPOLYLINE
  5
1ED
  8
0
 62
0
370
-1
  6
BYLAYER
100
AcDbEntity
100
AcDbPolyline
 90
2
 70
0
 43
0.01
 10
-2178.94251065
 20
-196.8503908
 30
0.0
 10
-1743.15401097
 20
-196.8503908
 30
0.0
  0
LWPOLYLINE
  5
1EE
  8
0
 62
0
370
-1
  6
BYLAYER
100
AcDbEntity
100
AcDbPolyline
 90
2
 70
0
 43
0.01
 10
-1743.15401097
 20
-196.8503908
 30
0.0
 10
-1307.36552079
 20
-196.8503908
 30
0.0
  0
LWPOLYLINE
  5
1EF
  8
0
 62
0
370
-1
  6
BYLAYER
100
AcDbEntity
100
AcDbPolyline
 90
2
 70
0
 43
0.01
 10
-1307.36552079
 20
-196.8503908
 30
0.0
 10
-871.57703672
 20
-196.8503908
 30
0.0
  0
LWPOLYLINE
  5
1F0
  8
0
 62
0
370
-1
  6
BYLAYER
100
AcDbEntity
100
AcDbPolyline
 90
2
 70
0
 43
0.01
 10
-871.57703672
 20
-196.8503908
 30
0.0
 10
-435.78855536
 20
-196.8503908
 30
0.0
  0
LWPOLYLINE
  5
1F1
  8
0
 62
0
370
-1
  6
BYLAYER
100
AcDbEntity
100
AcDbPolyline
 90
2
 70
0
 43
0.01
 10
-435.78855536
 20
-196.8503908
 30
0.0
 10
-0.00007333
 20
-196.8503908
 30
0.0
  0
LWPOLYLINE
  5
1F2
  8
0
 62
0
370
-1
  6
BYLAYER
100
AcDbEntity
100
AcDbPolyline
 90
2
 70
0
 43
0.01
 10
-0.00007333
 20
-196.8503908
 30
0.0
 10
435.78841277
 20
-196.8503908
 30
0.0
  0
LWPOLYLINE
  5
1F3
  8
0
 62
0
370
-1
  6
BYLAYER
100
AcDbEntity
100
AcDbPolyline
 90
2
 70
0
 43
0.01
 10
435.78841277
 20
-196.8503908
 30
0.0
 10
871.57690635
 20
-196.8503908
 30
0.0
  0
LWPOLYLINE
  5
1F4
  8
0
 62
0
370
-1
  6
BYLAYER
100
AcDbEntity
100
AcDbPolyline
 90
2
 70
0
 43
0.01
 10
871.57690635
 20
-196.8503908
 30
0.0
 10
1307.36541079
 20
-196.8503908
 30
0.0
  0
LWPOLYLINE
  5
1F5
  8
0
 62
0
370
-1
  6
BYLAYER
100
AcDbEntity
100
AcDbPolyline
 90
2
 70
0
 43
0.01
 10
1307.36541079
 20
-196.8503908
 30
0.0
 10
1743.15392949
 20
-196.8503908
 30
0.0
  0
LWPOLYLINE
  5
1F6
  8
0
 62
0
370
-1
  6
BYLAYER
100
AcDbEntity
100
AcDbPolyline
 90
2
 70
0
 43
0.01
 10
1743.15392949
 20
-196.8503908
 30
0.0
 10
2178.94246584
 20
-196.8503908
 30
0.0
  0
LWPOLYLINE
  5
1F7
  8
0
 62
0
370
-1
  6
BYLAYER
100
AcDbEntity
100
AcDbPolyline
 90
2
 70
0
 43
0.01
 10
2178.94246584
 20
-196.8503908
 30
0.0
 10
2614.73102324
 20
-196.8503908
 30
0.0
  0
LWPOLYLINE
  5
1F8
  8
0
 62
0
370
-1
  6
BYLAYER
100
AcDbEntity
100
AcDbPolyline
 90
2
 70
0
 43
0.01
 10
2614.73102324
 20
-196.8503908
 30
0.0
 10
2614.73102324
 20
-164.04199234
 30
0.0
  0
LWPOLYLINE
  5
1F9
  8
0
 62
0
370
-1
  6
BYLAYER
100
AcDbEntity
100
AcDbPolyline
 90
2
 70
0
 43
0.01
 10
2614.73102324
 20
-164.04199234
 30
0.0
 10
2614.73102324
 20
-131.23359387
 30
0.0
  0
LWPOLYLINE
  5
1FA
  8
0
 62
0
370
-1
  6
BYLAYER
100
AcDbEntity
100
AcDbPolyline
 90
2
 70
0
 43
0.01
 10
2614.73102324
 20
-131.23359387
 30
0.0
 10
2614.73102324
 20
-98.4251954
 30
0.0
  0
LWPOLYLINE
  5
1FB
  8
0
 62
0
370
-1
  6
BYLAYER
100
AcDbEntity
100
AcDbPolyline
 90
2
 70
0
 43
0.01
 10
2614.73102324
 20
-98.4251954
 30
0.0
 10
2614.73102324
 20
-65.61679693
 30
0.0
  0
LWPOLYLINE
  5
1FC
  8
0
 62
0
370
-1
  6
BYLAYER
100
AcDbEntity
100
AcDbPolyline
 90
2
 70
0
 43
0.01
 10
2614.73102324
 20
-65.61679693
 30
0.0
 10
2614.73102324
 20
-32.80839847
 30
0.0
  0
LWPOLYLINE
  5
1FD
  8
0
 62
0
370
-1
  6
BYLAYER
100
AcDbEntity
100
AcDbPolyline
 90
2
 70
0
 43
0.01
 10
2614.73102324
 20
-32.80839847
 30
0.0
 10
2614.73102324
 20
-0.0
 30
0.0
  0
LWPOLYLINE
  5
1FE
  8
0
 62
0
370
-1
  6
BYLAYER
100
AcDbEntity
100
AcDbPolyline
 90
2
 70
0
 43
0.01
 10
2614.73102324
 20
-0.0
 30
0.0
 10
2614.73102324
 20
32.80839847
 30
0.0
  0
LWPOLYLINE
  5
1FF
  8
0
 62
0
370
-1
  6
BYLAYER
100
AcDbEntity
100
AcDbPolyline
 90
2
 70
0
 43
0.01
 10
2614.73102324
 20
32.80839847
 30
0.0
 10
2614.73102324
 20
65.61679693
 30
0.0
  0
LWPOLYLINE
  5
200
  8
0
 62
0
370
-1
  6
BYLAYER
100
AcDbEntity
100
AcDbPolyline
 90
2
 70
0
 43
0.01
 10
2614.73102324
 20
65.61679693
 30
0.0
 10
2614.73102324
 20
98.4251954
 30
0.0
  0
LWPOLYLINE
  5
201
  8
0
 62
0
370
-1
  6
BYLAYER
100
AcDbEntity
100
AcDbPolyline
 90
2
 70
0
 43
0.01
 10
2614.73102324
 20
98.4251954
 30
0.0
 10
2614.73102324
 20
131.23359387
 30
0.0
  0
LWPOLYLINE
  5
202
  8
0
 62
0
370
-1
  6
BYLAYER
100
AcDbEntity
100
AcDbPolyline
 90
2
 70
0
 43
0.01
 10
2614.73102324
 20
131.23359387
 30
0.0
 10
2614.73102324
 20
164.04199234
 30
0.0
  0
LWPOLYLINE
  5
203
  8
0
 62
0
370
-1
  6
BYLAYER
100
AcDbEntity
100
AcDbPolyline
 90
2
 70
0
 43
0.01
 10
2614.73102324
 20
164.04199234
 30
0.0
 10
2614.73102324
 20
196.8503908
 30
0.0
  0
LWPOLYLINE
  5
204
  8
0
 62
0
370
-1
  6
BYLAYER
100
AcDbEntity
100
AcDbPolyline
 90
2
 70
0
 43
0.01
 10
2614.73102324
 20
196.8503908
 30
0.0
 10
2178.94246584
 20
196.8503908
 30
0.0
  0
LWPOLYLINE
  5
205
  8
0
 62
0
370
-1
  6
BYLAYER
100
AcDbEntity
100
AcDbPolyline
 90
2
 70
0
 43
0.01
 10
2178.94246584
 20
196.8503908
 30
0.0
 10
1743.15392949
 20
196.8503908
 30
0.0
  0
LWPOLYLINE
  5
206
  8
0
 62
0
370
-1
  6
BYLAYER
100
AcDbEntity
100
AcDbPolyline
 90
2
 70
0
 43
0.01
 10
1743.15392949
 20
196.8503908
 30
0.0
 10
1307.36541079
 20
196.8503908
 30
0.0
  0
LWPOLYLINE
  5
207
  8
0
 62
0
370
-1
  6
BYLAYER
100
AcDbEntity
100
AcDbPolyline
 90
2
 70
0
 43
0.01
 10
1307.36541079
 20
196.8503908
 30
0.0
 10
871.57690635
 20
196.8503908
 30
0.0
  0
LWPOLYLINE
  5
208
  8
0
 62
0
370
-1
  6
BYLAYER
100
AcDbEntity
100
AcDbPolyline
 90
2
 70
0
 43
0.01
 10
871.57690635
 20
196.8503908
 30
0.0
 10
435.78841277
 20
196.8503908
 30
0.0
  0
LWPOLYLINE
  5
209
  8
0
 62
0
370
-1
  6
BYLAYER
100
AcDbEntity
100
AcDbPolyline
 90
2
 70
0
 43
0.01
 10
435.78841277
 20
196.8503908
 30
0.0
 10
-0.00007333
 20
196.8503908
 30
0.0
  0
LWPOLYLINE
  5
20A
  8
0
 62
0
370
-1
  6
BYLAYER
100
AcDbEntity
100
AcDbPolyline
 90
2
 70
0
 43
0.01
 10
-0.00007333
 20
196.8503908
 30
0.0
 10
-435.78855536
 20
196.8503908
 30
0.0
  0
LWPOLYLINE
  5
20B
  8
0
 62
0
370
-1
  6
BYLAYER
100
AcDbEntity
100
AcDbPolyline
 90
2
 70
0
 43
0.01
 10
-435.78855536
 20
196.8503908
 30
0.0
 10
-871.57703672
 20
196.8503908
 30
0.0
  0
LWPOLYLINE
  5
20C
  8
0
 62
0
370
-1
  6
BYLAYER
100
AcDbEntity
100
AcDbPolyline
 90
2
 70
0
 43
0.01
 10
-871.57703672
 20
196.8503908
 30
0.0
 10
-1307.36552079
 20
196.8503908
 30
0.0
  0
LWPOLYLINE
  5
20D
  8
0
 62
0
370
-1
  6
BYLAYER
100
AcDbEntity
100
AcDbPolyline
 90
2
 70
0
 43
0.01
 10
-1307.36552079
 20
196.8503908
 30
0.0
 10
-1743.15401097
 20
196.8503908
 30
0.0
  0
LWPOLYLINE
  5
20E
  8
0
 62
0
370
-1
  6
BYLAYER
100
AcDbEntity
100
AcDbPolyline
 90
2
 70
0
 43
0.01
 10
-1743.15401097
 20
196.8503908
 30
0.0
 10
-2178.94251065
 20
196.8503908
 30
0.0
  0
LWPOLYLINE
  5
20F
  8
0
 62
0
370
-1
  6
BYLAYER
100
AcDbEntity
100
AcDbPolyline
 90
2
 70
0
 43
0.01
 10
-2178.94251065
 20
196.8503908
 30
0.0
 10
-2614.73102324
 20
196.8503908
 30
0.0
  0
LWPOLYLINE
  5
210
  8
0
 62
0
370
-1
  6
BYLAYER
100
AcDbEntity
100
AcDbPolyline
 90
2
 70
0
 43
0.01
 10
-2614.73102324
 20
196.8503908
 30
0.0
 10
-2614.73102324
 20
164.04199234
 30
0.0
  0
LWPOLYLINE
  5
211
  8
0
 62
0
370
-1
  6
BYLAYER
100
AcDbEntity
100
AcDbPolyline
 90
2
 70
0
 43
0.01
 10
-2614.73102324
 20
164.04199234
 30
0.0
 10
-2614.73102324
 20
131.23359387
 30
0.0
  0
LWPOLYLINE
  5
212
  8
0
 62
0
370
-1
  6
BYLAYER
100
AcDbEntity
100
AcDbPolyline
 90
2
 70
0
 43
0.01
 10
-2614.73102324
 20
131.23359387
 30
0.0
 10
-2614.73102324
 20
98.4251954
 30
0.0
  0
LWPOLYLINE
  5
213
  8
0
 62
0
370
-1
  6
BYLAYER
100
AcDbEntity
100
AcDbPolyline
 90
2
 70
0
 43
0.01
 10
-2614.73102324
 20
98.4251954
 30
0.0
 10
-2614.73102324
 20
65.61679693
 30
0.0
  0
LWPOLYLINE
  5
214
  8
0
 62
0
370
-1
  6
BYLAYER
100
AcDbEntity
100
AcDbPolyline
 90
2
 70
0
 43
0.01
 10
-2614.73102324
 20
65.61679693
 30
0.0
 10
-2614.73102324
 20
32.80839847
 30
0.0
  0
LWPOLYLINE
  5
215
  8
0
 62
0
370
-1
  6
BYLAYER
100
AcDbEntity
100
AcDbPolyline
 90
2
 70
0
 43
0.01
 10
-2614.73102324
 20
32.80839847
 30
0.0
 10
-2614.73102324
 20
-0.0
 30
0.0
  0
LWPOLYLINE
  5
216
  8
0
 62
0
370
-1
  6
BYLAYER
100
AcDbEntity
100
AcDbPolyline
 90
2
 70
0
 43
0.01
 10
-2614.73102324
 20
-0.0
 30
0.0
 10
-2614.73102324
 20
-32.80839847
 30
0.0
  0
LWPOLYLINE
  5
217
  8
0
 62
0
370
-1
  6
BYLAYER
100
AcDbEntity
100
AcDbPolyline
 90
2
 70
0
 43
0.01
 10
-2614.73102324
 20
-32.80839847
 30
0.0
 10
-2614.73102324
 20
-65.61679693
 30
0.0
  0
LWPOLYLINE
  5
218
  8
0
 62
0
370
-1
  6
BYLAYER
100
AcDbEntity
100
AcDbPolyline
 90
2
 70
0
 43
0.01
 10
-2614.73102324
 20
-65.61679693
 30
0.0
 10
-2614.73102324
 20
-98.4251954
 30
0.0
  0
LWPOLYLINE
  5
219
  8
0
 62
0
370
-1
  6
BYLAYER
100
AcDbEntity
100
AcDbPolyline
 90
2
 70
0
 43
0.01
 10
-2614.73102324
 20
-98.4251954
 30
0.0
 10
-2614.73102324
 20
-131.23359387
 30
0.0
  0
LWPOLYLINE
  5
21A
  8
0
 62
0
370
-1
  6
BYLAYER
100
AcDbEntity
100
AcDbPolyline
 90
2
 70
0
 43
0.01
 10
-2614.73102324
 20
-131.23359387
 30
0.0
 10
-2614.73102324
 20
-164.04199234
 30
0.0
  0
LWPOLYLINE
  5
21B
  8
0
 62
0
370
-1
  6
BYLAYER
100
AcDbEntity
100
AcDbPolyline
 90
2
 70
0
 43
0.01
 10
-2614.73102324
 20
-164.04199234
 30
0.0
 10
-2614.73102324
 20
-196.8503908
 30
0.0
  0
LWPOLYLINE
  5
21C
  8
0
 62
0
370
-1
  6
BYLAYER
100
AcDbEntity
100
AcDbPolyline
 90
2
 70
0
 43
0.01
 10
-2614.73102324
 20
-196.8503908
 30
0.0
 10
-2614.73102324
 20
-196.8503908
 30
0.0
  0
LWPOLYLINE
  5
21D
  8
0
 62
0
370
-1
  6
BYLAYER
100
AcDbEntity
100
AcDbPolyline
 90
2
 70
0
 43
0.01
 10
-2614.73102324
 20
-196.8503908
 30
0.0
 10
-2614.73102324
 20
-196.8503908
 30
0.0
  0
LWPOLYLINE
  5
21E
  8
0
 62
0
370
-1
  6
BYLAYER
100
AcDbEntity
100
AcDbPolyline
 90
2
 70
0
 43
0.01
 10
-2614.73102324
 20
-196.8503908
 30
0.0
 10
-2614.73102324
 20
-196.8503908
 30
0.0
  0
LWPOLYLINE
  5
21F
  8
0
 62
0
370
-1
  6
BYLAYER
100
AcDbEntity
100
AcDbPolyline
 90
2
 70
0
 43
0.01
 10
-2614.73102324
 20
-196.8503908
 30
0.0
 10
-2178.94251065
 20
-196.8503908
 30
0.0
  0
LWPOLYLINE
  5
220
  8
0
 62
0
370
-1
  6
BYLAYER
100
AcDbEntity
100
AcDbPolyline
 90
2
 70
0
 43
0.01
 10
-2178.94251065
 20
-196.8503908
 30
0.0
 10
-1743.15401097
 20
-196.8503908
 30
0.0
  0
LWPOLYLINE
  5
221
  8
0
 62
0
370
-1
  6
BYLAYER
100
AcDbEntity
100
AcDbPolyline
 90
2
 70
0
 43
0.01
 10
-1743.15401097
 20
-196.8503908
 30
0.0
 10
-1307.36552079
 20
-196.8503908
 30
0.0
  0
LWPOLYLINE
  5
222
  8
0
 62
0
370
-1
  6
BYLAYER
100
AcDbEntity
100
AcDbPolyline
 90
2
 70
0
 43
0.01
 10
-1307.36552079
 20
-196.8503908
 30
0.0
 10
-871.57703672
 20
-196.8503908
 30
0.0
  0
LWPOLYLINE
  5
223
  8
0
 62
0
370
-1
  6
BYLAYER
100
AcDbEntity
100
AcDbPolyline
 90
2
 70
0
 43
0.01
 10
-871.57703672
 20
-196.8503908
 30
0.0
 10
-435.78855536
 20
-196.8503908
 30
0.0
  0
LWPOLYLINE
  5
224
  8
0
 62
0
370
-1
  6
BYLAYER
100
AcDbEntity
100
AcDbPolyline
 90
2
 70
0
 43
0.01
 10
-435.78855536
 20
-196.8503908
 30
0.0
 10
-0.00007333
 20
-196.8503908
 30
0.0
  0
LWPOLYLINE
  5
225
  8
0
 62
0
370
-1
  6
BYLAYER
100
AcDbEntity
100
AcDbPolyline
 90
2
 70
0
 43
0.01
 10
-0.00007333
 20
-196.8503908
 30
0.0
 10
435.78841277
 20
-196.8503908
 30
0.0
  0
LWPOLYLINE
  5
226
  8
0
 62
0
370
-1
  6
BYLAYER
100
AcDbEntity
100
AcDbPolyline
 90
2
 70
0
 43
0.01
 10
435.78841277
 20
-196.8503908
 30
0.0
 10
871.57690635
 20
-196.8503908
 30
0.0
  0
LWPOLYLINE
  5
227
  8
0
 62
0
370
-1
  6
BYLAYER
100
AcDbEntity
100
AcDbPolyline
 90
2
 70
0
 43
0.01
 10
871.57690635
 20
-196.8503908
 30
0.0
 10
1307.36541079
 20
-196.8503908
 30
0.0
  0
LWPOLYLINE
  5
228
  8
0
 62
0
370
-1
  6
BYLAYER
100
AcDbEntity
100
AcDbPolyline
 90
2
 70
0
 43
0.01
 10
1307.36541079
 20
-196.8503908
 30
0.0
 10
1743.15392949
 20
-196.8503908
 30
0.0
  0
LWPOLYLINE
  5
229
  8
0
 62
0
370
-1
  6
BYLAYER
100
AcDbEntity
100
AcDbPolyline
 90
2
 70
0
 43
0.01
 10
1743.15392949
 20
-196.8503908
 30
0.0
 10
2178.94246584
 20
-196.8503908
 30
0.0
  0
LWPOLYLINE
  5
22A
  8
0
 62
0
370
-1
  6
BYLAYER
100
AcDbEntity
100
AcDbPolyline
 90
2
 70
0
 43
0.01
 10
2178.94246584
 20
-196.8503908
 30
0.0
 10
2614.73102324
 20
-196.8503908
 30
0.0
  0
LWPOLYLINE
  5
22B
  8
0
 62
0
370
-1
  6
BYLAYER
100
AcDbEntity
100
AcDbPolyline
 90
2
 70
0
 43
0.01
 10
2614.73102324
 20
196.8503908
 30
0.0
 10
2614.73102324
 20
196.8503908
 30
0.0
  0
LWPOLYLINE
  5
22C
  8
0
 62
0
370
-1
  6
BYLAYER
100
AcDbEntity
100
AcDbPolyline
 90
2
 70
0
 43
0.01
 10
2614.73102324
 20
196.8503908
 30
0.0
 10
2178.94246584
 20
196.8503908
 30
0.0
  0
LWPOLYLINE
  5
22D
  8
0
 62
0
370
-1
  6
BYLAYER
100
AcDbEntity
100
AcDbPolyline
 90
2
 70
0
 43
0.01
 10
2178.94246584
 20
196.8503908
 30
0.0
 10
1743.15392949
 20
196.8503908
 30
0.0
  0
LWPOLYLINE
  5
22E
  8
0
 62
0
370
-1
  6
BYLAYER
100
AcDbEntity
100
AcDbPolyline
 90
2
 70
0
 43
0.01
 10
1743.15392949
 20
196.8503908
 30
0.0
 10
1307.36541079
 20
196.8503908
 30
0.0
  0
LWPOLYLINE
  5
22F
  8
0
 62
0
370
-1
  6
BYLAYER
100
AcDbEntity
100
AcDbPolyline
 90
2
 70
0
 43
0.01
 10
1307.36541079
 20
196.8503908
 30
0.0
 10
871.57690635
 20
196.8503908
 30
0.0
  0
LWPOLYLINE
  5
230
  8
0
 62
0
370
-1
  6
BYLAYER
100
AcDbEntity
100
AcDbPolyline
 90
2
 70
0
 43
0.01
 10
871.57690635
 20
196.8503908
 30
0.0
 10
435.78841277
 20
196.8503908
 30
0.0
  0
LWPOLYLINE
  5
231
  8
0
 62
0
370
-1
  6
BYLAYER
100
AcDbEntity
100
AcDbPolyline
 90
2
 70
0
 43
0.01
 10
435.78841277
 20
196.8503908
 30
0.0
 10
-0.00007333
 20
196.8503908
 30
0.0
  0
LWPOLYLINE
  5
232
  8
0
 62
0
370
-1
  6
BYLAYER
100
AcDbEntity
100
AcDbPolyline
 90
2
 70
0
 43
0.01
 10
-0.00007333
 20
196.8503908
 30
0.0
 10
-435.78855536
 20
196.8503908
 30
0.0
  0
LWPOLYLINE
  5
233
  8
0
 62
0
370
-1
  6
BYLAYER
100
AcDbEntity
100
AcDbPolyline
 90
2
 70
0
 43
0.01
 10
-435.78855536
 20
196.8503908
 30
0.0
 10
-871.57703672
 20
196.8503908
 30
0.0
  0
LWPOLYLINE
  5
234
  8
0
 62
0
370
-1
  6
BYLAYER
100
AcDbEntity
100
AcDbPolyline
 90
2
 70
0
 43
0.01
 10
-871.57703672
 20
196.8503908
 30
0.0
 10
-1307.36552079
 20
196.8503908
 30
0.0
  0
LWPOLYLINE
  5
235
  8
0
 62
0
370
-1
  6
BYLAYER
100
AcDbEntity
100
AcDbPolyline
 90
2
 70
0
 43
0.01
 10
-1307.36552079
 20
196.8503908
 30
0.0
 10
-1743.15401097
 20
196.8503908
 30
0.0
  0
LWPOLYLINE
  5
236
  8
0
 62
0
370
-1
  6
BYLAYER
100
AcDbEntity
100
AcDbPolyline
 90
2
 70
0
 43
0.01
 10
-1743.15401097
 20
196.8503908
 30
0.0
 10
-2178.94251065
 20
196.8503908
 30
0.0
  0
LWPOLYLINE
  5
237
  8
0
 62
0
370
-1
  6
BYLAYER
100
AcDbEntity
100
AcDbPolyline
 90
2
 70
0
 43
0.01
 10
-2178.94251065
 20
196.8503908
 30
0.0
 10
-2614.73102324
 20
196.8503908
 30
0.0
  0
LWPOLYLINE
  5
238
  8
0
 62
0
370
-1
  6
BYLAYER
100
AcDbEntity
100
AcDbPolyline
 90
2
 70
0
 43
0.01
 10
-2614.73102324
 20
-65.61679693
 30
0.0
 10
-2614.73102324
 20
-65.61679693
 30
0.0
  0
LWPOLYLINE
  5
239
  8
0
 62
0
370
-1
  6
BYLAYER
100
AcDbEntity
100
AcDbPolyline
 90
2
 70
0
 43
0.01
 10
-2614.73102324
 20
-65.61679693
 30
0.0
 10
-2396.83676695
 20
-65.61679693
 30
0.0
  0
LWPOLYLINE
  5
23A
  8
0
 62
0
370
-1
  6
BYLAYER
100
AcDbEntity
100
AcDbPolyline
 90
2
 70
0
 43
0.01
 10
-2396.83676695
 20
-65.61679693
 30
0.0
 10
-2178.94251711
 20
-65.61679693
 30
0.0
  0
LWPOLYLINE
  5
23B
  8
0
 62
0
370
-1
  6
BYLAYER
100
AcDbEntity
100
AcDbPolyline
 90
2
 70
0
 43
0.01
 10
-2178.94251711
 20
-65.61679693
 30
0.0
 10
-1961.04827201
 20
-65.61679693
 30
0.0
  0
LWPOLYLINE
  5
23C
  8
0
 62
0
370
-1
  6
BYLAYER
100
AcDbEntity
100
AcDbPolyline
 90
2
 70
0
 43
0.01
 10
-1961.04827201
 20
-65.61679693
 30
0.0
 10
-1743.15402998
 20
-65.61679693
 30
0.0
  0
LWPOLYLINE
  5
23D
  8
0
 62
0
370
-1
  6
BYLAYER
100
AcDbEntity
100
AcDbPolyline
 90
2
 70
0
 43
0.01
 10
-1743.15402998
 20
-65.61679693
 30
0.0
 10
-1525.2597893
 20
-65.61679693
 30
0.0
  0
LWPOLYLINE
  5
23E
  8
0
 62
0
370
-1
  6
BYLAYER
100
AcDbEntity
100
AcDbPolyline
 90
2
 70
0
 43
0.01
 10
-1525.2597893
 20
-65.61679693
 30
0.0
 10
-1307.36554829
 20
-65.61679693
 30
0.0
  0
LWPOLYLINE
  5
23F
  8
0
 62
0
370
-1
  6
BYLAYER
100
AcDbEntity
100
AcDbPolyline
 90
2
 70
0
 43
0.01
 10
-1307.36554829
 20
-65.61679693
 30
0.0
 10
-1089.47130523
 20
-65.61679693
 30
0.0
  0
LWPOLYLINE
  5
240
  8
0
 62
0
370
-1
  6
BYLAYER
100
AcDbEntity
100
AcDbPolyline
 90
2
 70
0
 43
0.01
 10
-1089.47130523
 20
-65.61679693
 30
0.0
 10
-871.57705845
 20
-65.61679693
 30
0.0
  0
LWPOLYLINE
  5
241
  8
0
 62
0
370
-1
  6
BYLAYER
100
AcDbEntity
100
AcDbPolyline
 90
2
 70
0
 43
0.01
 10
-871.57705845
 20
-65.61679693
 30
0.0
 10
-653.68280623
 20
-65.61679693
 30
0.0
  0
LWPOLYLINE
  5
242
  8
0
 62
0
370
-1
  6
BYLAYER
100
AcDbEntity
100
AcDbPolyline
 90
2
 70
0
 43
0.01
 10
-653.68280623
 20
-65.61679693
 30
0.0
 10
-435.78854688
 20
-65.61679693
 30
0.0
  0
LWPOLYLINE
  5
243
  8
0
 62
0
370
-1
  6
BYLAYER
100
AcDbEntity
100
AcDbPolyline
 90
2
 70
0
 43
0.01
 10
-435.78854688
 20
-65.61679693
 30
0.0
 10
-217.8942787
 20
-65.61679693
 30
0.0
  0
LWPOLYLINE
  5
244
  8
0
 62
0
370
-1
  6
BYLAYER
100
AcDbEntity
100
AcDbPolyline
 90
2
 70
0
 43
0.01
 10
-217.8942787
 20
-65.61679693
 30
0.0
 10
0.0
 20
-65.61679693
 30
0.0
  0
LWPOLYLINE
  5
245
  8
0
 62
0
370
-1
  6
BYLAYER
100
AcDbEntity
100
AcDbPolyline
 90
2
 70
0
 43
0.01
 10
0.0
 20
65.61679693
 30
0.0
 10
0.0
 20
65.61679693
 30
0.0
  0
LWPOLYLINE
  5
246
  8
0
 62
0
370
-1
  6
BYLAYER
100
AcDbEntity
100
AcDbPolyline
 90
2
 70
0
 43
0.01
 10
0.0
 20
65.61679693
 30
0.0
 10
217.89427683
 20
65.61679693
 30
0.0
  0
LWPOLYLINE
  5
247
  8
0
 62
0
370
-1
  6
BYLAYER
100
AcDbEntity
100
AcDbPolyline
 90
2
 70
0
 43
0.01
 10
217.89427683
 20
65.61679693
 30
0.0
 10
435.78854009
 20
65.61679693
 30
0.0
  0
LWPOLYLINE
  5
248
  8
0
 62
0
370
-1
  6
BYLAYER
100
AcDbEntity
100
AcDbPolyline
 90
2
 70
0
 43
0.01
 10
435.78854009
 20
65.61679693
 30
0.0
 10
653.68279248
 20
65.61679693
 30
0.0
  0
LWPOLYLINE
  5
249
  8
0
 62
0
370
-1
  6
BYLAYER
100
AcDbEntity
100
AcDbPolyline
 90
2
 70
0
 43
0.01
 10
653.68279248
 20
65.61679693
 30
0.0
 10
871.57703672
 20
65.61679693
 30
0.0
  0
LWPOLYLINE
  5
24A
  8
0
 62
0
370
-1
  6
BYLAYER
100
AcDbEntity
100
AcDbPolyline
 90
2
 70
0
 43
0.01
 10
871.57703672
 20
65.61679693
 30
0.0
 10
1089.47127553
 20
65.61679693
 30
0.0
  0
LWPOLYLINE
  5
24B
  8
0
 62
0
370
-1
  6
BYLAYER
100
AcDbEntity
100
AcDbPolyline
 90
2
 70
0
 43
0.01
 10
1089.47127553
 20
65.61679693
 30
0.0
 10
1307.36551162
 20
65.61679693
 30
0.0
  0
LWPOLYLINE
  5
24C
  8
0
 62
0
370
-1
  6
BYLAYER
100
AcDbEntity
100
AcDbPolyline
 90
2
 70
0
 43
0.01
 10
1307.36551162
 20
65.61679693
 30
0.0
 10
1525.25974771
 20
65.61679693
 30
0.0
  0
LWPOLYLINE
  5
24D
  8
0
 62
0
370
-1
  6
BYLAYER
100
AcDbEntity
100
AcDbPolyline
 90
2
 70
0
 43
0.01
 10
1525.25974771
 20
65.61679693
 30
0.0
 10
1743.15398652
 20
65.61679693
 30
0.0
  0
LWPOLYLINE
  5
24E
  8
0
 62
0
370
-1
  6
BYLAYER
100
AcDbEntity
100
AcDbPolyline
 90
2
 70
0
 43
0.01
 10
1743.15398652
 20
65.61679693
 30
0.0
 10
1961.04823077
 20
65.61679693
 30
0.0
  0
LWPOLYLINE
  5
24F
  8
0
 62
0
370
-1
  6
BYLAYER
100
AcDbEntity
100
AcDbPolyline
 90
2
 70
0
 43
0.01
 10
1961.04823077
 20
65.61679693
 30
0.0
 10
2178.94248315
 20
65.61679693
 30
0.0
  0
LWPOLYLINE
  5
250
  8
0
 62
0
370
-1
  6
BYLAYER
100
AcDbEntity
100
AcDbPolyline
 90
2
 70
0
 43
0.01
 10
2178.94248315
 20
65.61679693
 30
0.0
 10
2396.83674641
 20
65.61679693
 30
0.0
  0
LWPOLYLINE
  5
251
  8
0
 62
0
370
-1
  6
BYLAYER
100
AcDbEntity
100
AcDbPolyline
 90
2
 70
0
 43
0.01
 10
2396.83674641
 20
65.61679693
 30
0.0
 10
2614.73102324
 20
65.61679693
 30
0.0
  0
LWPOLYLINE
  5
252
  8
0
 62
0
370
-1
  6
BYLAYER
100
AcDbEntity
100
AcDbPolyline
 90
2
 70
0
 43
0.01
 10
-2352.26383551
 20
196.8503908
 30
0.0
 10
-2352.26383551
 20
196.8503908
 30
0.0
  0
LWPOLYLINE
  5
253
  8
0
 62
0
370
-1
  6
BYLAYER
100
AcDbEntity
100
AcDbPolyline
 90
2
 70
0
 43
0.01
 10
-2352.26383551
 20
196.8503908
 30
0.0
 10
-2374.1361045
 20
196.8503908
 30
0.0
  0
LWPOLYLINE
  5
254
  8
0
 62
0
370
-1
  6
BYLAYER
100
AcDbEntity
100
AcDbPolyline
 90
2
 70
0
 43
0.01
 10
-2374.1361045
 20
196.8503908
 30
0.0
 10
-2396.00837217
 20
196.8503908
 30
0.0
  0
LWPOLYLINE
  5
255
  8
0
 62
0
370
-1
  6
BYLAYER
100
AcDbEntity
100
AcDbPolyline
 90
2
 70
0
 43
0.01
 10
-2396.00837217
 20
196.8503908
 30
0.0
 10
-2417.88063874
 20
196.8503908
 30
0.0
  0
LWPOLYLINE
  5
256
  8
0
 62
0
370
-1
  6
BYLAYER
100
AcDbEntity
100
AcDbPolyline
 90
2
 70
0
 43
0.01
 10
-2417.88063874
 20
196.8503908
 30
0.0
 10
-2439.75290442
 20
196.8503908
 30
0.0
  0
LWPOLYLINE
  5
257
  8
0
 62
0
370
-1
  6
BYLAYER
100
AcDbEntity
100
AcDbPolyline
 90
2
 70
0
 43
0.01
 10
-2439.75290442
 20
196.8503908
 30
0.0
 10
-2461.62516942
 20
196.8503908
 30
0.0
  0
LWPOLYLINE
  5
258
  8
0
 62
0
370
-1
  6
BYLAYER
100
AcDbEntity
100
AcDbPolyline
 90
2
 70
0
 43
0.01
 10
-2461.62516942
 20
196.8503908
 30
0.0
 10
-2483.49743396
 20
196.8503908
 30
0.0
  0
LWPOLYLINE
  5
259
  8
0
 62
0
370
-1
  6
BYLAYER
100
AcDbEntity
100
AcDbPolyline
 90
2
 70
0
 43
0.01
 10
-2483.49743396
 20
196.8503908
 30
0.0
 10
-2505.36969824
 20
196.8503908
 30
0.0
  0
LWPOLYLINE
  5
25A
  8
0
 62
0
370
-1
  6
BYLAYER
100
AcDbEntity
100
AcDbPolyline
 90
2
 70
0
 43
0.01
 10
-2505.36969824
 20
196.8503908
 30
0.0
 10
-2527.24196247
 20
196.8503908
 30
0.0
  0
LWPOLYLINE
  5
25B
  8
0
 62
0
370
-1
  6
BYLAYER
100
AcDbEntity
100
AcDbPolyline
 90
2
 70
0
 43
0.01
 10
-2527.24196247
 20
196.8503908
 30
0.0
 10
-2549.11422688
 20
196.8503908
 30
0.0
  0
LWPOLYLINE
  5
25C
  8
0
 62
0
370
-1
  6
BYLAYER
100
AcDbEntity
100
AcDbPolyline
 90
2
 70
0
 43
0.01
 10
-2549.11422688
 20
196.8503908
 30
0.0
 10
-2570.98649167
 20
196.8503908
 30
0.0
  0
LWPOLYLINE
  5
25D
  8
0
 62
0
370
-1
  6
BYLAYER
100
AcDbEntity
100
AcDbPolyline
 90
2
 70
0
 43
0.01
 10
-2570.98649167
 20
196.8503908
 30
0.0
 10
-2592.85875705
 20
196.8503908
 30
0.0
  0
LWPOLYLINE
  5
25E
  8
0
 62
0
370
-1
  6
BYLAYER
100
AcDbEntity
100
AcDbPolyline
 90
2
 70
0
 43
0.01
 10
-2592.85875705
 20
196.8503908
 30
0.0
 10
-2614.73102324
 20
196.8503908
 30
0.0
  0
LWPOLYLINE
  5
25F
  8
0
 62
0
370
-1
  6
BYLAYER
100
AcDbEntity
100
AcDbPolyline
 90
2
 70
0
 43
0.01
 10
-2614.73102324
 20
196.8503908
 30
0.0
 10
-2614.73102324
 20
164.04199234
 30
0.0
  0
LWPOLYLINE
  5
260
  8
0
 62
0
370
-1
  6
BYLAYER
100
AcDbEntity
100
AcDbPolyline
 90
2
 70
0
 43
0.01
 10
-2614.73102324
 20
164.04199234
 30
0.0
 10
-2614.73102324
 20
131.23359387
 30
0.0
  0
LWPOLYLINE
  5
261
  8
0
 62
0
370
-1
  6
BYLAYER
100
AcDbEntity
100
AcDbPolyline
 90
2
 70
0
 43
0.01
 10
-2614.73102324
 20
131.23359387
 30
0.0
 10
-2614.73102324
 20
98.4251954
 30
0.0
  0
LWPOLYLINE
  5
262
  8
0
 62
0
370
-1
  6
BYLAYER
100
AcDbEntity
100
AcDbPolyline
 90
2
 70
0
 43
0.01
 10
-2614.73102324
 20
98.4251954
 30
0.0
 10
-2614.73102324
 20
65.61679693
 30
0.0
  0
LWPOLYLINE
  5
263
  8
0
 62
0
370
-1
  6
BYLAYER
100
AcDbEntity
100
AcDbPolyline
 90
2
 70
0
 43
0.01
 10
-2614.73102324
 20
65.61679693
 30
0.0
 10
-2614.73102324
 20
32.80839847
 30
0.0
  0
LWPOLYLINE
  5
264
  8
0
 62
0
370
-1
  6
BYLAYER
100
AcDbEntity
100
AcDbPolyline
 90
2
 70
0
 43
0.01
 10
-2614.73102324
 20
32.80839847
 30
0.0
 10
-2614.73102324
 20
-0.0
 30
0.0
  0
LWPOLYLINE
  5
265
  8
0
 62
0
370
-1
  6
BYLAYER
100
AcDbEntity
100
AcDbPolyline
 90
2
 70
0
 43
0.01
 10
-2614.73102324
 20
-0.0
 30
0.0
 10
-2614.73102324
 20
-32.80839847
 30
0.0
  0
LWPOLYLINE
  5
266
  8
0
 62
0
370
-1
  6
BYLAYER
100
AcDbEntity
100
AcDbPolyline
 90
2
 70
0
 43
0.01
 10
-2614.73102324
 20
-32.80839847
 30
0.0
 10
-2614.73102324
 20
-65.61679693
 30
0.0
  0
LWPOLYLINE
  5
267
  8
0
 62
0
370
-1
  6
BYLAYER
100
AcDbEntity
100
AcDbPolyline
 90
2
 70
0
 43
0.01
 10
-2614.73102324
 20
-65.61679693
 30
0.0
 10
-2614.73102324
 20
-98.4251954
 30
0.0
  0
LWPOLYLINE
  5
268
  8
0
 62
0
370
-1
  6
BYLAYER
100
AcDbEntity
100
AcDbPolyline
 90
2
 70
0
 43
0.01
 10
-2614.73102324
 20
-98.4251954
 30
0.0
 10
-2614.73102324
 20
-131.23359387
 30
0.0
  0
LWPOLYLINE
  5
269
  8
0
 62
0
370
-1
  6
BYLAYER
100
AcDbEntity
100
AcDbPolyline
 90
2
 70
0
 43
0.01
 10
-2614.73102324
 20
-131.23359387
 30
0.0
 10
-2614.73102324
 20
-164.04199234
 30
0.0
  0
LWPOLYLINE
  5
26A
  8
0
 62
0
370
-1
  6
BYLAYER
100
AcDbEntity
100
AcDbPolyline
 90
2
 70
0
 43
0.01
 10
-2614.73102324
 20
-164.04199234
 30
0.0
 10
-2614.73102324
 20
-196.8503908
 30
0.0
  0
LWPOLYLINE
  5
26B
  8
0
 62
0
370
-1
  6
BYLAYER
100
AcDbEntity
100
AcDbPolyline
 90
2
 70
0
 43
0.01
 10
-2614.73102324
 20
-196.8503908
 30
0.0
 10
-2592.85875705
 20
-196.8503908
 30
0.0
  0
LWPOLYLINE
  5
26C
  8
0
 62
0
370
-1
  6
BYLAYER
100
AcDbEntity
100
AcDbPolyline
 90
2
 70
0
 43
0.01
 10
-2592.85875705
 20
-196.8503908
 30
0.0
 10
-2570.98649167
 20
-196.8503908
 30
0.0
  0
LWPOLYLINE
  5
26D
  8
0
 62
0
370
-1
  6
BYLAYER
100
AcDbEntity
100
AcDbPolyline
 90
2
 70
0
 43
0.01
 10
-2570.98649167
 20
-196.8503908
 30
0.0
 10
-2549.11422688
 20
-196.8503908
 30
0.0
  0
LWPOLYLINE
  5
26E
  8
0
 62
0
370
-1
  6
BYLAYER
100
AcDbEntity
100
AcDbPolyline
 90
2
 70
0
 43
0.01
 10
-2549.11422688
 20
-196.8503908
 30
0.0
 10
-2527.24196247
 20
-196.8503908
 30
0.0
  0
LWPOLYLINE
  5
26F
  8
0
 62
0
370
-1
  6
BYLAYER
100
AcDbEntity
100
AcDbPolyline
 90
2
 70
0
 43
0.01
 10
-2527.24196247
 20
-196.8503908
 30
0.0
 10
-2505.36969824
 20
-196.8503908
 30
0.0
  0
LWPOLYLINE
  5
270
  8
0
 62
0
370
-1
  6
BYLAYER
100
AcDbEntity
100
AcDbPolyline
 90
2
 70
0
 43
0.01
 10
-2505.36969824
 20
-196.8503908
 30
0.0
 10
-2483.49743396
 20
-196.8503908
 30
0.0
  0
LWPOLYLINE
  5
271
  8
0
 62
0
370
-1
  6
BYLAYER
100
AcDbEntity
100
AcDbPolyline
 90
2
 70
0
 43
0.01
 10
-2483.49743396
 20
-196.8503908
 30
0.0
 10
-2461.62516942
 20
-196.8503908
 30
0.0
  0
LWPOLYLINE
  5
272
  8
0
 62
0
370
-1
  6
BYLAYER
100
AcDbEntity
100
AcDbPolyline
 90
2
 70
0
 43
0.01
 10
-2461.62516942
 20
-196.8503908
 30
0.0
 10
-2439.75290442
 20
-196.8503908
 30
0.0
  0
LWPOLYLINE
  5
273
  8
0
 62
0
370
-1
  6
BYLAYER
100
AcDbEntity
100
AcDbPolyline
 90
2
 70
0
 43
0.01
 10
-2439.75290442
 20
-196.8503908
 30
0.0
 10
-2417.88063874
 20
-196.8503908
 30
0.0
  0
LWPOLYLINE
  5
274
  8
0
 62
0
370
-1
  6
BYLAYER
100
AcDbEntity
100
AcDbPolyline
 90
2
 70
0
 43
0.01
 10
-2417.88063874
 20
-196.8503908
 30
0.0
 10
-2396.00837217
 20
-196.8503908
 30
0.0
  0
LWPOLYLINE
  5
275
  8
0
 62
0
370
-1
  6
BYLAYER
100
AcDbEntity
100
AcDbPolyline
 90
2
 70
0
 43
0.01
 10
-2396.00837217
 20
-196.8503908
 30
0.0
 10
-2374.1361045
 20
-196.8503908
 30
0.0
  0
LWPOLYLINE
  5
276
  8
0
 62
0
370
-1
  6
BYLAYER
100
AcDbEntity
100
AcDbPolyline
 90
2
 70
0
 43
0.01
 10
-2374.1361045
 20
-196.8503908
 30
0.0
 10
-2352.26383551
 20
-196.8503908
 30
0.0
  0
LWPOLYLINE
  5
277
  8
0
 62
0
370
-1
  6
BYLAYER
100
AcDbEntity
100
AcDbPolyline
 90
2
 70
0
 43
0.04
 10
-2614.73102324
 20
-65.61679693
 30
0.0
 10
-2614.73102324
 20
-65.61679693
 30
0.0
  0
LWPOLYLINE
  5
278
  8
0
 62
0
370
-1
  6
BYLAYER
100
AcDbEntity
100
AcDbPolyline
 90
2
 70
0
 43
0.04
 10
-2614.73102324
 20
-65.61679693
 30
0.0
 10
-2592.85875705
 20
-65.61679693
 30
0.0
  0
LWPOLYLINE
  5
279
  8
0
 62
0
370
-1
  6
BYLAYER
100
AcDbEntity
100
AcDbPolyline
 90
2
 70
0
 43
0.04
 10
-2592.85875705
 20
-65.61679693
 30
0.0
 10
-2570.98649167
 20
-65.61679693
 30
0.0
  0
LWPOLYLINE
  5
27A
  8
0
 62
0
370
-1
  6
BYLAYER
100
AcDbEntity
100
AcDbPolyline
 90
2
 70
0
 43
0.04
 10
-2570.98649167
 20
-65.61679693
 30
0.0
 10
-2549.11422688
 20
-65.61679693
 30
0.0
  0
LWPOLYLINE
  5
27B
  8
0
 62
0
370
-1
  6
BYLAYER
100
AcDbEntity
100
AcDbPolyline
 90
2
 70
0
 43
0.04
 10
-2549.11422688
 20
-65.61679693
 30
0.0
 10
-2527.24196247
 20
-65.61679693
 30
0.0
  0
LWPOLYLINE
  5
27C
  8
0
 62
0
370
-1
  6
BYLAYER
100
AcDbEntity
100
AcDbPolyline
 90
2
 70
0
 43
0.04
 10
-2527.24196247
 20
-65.61679693
 30
0.0
 10
-2505.36969824
 20
-65.61679693
 30
0.0
  0
LWPOLYLINE
  5
27D
  8
0
 62
0
370
-1
  6
BYLAYER
100
AcDbEntity
100
AcDbPolyline
 90
2
 70
0
 43
0.04
 10
-2505.36969824
 20
-65.61679693
 30
0.0
 10
-2483.49743396
 20
-65.61679693
 30
0.0
  0
LWPOLYLINE
  5
27E
  8
0
 62
0
370
-1
  6
BYLAYER
100
AcDbEntity
100
AcDbPolyline
 90
2
 70
0
 43
0.04
 10
-2483.49743396
 20
-65.61679693
 30
0.0
 10
-2461.62516942
 20
-65.61679693
 30
0.0
  0
LWPOLYLINE
  5
27F
  8
0
 62
0
370
-1
  6
BYLAYER
100
AcDbEntity
100
AcDbPolyline
 90
2
 70
0
 43
0.04
 10
-2461.62516942
 20
-65.61679693
 30
0.0
 10
-2439.75290442
 20
-65.61679693
 30
0.0
  0
LWPOLYLINE
  5
280
  8
0
 62
0
370
-1
  6
BYLAYER
100
AcDbEntity
100
AcDbPolyline
 90
2
 70
0
 43
0.04
 10
-2439.75290442
 20
-65.61679693
 30
0.0
 10
-2417.88063874
 20
-65.61679693
 30
0.0
  0
LWPOLYLINE
  5
281
  8
0
 62
0
370
-1
  6
BYLAYER
100
AcDbEntity
100
AcDbPolyline
 90
2
 70
0
 43
0.04
 10
-2417.88063874
 20
-65.61679693
 30
0.0
 10
-2396.00837217
 20
-65.61679693
 30
0.0
  0
LWPOLYLINE
  5
282
  8
0
 62
0
370
-1
  6
BYLAYER
100
AcDbEntity
100
AcDbPolyline
 90
2
 70
0
 43
0.04
 10
-2396.00837217
 20
-65.61679693
 30
0.0
 10
-2374.1361045
 20
-65.61679693
 30
0.0
  0
LWPOLYLINE
  5
283
  8
0
 62
0
370
-1
  6
BYLAYER
100
AcDbEntity
100
AcDbPolyline
 90
2
 70
0
 43
0.04
 10
-2374.1361045
 20
-65.61679693
 30
0.0
 10
-2352.26383551
 20
-65.61679693
 30
0.0
  0
LWPOLYLINE
  5
284
  8
0
 62
0
370
-1
  6
BYLAYER
100
AcDbEntity
100
AcDbPolyline
 90
2
 70
0
 43
0.04
 10
-131.2336672
 20
65.61679693
 30
0.0
 10
-131.2336672
 20
65.61679693
 30
0.0
  0
LWPOLYLINE
  5
285
  8
0
 62
0
370
-1
  6
BYLAYER
100
AcDbEntity
100
AcDbPolyline
 90
2
 70
0
 43
0.04
 10
-131.2336672
 20
65.61679693
 30
0.0
 10
-109.36140101
 20
65.61679693
 30
0.0
  0
LWPOLYLINE
  5
286
  8
0
 62
0
370
-1
  6
BYLAYER
100
AcDbEntity
100
AcDbPolyline
 90
2
 70
0
 43
0.04
 10
-109.36140101
 20
65.61679693
 30
0.0
 10
-87.48913563
 20
65.61679693
 30
0.0
  0
LWPOLYLINE
  5
287
  8
0
 62
0
370
-1
  6
BYLAYER
100
AcDbEntity
100
AcDbPolyline
 90
2
 70
0
 43
0.04
 10
-87.48913563
 20
65.61679693
 30
0.0
 10
-65.61687084
 20
65.61679693
 30
0.0
  0
LWPOLYLINE
  5
288
  8
0
 62
0
370
-1
  6
BYLAYER
100
AcDbEntity
100
AcDbPolyline
 90
2
 70
0
 43
0.04
 10
-65.61687084
 20
65.61679693
 30
0.0
 10
-43.74460643
 20
65.61679693
 30
0.0
  0
LWPOLYLINE
  5
289
  8
0
 62
0
370
-1
  6
BYLAYER
100
AcDbEntity
100
AcDbPolyline
 90
2
 70
0
 43
0.04
 10
-43.74460643
 20
65.61679693
 30
0.0
 10
-21.8723422
 20
65.61679693
 30
0.0
  0
LWPOLYLINE
  5
28A
  8
0
 62
0
370
-1
  6
BYLAYER
100
AcDbEntity
100
AcDbPolyline
 90
2
 70
0
 43
0.04
 10
-21.8723422
 20
65.61679693
 30
0.0
 10
-0.00007792
 20
65.61679693
 30
0.0
  0
LWPOLYLINE
  5
28B
  8
0
 62
0
370
-1
  6
BYLAYER
100
AcDbEntity
100
AcDbPolyline
 90
2
 70
0
 43
0.04
 10
-0.00007792
 20
65.61679693
 30
0.0
 10
21.87218662
 20
65.61679693
 30
0.0
  0
LWPOLYLINE
  5
28C
  8
0
 62
0
370
-1
  6
BYLAYER
100
AcDbEntity
100
AcDbPolyline
 90
2
 70
0
 43
0.04
 10
21.87218662
 20
65.61679693
 30
0.0
 10
43.74445162
 20
65.61679693
 30
0.0
  0
LWPOLYLINE
  5
28D
  8
0
 62
0
370
-1
  6
BYLAYER
100
AcDbEntity
100
AcDbPolyline
 90
2
 70
0
 43
0.04
 10
43.74445162
 20
65.61679693
 30
0.0
 10
65.6167173
 20
65.61679693
 30
0.0
  0
LWPOLYLINE
  5
28E
  8
0
 62
0
370
-1
  6
BYLAYER
100
AcDbEntity
100
AcDbPolyline
 90
2
 70
0
 43
0.04
 10
65.6167173
 20
65.61679693
 30
0.0
 10
87.48898387
 20
65.61679693
 30
0.0
  0
LWPOLYLINE
  5
28F
  8
0
 62
0
370
-1
  6
BYLAYER
100
AcDbEntity
100
AcDbPolyline
 90
2
 70
0
 43
0.04
 10
87.48898387
 20
65.61679693
 30
0.0
 10
109.36125155
 20
65.61679693
 30
0.0
  0
LWPOLYLINE
  5
290
  8
0
 62
0
370
-1
  6
BYLAYER
100
AcDbEntity
100
AcDbPolyline
 90
2
 70
0
 43
0.04
 10
109.36125155
 20
65.61679693
 30
0.0
 10
131.23352054
 20
65.61679693
 30
0.0
  0
LWPOLYLINE
  5
291
  8
0
 62
0
370
-1
  6
BYLAYER
100
AcDbEntity
100
AcDbPolyline
 90
2
 70
0
 43
0.04
 10
-131.2336672
 20
-65.61679693
 30
0.0
 10
-131.2336672
 20
-65.61679693
 30
0.0
  0
LWPOLYLINE
  5
292
  8
0
 62
0
370
-1
  6
BYLAYER
100
AcDbEntity
100
AcDbPolyline
 90
2
 70
0
 43
0.04
 10
-131.2336672
 20
-65.61679693
 30
0.0
 10
-109.36140101
 20
-65.61679693
 30
0.0
  0
LWPOLYLINE
  5
293
  8
0
 62
0
370
-1
  6
BYLAYER
100
AcDbEntity
100
AcDbPolyline
 90
2
 70
0
 43
0.04
 10
-109.36140101
 20
-65.61679693
 30
0.0
 10
-87.48913563
 20
-65.61679693
 30
0.0
  0
LWPOLYLINE
  5
294
  8
0
 62
0
370
-1
  6
BYLAYER
100
AcDbEntity
100
AcDbPolyline
 90
2
 70
0
 43
0.04
 10
-87.48913563
 20
-65.61679693
 30
0.0
 10
-65.61687084
 20
-65.61679693
 30
0.0
  0
LWPOLYLINE
  5
295
  8
0
 62
0
370
-1
  6
BYLAYER
100
AcDbEntity
100
AcDbPolyline
 90
2
 70
0
 43
0.04
 10
-65.61687084
 20
-65.61679693
 30
0.0
 10
-43.74460643
 20
-65.61679693
 30
0.0
  0
LWPOLYLINE
  5
296
  8
0
 62
0
370
-1
  6
BYLAYER
100
AcDbEntity
100
AcDbPolyline
 90
2
 70
0
 43
0.04
 10
-43.74460643
 20
-65.61679693
 30
0.0
 10
-21.8723422
 20
-65.61679693
 30
0.0
  0
LWPOLYLINE
  5
297
  8
0
 62
0
370
-1
  6
BYLAYER
100
AcDbEntity
100
AcDbPolyline
 90
2
 70
0
 43
0.04
 10
-21.8723422
 20
-65.61679693
 30
0.0
 10
-0.00007792
 20
-65.61679693
 30
0.0
  0
LWPOLYLINE
  5
298
  8
0
 62
0
370
-1
  6
BYLAYER
100
AcDbEntity
100
AcDbPolyline
 90
2
 70
0
 43
0.04
 10
-0.00007792
 20
-65.61679693
 30
0.0
 10
21.87218662
 20
-65.61679693
 30
0.0
  0
LWPOLYLINE
  5
299
  8
0
 62
0
370
-1
  6
BYLAYER
100
AcDbEntity
100
AcDbPolyline
 90
2
 70
0
 43
0.04
 10
21.87218662
 20
-65.61679693
 30
0.0
 10
43.74445162
 20
-65.61679693
 30
0.0
  0
LWPOLYLINE
  5
29A
  8
0
 62
0
370
-1
  6
BYLAYER
100
AcDbEntity
100
AcDbPolyline
 90
2
 70
0
 43
0.04
 10
43.74445162
 20
-65.61679693
 30
0.0
 10
65.6167173
 20
-65.61679693
 30
0.0
  0
LWPOLYLINE
  5
29B
  8
0
 62
0
370
-1
  6
BYLAYER
100
AcDbEntity
100
AcDbPolyline
 90
2
 70
0
 43
0.04
 10
65.6167173
 20
-65.61679693
 30
0.0
 10
87.48898387
 20
-65.61679693
 30
0.0
  0
LWPOLYLINE
  5
29C
  8
0
 62
0
370
-1
  6
BYLAYER
100
AcDbEntity
100
AcDbPolyline
 90
2
 70
0
 43
0.04
 10
87.48898387
 20
-65.61679693
 30
0.0
 10
109.36125155
 20
-65.61679693
 30
0.0
  0
LWPOLYLINE
  5
29D
  8
0
 62
0
370
-1
  6
BYLAYER
100
AcDbEntity
100
AcDbPolyline
 90
2
 70
0
 43
0.04
 10
109.36125155
 20
-65.61679693
 30
0.0
 10
131.23352054
 20
-65.61679693
 30
0.0
  0
LWPOLYLINE
  5
29E
  8
0
 62
0
370
-1
  6
BYLAYER
100
AcDbEntity
100
AcDbPolyline
 90
2
 70
0
 43
0.01
 10
2352.26368884
 20
-196.8503908
 30
0.0
 10
2352.26368884
 20
-196.8503908
 30
0.0
  0
LWPOLYLINE
  5
29F
  8
0
 62
0
370
-1
  6
BYLAYER
100
AcDbEntity
100
AcDbPolyline
 90
2
 70
0
 43
0.01
 10
2352.26368884
 20
-196.8503908
 30
0.0
 10
2374.13595503
 20
-196.8503908
 30
0.0
  0
LWPOLYLINE
  5
2A0
  8
0
 62
0
370
-1
  6
BYLAYER
100
AcDbEntity
100
AcDbPolyline
 90
2
 70
0
 43
0.01
 10
2374.13595503
 20
-196.8503908
 30
0.0
 10
2396.00822041
 20
-196.8503908
 30
0.0
  0
LWPOLYLINE
  5
2A1
  8
0
 62
0
370
-1
  6
BYLAYER
100
AcDbEntity
100
AcDbPolyline
 90
2
 70
0
 43
0.01
 10
2396.00822041
 20
-196.8503908
 30
0.0
 10
2417.8804852
 20
-196.8503908
 30
0.0
  0
LWPOLYLINE
  5
2A2
  8
0
 62
0
370
-1
  6
BYLAYER
100
AcDbEntity
100
AcDbPolyline
 90
2
 70
0
 43
0.01
 10
2417.8804852
 20
-196.8503908
 30
0.0
 10
2439.75274961
 20
-196.8503908
 30
0.0
  0
LWPOLYLINE
  5
2A3
  8
0
 62
0
370
-1
  6
BYLAYER
100
AcDbEntity
100
AcDbPolyline
 90
2
 70
0
 43
0.01
 10
2439.75274961
 20
-196.8503908
 30
0.0
 10
2461.62501385
 20
-196.8503908
 30
0.0
  0
LWPOLYLINE
  5
2A4
  8
0
 62
0
370
-1
  6
BYLAYER
100
AcDbEntity
100
AcDbPolyline
 90
2
 70
0
 43
0.01
 10
2461.62501385
 20
-196.8503908
 30
0.0
 10
2483.49727813
 20
-196.8503908
 30
0.0
  0
LWPOLYLINE
  5
2A5
  8
0
 62
0
370
-1
  6
BYLAYER
100
AcDbEntity
100
AcDbPolyline
 90
2
 70
0
 43
0.01
 10
2483.49727813
 20
-196.8503908
 30
0.0
 10
2505.36954266
 20
-196.8503908
 30
0.0
  0
LWPOLYLINE
  5
2A6
  8
0
 62
0
370
-1
  6
BYLAYER
100
AcDbEntity
100
AcDbPolyline
 90
2
 70
0
 43
0.01
 10
2505.36954266
 20
-196.8503908
 30
0.0
 10
2527.24180766
 20
-196.8503908
 30
0.0
  0
LWPOLYLINE
  5
2A7
  8
0
 62
0
370
-1
  6
BYLAYER
100
AcDbEntity
100
AcDbPolyline
 90
2
 70
0
 43
0.01
 10
2527.24180766
 20
-196.8503908
 30
0.0
 10
2549.11407334
 20
-196.8503908
 30
0.0
  0
LWPOLYLINE
  5
2A8
  8
0
 62
0
370
-1
  6
BYLAYER
100
AcDbEntity
100
AcDbPolyline
 90
2
 70
0
 43
0.01
 10
2549.11407334
 20
-196.8503908
 30
0.0
 10
2570.98633991
 20
-196.8503908
 30
0.0
  0
LWPOLYLINE
  5
2A9
  8
0
 62
0
370
-1
  6
BYLAYER
100
AcDbEntity
100
AcDbPolyline
 90
2
 70
0
 43
0.01
 10
2570.98633991
 20
-196.8503908
 30
0.0
 10
2592.85860759
 20
-196.8503908
 30
0.0
  0
LWPOLYLINE
  5
2AA
  8
0
 62
0
370
-1
  6
BYLAYER
100
AcDbEntity
100
AcDbPolyline
 90
2
 70
0
 43
0.01
 10
2592.85860759
 20
-196.8503908
 30
0.0
 10
2614.73087658
 20
-196.8503908
 30
0.0
  0
LWPOLYLINE
  5
2AB
  8
0
 62
0
370
-1
  6
BYLAYER
100
AcDbEntity
100
AcDbPolyline
 90
2
 70
0
 43
0.01
 10
2614.73087658
 20
-196.8503908
 30
0.0
 10
2614.73087658
 20
-164.04199234
 30
0.0
  0
LWPOLYLINE
  5
2AC
  8
0
 62
0
370
-1
  6
BYLAYER
100
AcDbEntity
100
AcDbPolyline
 90
2
 70
0
 43
0.01
 10
2614.73087658
 20
-164.04199234
 30
0.0
 10
2614.73087658
 20
-131.23359387
 30
0.0
  0
LWPOLYLINE
  5
2AD
  8
0
 62
0
370
-1
  6
BYLAYER
100
AcDbEntity
100
AcDbPolyline
 90
2
 70
0
 43
0.01
 10
2614.73087658
 20
-131.23359387
 30
0.0
 10
2614.73087658
 20
-98.4251954
 30
0.0
  0
LWPOLYLINE
  5
2AE
  8
0
 62
0
370
-1
  6
BYLAYER
100
AcDbEntity
100
AcDbPolyline
 90
2
 70
0
 43
0.01
 10
2614.73087658
 20
-98.4251954
 30
0.0
 10
2614.73087658
 20
-65.61679693
 30
0.0
  0
LWPOLYLINE
  5
2AF
  8
0
 62
0
370
-1
  6
BYLAYER
100
AcDbEntity
100
AcDbPolyline
 90
2
 70
0
 43
0.01
 10
2614.73087658
 20
-65.61679693
 30
0.0
 10
2614.73087658
 20
-32.80839847
 30
0.0
  0
LWPOLYLINE
  5
2B0
  8
0
 62
0
370
-1
  6
BYLAYER
100
AcDbEntity
100
AcDbPolyline
 90
2
 70
0
 43
0.01
 10
2614.73087658
 20
-32.80839847
 30
0.0
 10
2614.73087658
 20
-0.0
 30
0.0
  0
LWPOLYLINE
  5
2B1
  8
0
 62
0
370
-1
  6
BYLAYER
100
AcDbEntity
100
AcDbPolyline
 90
2
 70
0
 43
0.01
 10
2614.73087658
 20
-0.0
 30
0.0
 10
2614.73087658
 20
32.80839847
 30
0.0
  0
LWPOLYLINE
  5
2B2
  8
0
 62
0
370
-1
  6
BYLAYER
100
AcDbEntity
100
AcDbPolyline
 90
2
 70
0
 43
0.01
 10
2614.73087658
 20
32.80839847
 30
0.0
 10
2614.73087658
 20
65.61679693
 30
0.0
  0
LWPOLYLINE
  5
2B3
  8
0
 62
0
370
-1
  6
BYLAYER
100
AcDbEntity
100
AcDbPolyline
 90
2
 70
0
 43
0.01
 10
2614.73087658
 20
65.61679693
 30
0.0
 10
2614.73087658
 20
98.4251954
 30
0.0
  0
LWPOLYLINE
  5
2B4
  8
0
 62
0
370
-1
  6
BYLAYER
100
AcDbEntity
100
AcDbPolyline
 90
2
 70
0
 43
0.01
 10
2614.73087658
 20
98.4251954
 30
0.0
 10
2614.73087658
 20
131.23359387
 30
0.0
  0
LWPOLYLINE
  5
2B5
  8
0
 62
0
370
-1
  6
BYLAYER
100
AcDbEntity
100
AcDbPolyline
 90
2
 70
0
 43
0.01
 10
2614.73087658
 20
131.23359387
 30
0.0
 10
2614.73087658
 20
164.04199234
 30
0.0
  0
LWPOLYLINE
  5
2B6
  8
0
 62
0
370
-1
  6
BYLAYER
100
AcDbEntity
100
AcDbPolyline
 90
2
 70
0
 43
0.01
 10
2614.73087658
 20
164.04199234
 30
0.0
 10
2614.73087658
 20
196.8503908
 30
0.0
  0
LWPOLYLINE
  5
2B7
  8
0
 62
0
370
-1
  6
BYLAYER
100
AcDbEntity
100
AcDbPolyline
 90
2
 70
0
 43
0.01
 10
2614.73087658
 20
196.8503908
 30
0.0
 10
2592.85860759
 20
196.8503908
 30
0.0
  0
LWPOLYLINE
  5
2B8
  8
0
 62
0
370
-1
  6
BYLAYER
100
AcDbEntity
100
AcDbPolyline
 90
2
 70
0
 43
0.01
 10
2592.85860759
 20
196.8503908
 30
0.0
 10
2570.98633991
 20
196.8503908
 30
0.0
  0
LWPOLYLINE
  5
2B9
  8
0
 62
0
370
-1
  6
BYLAYER
100
AcDbEntity
100
AcDbPolyline
 90
2
 70
0
 43
0.01
 10
2570.98633991
 20
196.8503908
 30
0.0
 10
2549.11407334
 20
196.8503908
 30
0.0
  0
LWPOLYLINE
  5
2BA
  8
0
 62
0
370
-1
  6
BYLAYER
100
AcDbEntity
100
AcDbPolyline
 90
2
 70
0
 43
0.01
 10
2549.11407334
 20
196.8503908
 30
0.0
 10
2527.24180766
 20
196.8503908
 30
0.0
  0
LWPOLYLINE
  5
2BB
  8
0
 62
0
370
-1
  6
BYLAYER
100
AcDbEntity
100
AcDbPolyline
 90
2
 70
0
 43
0.01
 10
2527.24180766
 20
196.8503908
 30
0.0
 10
2505.36954266
 20
196.8503908
 30
0.0
  0
LWPOLYLINE
  5
2BC
  8
0
 62
0
370
-1
  6
BYLAYER
100
AcDbEntity
100
AcDbPolyline
 90
2
 70
0
 43
0.01
 10
2505.36954266
 20
196.8503908
 30
0.0
 10
2483.49727813
 20
196.8503908
 30
0.0
  0
LWPOLYLINE
  5
2BD
  8
0
 62
0
370
-1
  6
BYLAYER
100
AcDbEntity
100
AcDbPolyline
 90
2
 70
0
 43
0.01
 10
2483.49727813
 20
196.8503908
 30
0.0
 10
2461.62501385
 20
196.8503908
 30
0.0
  0
LWPOLYLINE
  5
2BE
  8
0
 62
0
370
-1
  6
BYLAYER
100
AcDbEntity
100
AcDbPolyline
 90
2
 70
0
 43
0.01
 10
2461.62501385
 20
196.8503908
 30
0.0
 10
2439.75274961
 20
196.8503908
 30
0.0
  0
LWPOLYLINE
  5
2BF
  8
0
 62
0
370
-1
  6
BYLAYER
100
AcDbEntity
100
AcDbPolyline
 90
2
 70
0
 43
0.01
 10
2439.75274961
 20
196.8503908
 30
0.0
 10
2417.8804852
 20
196.8503908
 30
0.0
  0
LWPOLYLINE
  5
2C0
  8
0
 62
0
370
-1
  6
BYLAYER
100
AcDbEntity
100
AcDbPolyline
 90
2
 70
0
 43
0.01
 10
2417.8804852
 20
196.8503908
 30
0.0
 10
2396.00822041
 20
196.8503908
 30
0.0
  0
LWPOLYLINE
  5
2C1
  8
0
 62
0
370
-1
  6
BYLAYER
100
AcDbEntity
100
AcDbPolyline
 90
2
 70
0
 43
0.01
 10
2396.00822041
 20
196.8503908
 30
0.0
 10
2374.13595503
 20
196.8503908
 30
0.0
  0
LWPOLYLINE
  5
2C2
  8
0
 62
0
370
-1
  6
BYLAYER
100
AcDbEntity
100
AcDbPolyline
 90
2
 70
0
 43
0.01
 10
2374.13595503
 20
196.8503908
 30
0.0
 10
2352.26368884
 20
196.8503908
 30
0.0
  0
LWPOLYLINE
  5
2C3
  8
0
 62
0
370
-1
  6
BYLAYER
100
AcDbEntity
100
AcDbPolyline
 90
2
 70
0
 43
0.04
 10
2352.26368884
 20
65.61679693
 30
0.0
 10
2352.26368884
 20
65.61679693
 30
0.0
  0
LWPOLYLINE
  5
2C4
  8
0
 62
0
370
-1
  6
BYLAYER
100
AcDbEntity
100
AcDbPolyline
 90
2
 70
0
 43
0.04
 10
2352.26368884
 20
65.61679693
 30
0.0
 10
2374.13595503
 20
65.61679693
 30
0.0
  0
LWPOLYLINE
  5
2C5
  8
0
 62
0
370
-1
  6
BYLAYER
100
AcDbEntity
100
AcDbPolyline
 90
2
 70
0
 43
0.04
 10
2374.13595503
 20
65.61679693
 30
0.0
 10
2396.00822041
 20
65.61679693
 30
0.0
  0
LWPOLYLINE
  5
2C6
  8
0
 62
0
370
-1
  6
BYLAYER
100
AcDbEntity
100
AcDbPolyline
 90
2
 70
0
 43
0.04
 10
2396.00822041
 20
65.61679693
 30
0.0
 10
2417.8804852
 20
65.61679693
 30
0.0
  0
LWPOLYLINE
  5
2C7
  8
0
 62
0
370
-1
  6
BYLAYER
100
AcDbEntity
100
AcDbPolyline
 90
2
 70
0
 43
0.04
 10
2417.8804852
 20
65.61679693
 30
0.0
 10
2439.75274961
 20
65.61679693
 30
0.0
  0
LWPOLYLINE
  5
2C8
  8
0
 62
0
370
-1
  6
BYLAYER
100
AcDbEntity
100
AcDbPolyline
 90
2
 70
0
 43
0.04
 10
2439.75274961
 20
65.61679693
 30
0.0
 10
2461.62501385
 20
65.61679693
 30
0.0
  0
LWPOLYLINE
  5
2C9
  8
0
 62
0
370
-1
  6
BYLAYER
100
AcDbEntity
100
AcDbPolyline
 90
2
 70
0
 43
0.04
 10
2461.62501385
 20
65.61679693
 30
0.0
 10
2483.49727813
 20
65.61679693
 30
0.0
  0
LWPOLYLINE
  5
2CA
  8
0
 62
0
370
-1
  6
BYLAYER
100
AcDbEntity
100
AcDbPolyline
 90
2
 70
0
 43
0.04
 10
2483.49727813
 20
65.61679693
 30
0.0
 10
2505.36954266
 20
65.61679693
 30
0.0
  0
LWPOLYLINE
  5
2CB
  8
0
 62
0
370
-1
  6
BYLAYER
100
AcDbEntity
100
AcDbPolyline
 90
2
 70
0
 43
0.04
 10
2505.36954266
 20
65.61679693
 30
0.0
 10
2527.24180766
 20
65.61679693
 30
0.0
  0
LWPOLYLINE
  5
2CC
  8
0
 62
0
370
-1
  6
BYLAYER
100
AcDbEntity
100
AcDbPolyline
 90
2
 70
0
 43
0.04
 10
2527.24180766
 20
65.61679693
 30
0.0
 10
2549.11407334
 20
65.61679693
 30
0.0
  0
LWPOLYLINE
  5
2CD
  8
0
 62
0
370
-1
  6
BYLAYER
100
AcDbEntity
100
AcDbPolyline
 90
2
 70
0
 43
0.04
 10
2549.11407334
 20
65.61679693
 30
0.0
 10
2570.98633991
 20
65.61679693
 30
0.0
  0
LWPOLYLINE
  5
2CE
  8
0
 62
0
370
-1
  6
BYLAYER
100
AcDbEntity
100
AcDbPolyline
 90
2
 70
0
 43
0.04
 10
2570.98633991
 20
65.61679693
 30
0.0
 10
2592.85860759
 20
65.61679693
 30
0.0
  0
LWPOLYLINE
  5
2CF
  8
0
 62
0
370
-1
  6
BYLAYER
100
AcDbEntity
100
AcDbPolyline
 90
2
 70
0
 43
0.04
 10
2592.85860759
 20
65.61679693
 30
0.0
 10
2614.73087658
 20
65.61679693
 30
0.0
  0
ENDBLK
  5
2D0
100
AcDbEntity
  8
0
100
AcDbBlockEnd
  0
BLOCK
  5
2D1
100
AcDbEntity
  8
0
100
AcDbBlockBegin
  2
W-1-0
 70
0
 10
0.0
 20
0.0
 30
0.0
  3
W-1-0
  1

  0
LWPOLYLINE
  5
2D2
  8
0
 62
0
370
-1
  6
BYLAYER
100
AcDbEntity
100
AcDbPolyline
 90
2
 70
0
 43
0.01
 10
1176.49283581
 20
-0.0
 30
0.0
 10
1176.49283581
 20
-0.0
 30
0.0
  0
LWPOLYLINE
  5
2D3
  8
0
 62
0
370
-1
  6
BYLAYER
100
AcDbEntity
100
AcDbPolyline
 90
2
 70
0
 43
0.01
 10
1176.49283581
 20
-0.0
 30
0.0
 10
1155.0225234
 20
-319.39260437
 30
0.0
  0
LWPOLYLINE
  5
2D4
  8
0
 62
0
370
-1
  6
BYLAYER
100
AcDbEntity
100
AcDbPolyline
 90
2
 70
0
 43
0.01
 10
1155.0225234
 20
-319.39260437
 30
0.0
 10
1092.47708951
 20
-625.69264417
 30
0.0
  0
LWPOLYLINE
  5
2D5
  8
0
 62
0
370
-1
  6
BYLAYER
100
AcDbEntity
100
AcDbPolyline
 90
2
 70
0
 43
0.01
 10
1092.47708951
 20
-625.69264417
 30
0.0
 10
991.65478911
 20
-916.10186341
 30
0.0
  0
LWPOLYLINE
  5
2D6
  8
0
 62
0
370
-1
  6
BYLAYER
100
AcDbEntity
100
AcDbPolyline
 90
2
 70
0
 43
0.01
 10
991.65478911
 20
-916.10186341
 30
0.0
 10
855.35387717
 20
-1187.82200609
 30
0.0
  0
LWPOLYLINE
  5
2D7
  8
0
 62
0
370
-1
  6
BYLAYER
100
AcDbEntity
100
AcDbPolyline
 90
2
 70
0
 43
0.01
 10
855.35387717
 20
-1187.82200609
 30
0.0
 10
686.37260869
 20
-1438.05481621
 30
0.0
  0
LWPOLYLINE
  5
2D8
  8
0
 62
0
370
-1
  6
BYLAYER
100
AcDbEntity
100
AcDbPolyline
 90
2
 70
0
 43
0.01
 10
686.37260869
 20
-1438.05481621
 30
0.0
 10
487.50923864
 20
-1664.00203778
 30
0.0
  0
LWPOLYLINE
  5
2D9
  8
0
 62
0
370
-1
  6
BYLAYER
100
AcDbEntity
100
AcDbPolyline
 90
2
 70
0
 43
0.01
 10
487.50923864
 20
-1664.00203778
 30
0.0
 10
261.56202199
 20
-1862.86541479
 30
0.0
  0
LWPOLYLINE
  5
2DA
  8
0
 62
0
370
-1
  6
BYLAYER
100
AcDbEntity
100
AcDbPolyline
 90
2
 70
0
 43
0.01
 10
261.56202199
 20
-1862.86541479
 30
0.0
 10
11.32921374
 20
-2031.84669125
 30
0.0
  0
LWPOLYLINE
  5
2DB
  8
0
 62
0
370
-1
  6
BYLAYER
100
AcDbEntity
100
AcDbPolyline
 90
2
 70
0
 43
0.01
 10
11.32921374
 20
-2031.84669125
 30
0.0
 10
-260.39093115
 20
-2168.14761117
 30
0.0
  0
LWPOLYLINE
  5
2DC
  8
0
 62
0
370
-1
  6
BYLAYER
100
AcDbEntity
100
AcDbPolyline
 90
2
 70
0
 43
0.01
 10
-260.39093115
 20
-2168.14761117
 30
0.0
 10
-550.80015769
 20
-2268.96991853
 30
0.0
  0
LWPOLYLINE
  5
2DD
  8
0
 62
0
370
-1
  6
BYLAYER
100
AcDbEntity
100
AcDbPolyline
 90
2
 70
0
 43
0.01
 10
-550.80015769
 20
-2268.96991853
 30
0.0
 10
-857.1002109
 20
-2331.51535734
 30
0.0
  0
LWPOLYLINE
  5
2DE
  8
0
 62
0
370
-1
  6
BYLAYER
100
AcDbEntity
100
AcDbPolyline
 90
2
 70
0
 43
0.01
 10
-857.1002109
 20
-2331.51535734
 30
0.0
 10
-1176.49283581
 20
-2352.98567162
 30
0.0
  0
LWPOLYLINE
  5
2DF
  8
0
 62
0
370
-1
  6
BYLAYER
100
AcDbEntity
100
AcDbPolyline
 90
2
 70
0
 43
0.01
 10
-1176.49283581
 20
-2352.98567162
 30
0.0
 10
-1176.49283581
 20
-2156.90352236
 30
0.0
  0
LWPOLYLINE
  5
2E0
  8
0
 62
0
370
-1
  6
BYLAYER
100
AcDbEntity
100
AcDbPolyline
 90
2
 70
0
 43
0.01
 10
-1176.49283581
 20
-2156.90352236
 30
0.0
 10
-1176.49283581
 20
-1960.82137038
 30
0.0
  0
LWPOLYLINE
  5
2E1
  8
0
 62
0
370
-1
  6
BYLAYER
100
AcDbEntity
100
AcDbPolyline
 90
2
 70
0
 43
0.01
 10
-1176.49283581
 20
-1960.82137038
 30
0.0
 10
-1176.49283581
 20
-1764.73921705
 30
0.0
  0
LWPOLYLINE
  5
2E2
  8
0
 62
0
370
-1
  6
BYLAYER
100
AcDbEntity
100
AcDbPolyline
 90
2
 70
0
 43
0.01
 10
-1176.49283581
 20
-1764.73921705
 30
0.0
 10
-1176.49283581
 20
-1568.65706371
 30
0.0
  0
LWPOLYLINE
  5
2E3
  8
0
 62
0
370
-1
  6
BYLAYER
100
AcDbEntity
100
AcDbPolyline
 90
2
 70
0
 43
0.01
 10
-1176.49283581
 20
-1568.65706371
 30
0.0
 10
-1176.49283581
 20
-1372.57491174
 30
0.0
  0
LWPOLYLINE
  5
2E4
  8
0
 62
0
370
-1
  6
BYLAYER
100
AcDbEntity
100
AcDbPolyline
 90
2
 70
0
 43
0.01
 10
-1176.49283581
 20
-1372.57491174
 30
0.0
 10
-1176.49283581
 20
-1176.49276248
 30
0.0
  0
LWPOLYLINE
  5
2E5
  8
0
 62
0
370
-1
  6
BYLAYER
100
AcDbEntity
100
AcDbPolyline
 90
2
 70
0
 43
0.01
 10
-1176.49283581
 20
-1176.49276248
 30
0.0
 10
-1176.49283581
 20
-980.41061729
 30
0.0
  0
LWPOLYLINE
  5
2E6
  8
0
 62
0
370
-1
  6
BYLAYER
100
AcDbEntity
100
AcDbPolyline
 90
2
 70
0
 43
0.01
 10
-1176.49283581
 20
-980.41061729
 30
0.0
 10
-1176.49283581
 20
-784.32847754
 30
0.0
  0
LWPOLYLINE
  5
2E7
  8
0
 62
0
370
-1
  6
BYLAYER
100
AcDbEntity
100
AcDbPolyline
 90
2
 70
0
 43
0.01
 10
-1176.49283581
 20
-784.32847754
 30
0.0
 10
-1176.49283581
 20
-588.24634457
 30
0.0
  0
LWPOLYLINE
  5
2E8
  8
0
 62
0
370
-1
  6
BYLAYER
100
AcDbEntity
100
AcDbPolyline
 90
2
 70
0
 43
0.01
 10
-1176.49283581
 20
-588.24634457
 30
0.0
 10
-1176.49283581
 20
-392.16421976
 30
0.0
  0
LWPOLYLINE
  5
2E9
  8
0
 62
0
370
-1
  6
BYLAYER
100
AcDbEntity
100
AcDbPolyline
 90
2
 70
0
 43
0.01
 10
-1176.49283581
 20
-392.16421976
 30
0.0
 10
-1176.49283581
 20
-196.08210445
 30
0.0
  0
LWPOLYLINE
  5
2EA
  8
0
 62
0
370
-1
  6
BYLAYER
100
AcDbEntity
100
AcDbPolyline
 90
2
 70
0
 43
0.01
 10
-1176.49283581
 20
-196.08210445
 30
0.0
 10
-1176.49283581
 20
-0.0
 30
0.0
  0
ENDBLK
  5
2EB
100
AcDbEntity
  8
0
100
AcDbBlockEnd
  0
BLOCK
  5
2EC
100
AcDbEntity
  8
0
100
AcDbBlockBegin
  2
W-2-0
 70
0
 10
0.0
 20
0.0
 30
0.0
  3
W-2-0
  1

  0
LWPOLYLINE
  5
2ED
  8
0
 62
0
370
-1
  6
BYLAYER
100
AcDbEntity
100
AcDbPolyline
 90
2
 70
0
 43
0.01
 10
1235.94162506
 20
-0.0
 30
0.0
 10
1235.94162506
 20
-0.0
 30
0.0
  0
LWPOLYLINE
  5
2EE
  8
0
 62
0
370
-1
  6
BYLAYER
100
AcDbEntity
100
AcDbPolyline
 90
2
 70
0
 43
0.01
 10
1235.94162506
 20
-0.0
 30
0.0
 10
1213.38640548
 20
-335.53170587
 30
0.0
  0
LWPOLYLINE
  5
2EF
  8
0
 62
0
370
-1
  6
BYLAYER
100
AcDbEntity
100
AcDbPolyline
 90
2
 70
0
 43
0.01
 10
1213.38640548
 20
-335.53170587
 30
0.0
 10
1147.68051534
 20
-657.3092632
 30
0.0
  0
LWPOLYLINE
  5
2F0
  8
0
 62
0
370
-1
  6
BYLAYER
100
AcDbEntity
100
AcDbPolyline
 90
2
 70
0
 43
0.01
 10
1147.68051534
 20
-657.3092632
 30
0.0
 10
1041.76360757
 20
-962.39302011
 30
0.0
  0
LWPOLYLINE
  5
2F1
  8
0
 62
0
370
-1
  6
BYLAYER
100
AcDbEntity
100
AcDbPolyline
 90
2
 70
0
 43
0.01
 10
1041.76360757
 20
-962.39302011
 30
0.0
 10
898.57533508
 20
-1247.8433247
 30
0.0
  0
LWPOLYLINE
  5
2F2
  8
0
 62
0
370
-1
  6
BYLAYER
100
AcDbEntity
100
AcDbPolyline
 90
2
 70
0
 43
0.01
 10
898.57533508
 20
-1247.8433247
 30
0.0
 10
721.05535078
 20
-1510.72052506
 30
0.0
  0
LWPOLYLINE
  5
2F3
  8
0
 62
0
370
-1
  6
BYLAYER
100
AcDbEntity
100
AcDbPolyline
 90
2
 70
0
 43
0.01
 10
721.05535078
 20
-1510.72052506
 30
0.0
 10
512.14330758
 20
-1748.08496931
 30
0.0
  0
LWPOLYLINE
  5
2F4
  8
0
 62
0
370
-1
  6
BYLAYER
100
AcDbEntity
100
AcDbPolyline
 90
2
 70
0
 43
0.01
 10
512.14330758
 20
-1748.08496931
 30
0.0
 10
274.77885841
 20
-1956.99700554
 30
0.0
  0
LWPOLYLINE
  5
2F5
  8
0
 62
0
370
-1
  6
BYLAYER
100
AcDbEntity
100
AcDbPolyline
 90
2
 70
0
 43
0.01
 10
274.77885841
 20
-1956.99700554
 30
0.0
 10
11.90165618
 20
-2134.51698187
 30
0.0
  0
LWPOLYLINE
  5
2F6
  8
0
 62
0
370
-1
  6
BYLAYER
100
AcDbEntity
100
AcDbPolyline
 90
2
 70
0
 43
0.01
 10
11.90165618
 20
-2134.51698187
 30
0.0
 10
-273.5486462
 20
-2277.70524638
 30
0.0
  0
LWPOLYLINE
  5
2F7
  8
0
 62
0
370
-1
  6
BYLAYER
100
AcDbEntity
100
AcDbPolyline
 90
2
 70
0
 43
0.01
 10
-273.5486462
 20
-2277.70524638
 30
0.0
 10
-578.63239581
 20
-2383.62214719
 30
0.0
  0
LWPOLYLINE
  5
2F8
  8
0
 62
0
370
-1
  6
BYLAYER
100
AcDbEntity
100
AcDbPolyline
 90
2
 70
0
 43
0.01
 10
-578.63239581
 20
-2383.62214719
 30
0.0
 10
-900.40993973
 20
-2449.32803241
 30
0.0
  0
LWPOLYLINE
  5
2F9
  8
0
 62
0
370
-1
  6
BYLAYER
100
AcDbEntity
100
AcDbPolyline
 90
2
 70
0
 43
0.01
 10
-900.40993973
 20
-2449.32803241
 30
0.0
 10
-1235.94162506
 20
-2471.88325012
 30
0.0
  0
LWPOLYLINE
  5
2FA
  8
0
 62
0
370
-1
  6
BYLAYER
100
AcDbEntity
100
AcDbPolyline
 90
2
 70
0
 43
0.01
 10
-1235.94162506
 20
-2471.88325012
 30
0.0
 10
-1235.94162506
 20
-2265.89299982
 30
0.0
  0
LWPOLYLINE
  5
2FB
  8
0
 62
0
370
-1
  6
BYLAYER
100
AcDbEntity
100
AcDbPolyline
 90
2
 70
0
 43
0.01
 10
-1235.94162506
 20
-2265.89299982
 30
0.0
 10
-1235.94162506
 20
-2059.90274238
 30
0.0
  0
LWPOLYLINE
  5
2FC
  8
0
 62
0
370
-1
  6
BYLAYER
100
AcDbEntity
100
AcDbPolyline
 90
2
 70
0
 43
0.01
 10
-1235.94162506
 20
-2059.90274238
 30
0.0
 10
-1235.94162506
 20
-1853.91247884
 30
0.0
  0
LWPOLYLINE
  5
2FD
  8
0
 62
0
370
-1
  6
BYLAYER
100
AcDbEntity
100
AcDbPolyline
 90
2
 70
0
 43
0.01
 10
-1235.94162506
 20
-1853.91247884
 30
0.0
 10
-1235.94162506
 20
-1647.9222102
 30
0.0
  0
LWPOLYLINE
  5
2FE
  8
0
 62
0
370
-1
  6
BYLAYER
100
AcDbEntity
100
AcDbPolyline
 90
2
 70
0
 43
0.01
 10
-1235.94162506
 20
-1647.9222102
 30
0.0
 10
-1235.94162506
 20
-1441.93193749
 30
0.0
  0
LWPOLYLINE
  5
2FF
  8
0
 62
0
370
-1
  6
BYLAYER
100
AcDbEntity
100
AcDbPolyline
 90
2
 70
0
 43
0.01
 10
-1235.94162506
 20
-1441.93193749
 30
0.0
 10
-1235.94162506
 20
-1235.94166173
 30
0.0
  0
LWPOLYLINE
  5
300
  8
0
 62
0
370
-1
  6
BYLAYER
100
AcDbEntity
100
AcDbPolyline
 90
2
 70
0
 43
0.01
 10
-1235.94162506
 20
-1235.94166173
 30
0.0
 10
-1235.94162506
 20
-1029.95138392
 30
0.0
  0
LWPOLYLINE
  5
301
  8
0
 62
0
370
-1
  6
BYLAYER
100
AcDbEntity
100
AcDbPolyline
 90
2
 70
0
 43
0.01
 10
-1235.94162506
 20
-1029.95138392
 30
0.0
 10
-1235.94162506
 20
-823.9611051
 30
0.0
  0
LWPOLYLINE
  5
302
  8
0
 62
0
370
-1
  6
BYLAYER
100
AcDbEntity
100
AcDbPolyline
 90
2
 70
0
 43
0.01
 10
-1235.94162506
 20
-823.9611051
 30
0.0
 10
-1235.94162506
 20
-617.97082628
 30
0.0
  0
LWPOLYLINE
  5
303
  8
0
 62
0
370
-1
  6
BYLAYER
100
AcDbEntity
100
AcDbPolyline
 90
2
 70
0
 43
0.01
 10
-1235.94162506
 20
-617.97082628
 30
0.0
 10
-1235.94162506
 20
-411.98054848
 30
0.0
  0
LWPOLYLINE
  5
304
  8
0
 62
0
370
-1
  6
BYLAYER
100
AcDbEntity
100
AcDbPolyline
 90
2
 70
0
 43
0.01
 10
-1235.94162506
 20
-411.98054848
 30
0.0
 10
-1235.94162506
 20
-205.99027271
 30
0.0
  0
LWPOLYLINE
  5
305
  8
0
 62
0
370
-1
  6
BYLAYER
100
AcDbEntity
100
AcDbPolyline
 90
2
 70
0
 43
0.01
 10
-1235.94162506
 20
-205.99027271
 30
0.0
 10
-1235.94162506
 20
-0.0
 30
0.0
  0
ENDBLK
  5
306
100
AcDbEntity
  8
0
100
AcDbBlockEnd
  0
BLOCK
  5
307
100
AcDbEntity
  8
0
100
AcDbBlockBegin
  2
W-2-1
 70
0
 10
0.0
 20
0.0
 30
0.0
  3
W-2-1
  1

  0
LWPOLYLINE
  5
308
  8
0
 62
0
370
-1
  6
BYLAYER
100
AcDbEntity
100
AcDbPolyline
 90
2
 70
0
 43
0.01
 10
1210.89242091
 20
-0.0
 30
0.0
 10
1210.89242091
 20
-0.0
 30
0.0
  0
LWPOLYLINE
  5
309
  8
0
 62
0
370
-1
  6
BYLAYER
100
AcDbEntity
100
AcDbPolyline
 90
2
 70
0
 43
0.01
 10
1210.89242091
 20
-0.0
 30
0.0
 10
1188.79433619
 20
-328.73137795
 30
0.0
  0
LWPOLYLINE
  5
30A
  8
0
 62
0
370
-1
  6
BYLAYER
100
AcDbEntity
100
AcDbPolyline
 90
2
 70
0
 43
0.01
 10
1188.79433619
 20
-328.73137795
 30
0.0
 10
1124.42013091
 20
-643.9873686
 30
0.0
  0
LWPOLYLINE
  5
30B
  8
0
 62
0
370
-1
  6
BYLAYER
100
AcDbEntity
100
AcDbPolyline
 90
2
 70
0
 43
0.01
 10
1124.42013091
 20
-643.9873686
 30
0.0
 10
1020.6498784
 20
-942.88789862
 30
0.0
  0
LWPOLYLINE
  5
30C
  8
0
 62
0
370
-1
  6
BYLAYER
100
AcDbEntity
100
AcDbPolyline
 90
2
 70
0
 43
0.01
 10
1020.6498784
 20
-942.88789862
 30
0.0
 10
880.36365199
 20
-1222.55289469
 30
0.0
  0
LWPOLYLINE
  5
30D
  8
0
 62
0
370
-1
  6
BYLAYER
100
AcDbEntity
100
AcDbPolyline
 90
2
 70
0
 43
0.01
 10
880.36365199
 20
-1222.55289469
 30
0.0
 10
706.441525
 20
-1480.10228347
 30
0.0
  0
LWPOLYLINE
  5
30E
  8
0
 62
0
370
-1
  6
BYLAYER
100
AcDbEntity
100
AcDbPolyline
 90
2
 70
0
 43
0.01
 10
706.441525
 20
-1480.10228347
 30
0.0
 10
501.76357075
 20
-1712.65599165
 30
0.0
  0
LWPOLYLINE
  5
30F
  8
0
 62
0
370
-1
  6
BYLAYER
100
AcDbEntity
100
AcDbPolyline
 90
2
 70
0
 43
0.01
 10
501.76357075
 20
-1712.65599165
 30
0.0
 10
269.20986257
 20
-1917.3339459
 30
0.0
  0
LWPOLYLINE
  5
310
  8
0
 62
0
370
-1
  6
BYLAYER
100
AcDbEntity
100
AcDbPolyline
 90
2
 70
0
 43
0.01
 10
269.20986257
 20
-1917.3339459
 30
0.0
 10
11.66047378
 20
-2091.2560729
 30
0.0
  0
LWPOLYLINE
  5
311
  8
0
 62
0
370
-1
  6
BYLAYER
100
AcDbEntity
100
AcDbPolyline
 90
2
 70
0
 43
0.01
 10
11.66047378
 20
-2091.2560729
 30
0.0
 10
-268.00452228
 20
-2231.54229931
 30
0.0
  0
LWPOLYLINE
  5
312
  8
0
 62
0
370
-1
  6
BYLAYER
100
AcDbEntity
100
AcDbPolyline
 90
2
 70
0
 43
0.01
 10
-268.00452228
 20
-2231.54229931
 30
0.0
 10
-566.9050523
 20
-2335.31255182
 30
0.0
  0
LWPOLYLINE
  5
313
  8
0
 62
0
370
-1
  6
BYLAYER
100
AcDbEntity
100
AcDbPolyline
 90
2
 70
0
 43
0.01
 10
-566.9050523
 20
-2335.31255182
 30
0.0
 10
-882.16104295
 20
-2399.68675709
 30
0.0
  0
LWPOLYLINE
  5
314
  8
0
 62
0
370
-1
  6
BYLAYER
100
AcDbEntity
100
AcDbPolyline
 90
2
 70
0
 43
0.01
 10
-882.16104295
 20
-2399.68675709
 30
0.0
 10
-1210.89242091
 20
-2421.78484181
 30
0.0
  0
LWPOLYLINE
  5
315
  8
0
 62
0
370
-1
  6
BYLAYER
100
AcDbEntity
100
AcDbPolyline
 90
2
 70
0
 43
0.01
 10
-1210.89242091
 20
-2421.78484181
 30
0.0
 10
-1210.89242091
 20
-2219.96943646
 30
0.0
  0
LWPOLYLINE
  5
316
  8
0
 62
0
370
-1
  6
BYLAYER
100
AcDbEntity
100
AcDbPolyline
 90
2
 70
0
 43
0.01
 10
-1210.89242091
 20
-2219.96943646
 30
0.0
 10
-1210.89242091
 20
-2018.15402805
 30
0.0
  0
LWPOLYLINE
  5
317
  8
0
 62
0
370
-1
  6
BYLAYER
100
AcDbEntity
100
AcDbPolyline
 90
2
 70
0
 43
0.01
 10
-1210.89242091
 20
-2018.15402805
 30
0.0
 10
-1210.89242091
 20
-1816.33861761
 30
0.0
  0
LWPOLYLINE
  5
318
  8
0
 62
0
370
-1
  6
BYLAYER
100
AcDbEntity
100
AcDbPolyline
 90
2
 70
0
 43
0.01
 10
-1210.89242091
 20
-1816.33861761
 30
0.0
 10
-1210.89242091
 20
-1614.52320615
 30
0.0
  0
LWPOLYLINE
  5
319
  8
0
 62
0
370
-1
  6
BYLAYER
100
AcDbEntity
100
AcDbPolyline
 90
2
 70
0
 43
0.01
 10
-1210.89242091
 20
-1614.52320615
 30
0.0
 10
-1210.89242091
 20
-1412.70779468
 30
0.0
  0
LWPOLYLINE
  5
31A
  8
0
 62
0
370
-1
  6
BYLAYER
100
AcDbEntity
100
AcDbPolyline
 90
2
 70
0
 43
0.01
 10
-1210.89242091
 20
-1412.70779468
 30
0.0
 10
-1210.89242091
 20
-1210.89238424
 30
0.0
  0
LWPOLYLINE
  5
31B
  8
0
 62
0
370
-1
  6
BYLAYER
100
AcDbEntity
100
AcDbPolyline
 90
2
 70
0
 43
0.01
 10
-1210.89242091
 20
-1210.89238424
 30
0.0
 10
-1210.89242091
 20
-1009.07697583
 30
0.0
  0
LWPOLYLINE
  5
31C
  8
0
 62
0
370
-1
  6
BYLAYER
100
AcDbEntity
100
AcDbPolyline
 90
2
 70
0
 43
0.01
 10
-1210.89242091
 20
-1009.07697583
 30
0.0
 10
-1210.89242091
 20
-807.26157048
 30
0.0
  0
LWPOLYLINE
  5
31D
  8
0
 62
0
370
-1
  6
BYLAYER
100
AcDbEntity
100
AcDbPolyline
 90
2
 70
0
 43
0.01
 10
-1210.89242091
 20
-807.26157048
 30
0.0
 10
-1210.89242091
 20
-605.4461692
 30
0.0
  0
LWPOLYLINE
  5
31E
  8
0
 62
0
370
-1
  6
BYLAYER
100
AcDbEntity
100
AcDbPolyline
 90
2
 70
0
 43
0.01
 10
-1210.89242091
 20
-605.4461692
 30
0.0
 10
-1210.89242091
 20
-403.63077302
 30
0.0
  0
LWPOLYLINE
  5
31F
  8
0
 62
0
370
-1
  6
BYLAYER
100
AcDbEntity
100
AcDbPolyline
 90
2
 70
0
 43
0.01
 10
-1210.89242091
 20
-403.63077302
 30
0.0
 10
-1210.89242091
 20
-201.81538294
 30
0.0
  0
LWPOLYLINE
  5
320
  8
0
 62
0
370
-1
  6
BYLAYER
100
AcDbEntity
100
AcDbPolyline
 90
2
 70
0
 43
0.01
 10
-1210.89242091
 20
-201.81538294
 30
0.0
 10
-1210.89242091
 20
-0.0
 30
0.0
  0
ENDBLK
  5
321
100
AcDbEntity
  8
0
100
AcDbBlockEnd
  0
BLOCK
  5
322
100
AcDbEntity
  8
0
100
AcDbBlockBegin
  2
W-3-0
 70
0
 10
0.0
 20
0.0
 30
0.0
  3
W-3-0
  1

  0
LWPOLYLINE
  5
323
  8
0
 62
0
370
-1
  6
BYLAYER
100
AcDbEntity
100
AcDbPolyline
 90
2
 70
0
 43
0.01
 10
1334.77690184
 20
-0.0
 30
0.0
 10
1334.77690184
 20
-0.0
 30
0.0
  0
LWPOLYLINE
  5
324
  8
0
 62
0
370
-1
  6
BYLAYER
100
AcDbEntity
100
AcDbPolyline
 90
2
 70
0
 43
0.01
 10
1334.77690184
 20
-0.0
 30
0.0
 10
1310.41799596
 20
-362.3633501
 30
0.0
  0
LWPOLYLINE
  5
325
  8
0
 62
0
370
-1
  6
BYLAYER
100
AcDbEntity
100
AcDbPolyline
 90
2
 70
0
 43
0.01
 10
1310.41799596
 20
-362.3633501
 30
0.0
 10
1239.4577648
 20
-709.87267198
 30
0.0
  0
LWPOLYLINE
  5
326
  8
0
 62
0
370
-1
  6
BYLAYER
100
AcDbEntity
100
AcDbPolyline
 90
2
 70
0
 43
0.01
 10
1239.4577648
 20
-709.87267198
 30
0.0
 10
1125.07093806
 20
-1039.35323595
 30
0.0
  0
LWPOLYLINE
  5
327
  8
0
 62
0
370
-1
  6
BYLAYER
100
AcDbEntity
100
AcDbPolyline
 90
2
 70
0
 43
0.01
 10
1125.07093806
 20
-1039.35323595
 30
0.0
 10
970.43224545
 20
-1347.6303123
 30
0.0
  0
LWPOLYLINE
  5
328
  8
0
 62
0
370
-1
  6
BYLAYER
100
AcDbEntity
100
AcDbPolyline
 90
2
 70
0
 43
0.01
 10
970.43224545
 20
-1347.6303123
 30
0.0
 10
778.71641668
 20
-1631.52917131
 30
0.0
  0
LWPOLYLINE
  5
329
  8
0
 62
0
370
-1
  6
BYLAYER
100
AcDbEntity
100
AcDbPolyline
 90
2
 70
0
 43
0.01
 10
778.71641668
 20
-1631.52917131
 30
0.0
 10
553.09818145
 20
-1887.87508329
 30
0.0
  0
LWPOLYLINE
  5
32A
  8
0
 62
0
370
-1
  6
BYLAYER
100
AcDbEntity
100
AcDbPolyline
 90
2
 70
0
 43
0.01
 10
553.09818145
 20
-1887.87508329
 30
0.0
 10
296.75226948
 20
-2113.49331851
 30
0.0
  0
LWPOLYLINE
  5
32B
  8
0
 62
0
370
-1
  6
BYLAYER
100
AcDbEntity
100
AcDbPolyline
 90
2
 70
0
 43
0.01
 10
296.75226948
 20
-2113.49331851
 30
0.0
 10
12.85341046
 20
-2305.20914729
 30
0.0
  0
LWPOLYLINE
  5
32C
  8
0
 62
0
370
-1
  6
BYLAYER
100
AcDbEntity
100
AcDbPolyline
 90
2
 70
0
 43
0.01
 10
12.85341046
 20
-2305.20914729
 30
0.0
 10
-295.42366588
 20
-2459.8478399
 30
0.0
  0
LWPOLYLINE
  5
32D
  8
0
 62
0
370
-1
  6
BYLAYER
100
AcDbEntity
100
AcDbPolyline
 90
2
 70
0
 43
0.01
 10
-295.42366588
 20
-2459.8478399
 30
0.0
 10
-624.90422985
 20
-2574.23466664
 30
0.0
  0
LWPOLYLINE
  5
32E
  8
0
 62
0
370
-1
  6
BYLAYER
100
AcDbEntity
100
AcDbPolyline
 90
2
 70
0
 43
0.01
 10
-624.90422985
 20
-2574.23466664
 30
0.0
 10
-972.41355174
 20
-2645.1948978
 30
0.0
  0
LWPOLYLINE
  5
32F
  8
0
 62
0
370
-1
  6
BYLAYER
100
AcDbEntity
100
AcDbPolyline
 90
2
 70
0
 43
0.01
 10
-972.41355174
 20
-2645.1948978
 30
0.0
 10
-1334.77690184
 20
-2669.55380368
 30
0.0
  0
LWPOLYLINE
  5
330
  8
0
 62
0
370
-1
  6
BYLAYER
100
AcDbEntity
100
AcDbPolyline
 90
2
 70
0
 43
0.01
 10
-1334.77690184
 20
-2669.55380368
 30
0.0
 10
-1334.77690184
 20
-2447.09099915
 30
0.0
  0
LWPOLYLINE
  5
331
  8
0
 62
0
370
-1
  6
BYLAYER
100
AcDbEntity
100
AcDbPolyline
 90
2
 70
0
 43
0.01
 10
-1334.77690184
 20
-2447.09099915
 30
0.0
 10
-1334.77690184
 20
-2224.62818784
 30
0.0
  0
LWPOLYLINE
  5
332
  8
0
 62
0
370
-1
  6
BYLAYER
100
AcDbEntity
100
AcDbPolyline
 90
2
 70
0
 43
0.01
 10
-1334.77690184
 20
-2224.62818784
 30
0.0
 10
-1334.77690184
 20
-2002.16537109
 30
0.0
  0
LWPOLYLINE
  5
333
  8
0
 62
0
370
-1
  6
BYLAYER
100
AcDbEntity
100
AcDbPolyline
 90
2
 70
0
 43
0.01
 10
-1334.77690184
 20
-2002.16537109
 30
0.0
 10
-1334.77690184
 20
-1779.70255027
 30
0.0
  0
LWPOLYLINE
  5
334
  8
0
 62
0
370
-1
  6
BYLAYER
100
AcDbEntity
100
AcDbPolyline
 90
2
 70
0
 43
0.01
 10
-1334.77690184
 20
-1779.70255027
 30
0.0
 10
-1334.77690184
 20
-1557.23972673
 30
0.0
  0
LWPOLYLINE
  5
335
  8
0
 62
0
370
-1
  6
BYLAYER
100
AcDbEntity
100
AcDbPolyline
 90
2
 70
0
 43
0.01
 10
-1334.77690184
 20
-1557.23972673
 30
0.0
 10
-1334.77690184
 20
-1334.77690184
 30
0.0
  0
LWPOLYLINE
  5
336
  8
0
 62
0
370
-1
  6
BYLAYER
100
AcDbEntity
100
AcDbPolyline
 90
2
 70
0
 43
0.01
 10
-1334.77690184
 20
-1334.77690184
 30
0.0
 10
-1334.77690184
 20
-1112.31407694
 30
0.0
  0
LWPOLYLINE
  5
337
  8
0
 62
0
370
-1
  6
BYLAYER
100
AcDbEntity
100
AcDbPolyline
 90
2
 70
0
 43
0.01
 10
-1334.77690184
 20
-1112.31407694
 30
0.0
 10
-1334.77690184
 20
-889.85125341
 30
0.0
  0
LWPOLYLINE
  5
338
  8
0
 62
0
370
-1
  6
BYLAYER
100
AcDbEntity
100
AcDbPolyline
 90
2
 70
0
 43
0.01
 10
-1334.77690184
 20
-889.85125341
 30
0.0
 10
-1334.77690184
 20
-667.38843259
 30
0.0
  0
LWPOLYLINE
  5
339
  8
0
 62
0
370
-1
  6
BYLAYER
100
AcDbEntity
100
AcDbPolyline
 90
2
 70
0
 43
0.01
 10
-1334.77690184
 20
-667.38843259
 30
0.0
 10
-1334.77690184
 20
-444.92561584
 30
0.0
  0
LWPOLYLINE
  5
33A
  8
0
 62
0
370
-1
  6
BYLAYER
100
AcDbEntity
100
AcDbPolyline
 90
2
 70
0
 43
0.01
 10
-1334.77690184
 20
-444.92561584
 30
0.0
 10
-1334.77690184
 20
-222.46280452
 30
0.0
  0
LWPOLYLINE
  5
33B
  8
0
 62
0
370
-1
  6
BYLAYER
100
AcDbEntity
100
AcDbPolyline
 90
2
 70
0
 43
0.01
 10
-1334.77690184
 20
-222.46280452
 30
0.0
 10
-1334.77690184
 20
-0.0
 30
0.0
  0
ENDBLK
  5
33C
100
AcDbEntity
  8
0
100
AcDbBlockEnd
  0
ENDSEC
  0
SECTION
  2
ENTITIES
  0
LWPOLYLINE
  5
33D
  8
walls
 62
256
370
-1
  6
BYLAYER
100
AcDbEntity
100
AcDbPolyline
 90
8
 70
1
 10
5.93832021
 20
-7.48687664
 30
0.0
 10
11.82086614
 20
-7.48687664
 30
0.0
 10
11.82086614
 20
-8.30708661
 30
0.0
 10
5.11811024
 20
-8.30708661
 30
0.0
 10
5.11811024
 20
-2.64107612
 30
0.0
 10
5.34448819
 20
-2.64107612
 30
0.0
 10
5.34448819
 20
-1.42716535
 30
0.0
 10
5.93832021
 20
-1.42716535
 30
0.0
  0
LWPOLYLINE
  5
33E
  8
walls
 62
256
370
-1
  6
BYLAYER
100
AcDbEntity
100
AcDbPolyline
 90
11
 70
1
 10
19.01246719
 20
6.06627297
 30
0.0
 10
19.02230971
 20
6.15485564
 30
0.0
 10
21.60761155
 20
6.15485564
 30
0.0
 10
21.60761155
 20
5.33464567
 30
0.0
 10
18.59908136
 20
5.33464567
 30
0.0
 10
18.59908136
 20
-8.30708661
 30
0.0
 10
16.9160105
 20
-8.30708661
 30
0.0
 10
16.9160105
 20
-7.48687664
 30
0.0
 10
17.77887139
 20
-7.48687664
 30
0.0
 10
17.77887139
 20
5.94816273
 30
0.0
 10
17.80511811
 20
6.19750656
 30
0.0
  0
LWPOLYLINE
  5
33F
  8
walls
 62
256
370
-1
  6
BYLAYER
100
AcDbEntity
100
AcDbPolyline
 90
12
 70
1
 10
1.37467192
 20
6.58792651
 30
0.0
 10
1.77493438
 20
6.58792651
 30
0.0
 10
1.77493438
 20
6.04330709
 30
0.0
 10
-0.55774278
 20
6.04330709
 30
0.0
 10
-0.55774278
 20
-1.42716535
 30
0.0
 10
2.29658793
 20
-1.42716535
 30
0.0
 10
2.29658793
 20
-2.24737533
 30
0.0
 10
-2.33267717
 20
-2.24737533
 30
0.0
 10
-2.33267717
 20
-1.41404199
 30
0.0
 10
-0.95144357
 20
-1.41404199
 30
0.0
 10
-0.94816273
 20
6.44356955
 30
0.0
 10
-0.94816273
 20
6.59120735
 30
0.0
  0
LWPOLYLINE
  5
340
  8
walls
 62
256
370
-1
  6
BYLAYER
100
AcDbEntity
100
AcDbPolyline
 90
13
 70
1
 10
-7.51968504
 20
10.95472441
 30
0.0
 10
-7.16535433
 20
10.95472441
 30
0.0
 10
-7.16863517
 20
10.58070866
 30
0.0
 10
-7.71653543
 20
10.5839895
 30
0.0
 10
-11.96194226
 20
10.54461942
 30
0.0
 10
-11.96194226
 20
-1.41404199
 30
0.0
 10
-7.56233596
 20
-1.41404199
 30
0.0
 10
-7.56233596
 20
-2.23425197
 30
0.0
 10
-12.78215223
 20
-2.23425197
 30
0.0
 10
-12.78215223
 20
11.35498688
 30
0.0
 10
-8.33989501
 20
11.3976378
 30
0.0
 10
-8.33989501
 20
13.75656168
 30
0.0
 10
-7.51968504
 20
13.75656168
 30
0.0
  0
LWPOLYLINE
  5
341
  8
walls
 62
256
370
-1
  6
BYLAYER
100
AcDbEntity
100
AcDbPolyline
 90
8
 70
1
 10
25.33792651
 20
5.33464567
 30
0.0
 10
24.03215223
 20
5.33464567
 30
0.0
 10
24.03215223
 20
6.15485564
 30
0.0
 10
24.51771654
 20
6.15485564
 30
0.0
 10
24.51771654
 20
9.51115486
 30
0.0
 10
23.93372703
 20
9.51115486
 30
0.0
 10
23.93372703
 20
10.33136483
 30
0.0
 10
25.33792651
 20
10.33136483
 30
0.0
  0
LWPOLYLINE
  5
342
  8
walls
 62
256
370
-1
  6
BYLAYER
100
AcDbEntity
100
AcDbPolyline
 90
26
 70
1
 10
2.20800525
 20
11.2992126
 30
0.0
 10
4.05511811
 20
11.30249344
 30
0.0
 10
4.05839895
 20
13.64501312
 30
0.0
 10
4.87532808
 20
13.64173228
 30
0.0
 10
4.87204724
 20
10.48228346
 30
0.0
 10
1.77493438
 20
10.47572178
 30
0.0
 10
1.77493438
 20
9.3011811
 30
0.0
 10
1.3812336
 20
9.3011811
 30
0.0
 10
1.38451444
 20
10.53805774
 30
0.0
 10
-4.81627297
 20
10.57086614
 30
0.0
 10
-4.81299213
 20
10.95472441
 30
0.0
 10
-4.35695538
 20
10.95472441
 30
0.0
 10
-4.35695538
 20
13.86811024
 30
0.0
 10
-3.95997375
 20
13.86811024
 30
0.0
 10
-3.95997375
 20
10.95472441
 30
0.0
 10
1.38779528
 20
10.95472441
 30
0.0
 10
1.38779528
 20
19.23228346
 30
0.0
 10
-1.41404199
 20
19.23228346
 30
0.0
 10
-1.41404199
 20
17.28018373
 30
0.0
 10
-1.81102362
 20
17.28018373
 30
0.0
 10
-1.81102362
 20
19.23228346
 30
0.0
 10
-7.51968504
 20
19.23228346
 30
0.0
 10
-7.51968504
 20
16.42716535
 30
0.0
 10
-8.33989501
 20
16.42716535
 30
0.0
 10
-8.33989501
 20
20.05249344
 30
0.0
 10
2.20800525
 20
20.05249344
 30
0.0
  0
LWPOLYLINE
  5
343
  8
walls
 62
256
370
-1
  6
BYLAYER
100
AcDbEntity
100
AcDbPolyline
 90
8
 70
1
 10
19.00262467
 20
10.33136483
 30
0.0
 10
21.46325459
 20
10.33136483
 30
0.0
 10
21.46325459
 20
9.51115486
 30
0.0
 10
18.56299213
 20
9.51115486
 30
0.0
 10
18.16929134
 20
9.55380577
 30
0.0
 10
18.1824147
 20
9.68832021
 30
0.0
 10
18.1824147
 20
12.93635171
 30
0.0
 10
19.00262467
 20
12.93635171
 30
0.0
  0
LWPOLYLINE
  5
344
  8
walls
 62
256
370
-1
  6
BYLAYER
100
AcDbEntity
100
AcDbPolyline
 90
8
 70
1
 10
24.45538058
 20
14.56692913
 30
0.0
 10
19.39632546
 20
14.56692913
 30
0.0
 10
19.39632546
 20
15.02952756
 30
0.0
 10
18.1824147
 20
15.02952756
 30
0.0
 10
18.1824147
 20
15.38713911
 30
0.0
 10
23.6351706
 20
15.38713911
 30
0.0
 10
23.6351706
 20
16.73228346
 30
0.0
 10
24.45538058
 20
16.73228346
 30
0.0
  0
LWPOLYLINE
  5
345
  8
walls
 62
256
370
-1
  6
BYLAYER
100
AcDbEntity
100
AcDbPolyline
 90
14
 70
1
 10
20.46259843
 20
20.46587927
 30
0.0
 10
20.22309711
 20
20.46587927
 30
0.0
 10
19.69488189
 20
19.15682415
 30
0.0
 10
14.28149606
 20
19.16010499
 30
0.0
 10
14.27821522
 20
15.39370079
 30
0.0
 10
13.8812336
 20
15.39370079
 30
0.0
 10
13.88451444
 20
19.16010499
 30
0.0
 10
4.8851706
 20
19.16338583
 30
0.0
 10
4.88188976
 20
16.58136483
 30
0.0
 10
4.06167979
 20
16.58136483
 30
0.0
 10
4.06496063
 20
19.9835958
 30
0.0
 10
19.14370079
 20
19.97703412
 30
0.0
 10
19.67191601
 20
21.28608924
 30
0.0
 10
20.46259843
 20
21.28608924
 30
0.0
  0
LWPOLYLINE
  5
346
  8
walls
 62
256
370
-1
  6
BYLAYER
100
AcDbEntity
100
AcDbPolyline
 90
6
 70
1
 10
24.45538058
 20
19.70800525
 30
0.0
 10
23.6351706
 20
19.70800525
 30
0.0
 10
23.6351706
 20
20.46587927
 30
0.0
 10
23.12335958
 20
20.46587927
 30
0.0
 10
23.12335958
 20
21.28608924
 30
0.0
 10
24.45538058
 20
21.28608924
 30
0.0
  0
TEXT
  5
347
100
AcDbEntity
100
AcDbText
  8
texts
 62
256
370
-1
  6
BYLAYER
 10
8.94415942
 20
7.568865
 30
0.0
 40
0.65616798
  1
\U+0042\U+0065\U+0064\U+0072\U+006f\U+006f\U+006d
 50
0.0
 41
1.0
  7
STANDARD
 71
0
 72
1
 11
9.94415942
 21
7.568865
 31
0.0
100
AcDbText
 73
2
  0
INSERT
  5
348
100
AcDbEntity
100
AcDbBlockReference
  8
doors
 62
256
370
-1
  6
BYLAYER
  2
W-0-0
 10
18.18317765
 20
7.85574053
 30
0.0
 41
0.001
 42
0.001
 43
1.0
 50
-96.17486431
 70
0
 71
0
  0
INSERT
  5
349
100
AcDbEntity
100
AcDbBlockReference
  8
windows
 62
256
370
-1
  6
BYLAYER
  2
W-0-7
 10
14.36990139
 20
-7.68614524
 30
0.0
 41
0.001
 42
0.001
 43
1.0
 50
179.99984123
 70
0
 71
0
  0
INSERT
  5
34A
100
AcDbEntity
100
AcDbBlockReference
  8
doors
 62
256
370
-1
  6
BYLAYER
  2
W-0-6
 10
3.82108194
 20
-1.62706676
 30
0.0
 41
0.001
 42
0.001
 43
1.0
 50
-180.0
 70
0
 71
0
  0
INSERT
  5
34B
100
AcDbEntity
100
AcDbBlockReference
  8
doors
 62
256
370
-1
  6
BYLAYER
  2
W-0-3
 10
1.57875353
 20
7.9453159
 30
0.0
 41
0.001
 42
0.001
 43
1.0
 50
89.9995761
 70
0
 71
0
  0
INSERT
  5
34C
100
AcDbEntity
100
AcDbBlockReference
  8
doors
 62
256
370
-1
  6
BYLAYER
  2
W-0-2
 10
4.68431153
 20
15.11355822
 30
0.0
 41
0.001
 42
0.001
 43
1.0
 50
89.92618062
 70
0
 71
0
  0
INSERT
  5
34D
100
AcDbEntity
100
AcDbBlockReference
  8
doors
 62
256
370
-1
  6
BYLAYER
  2
W-0-4
 10
21.79491729
 20
20.66594505
 30
0.0
 41
0.001
 42
0.001
 43
1.0
 70
0
 71
0
  0
INSERT
  5
34E
100
AcDbEntity
100
AcDbBlockReference
  8
doors
 62
256
370
-1
  6
BYLAYER
  2
W-0-1
 10
23.83412005
 20
18.22174479
 30
0.0
 41
0.001
 42
0.001
 43
1.0
 50
-90.0
 70
0
 71
0
  0
INSERT
  5
34F
100
AcDbEntity
100
AcDbBlockReference
  8
doors
 62
256
370
-1
  6
BYLAYER
  2
W-0-5
 10
18.38034708
 20
13.98378316
 30
0.0
 41
0.001
 42
0.001
 43
1.0
 50
-90.0
 70
0
 71
0
  0
TEXT
  5
350
100
AcDbEntity
100
AcDbText
  8
texts
 62
256
370
-1
  6
BYLAYER
 10
-8.67631249
 20
5.23677828
 30
0.0
 40
0.65616798
  1
\U+0042\U+0065\U+0064\U+0072\U+006f\U+006f\U+006d
 50
0.0
 41
1.0
  7
STANDARD
 71
0
 72
1
 11
-7.67631249
 21
5.23677828
 31
0.0
100
AcDbText
 73
2
  0
INSERT
  5
351
100
AcDbEntity
100
AcDbBlockReference
  8
windows
 62
256
370
-1
  6
BYLAYER
  2
W-1-1
 10
-4.94774117
 20
-1.61230468
 30
0.0
 41
0.001
 42
0.001
 43
1.0
 50
179.9906103
 70
0
 71
0
  0
INSERT
  5
352
100
AcDbEntity
100
AcDbBlockReference
  8
doors
 62
256
370
-1
  6
BYLAYER
  2
W-1-0
 10
-5.99243482
 20
10.77371051
 30
0.0
 41
0.001
 42
0.001
 43
1.0
 50
-0.29666878
 70
0
 71
0
  0
TEXT
  5
353
100
AcDbEntity
100
AcDbText
  8
texts
 62
256
370
-1
  6
BYLAYER
 10
19.8819218
 20
8.49071513
 30
0.0
 40
0.65616798
  1
\U+004f\U+0074\U+0068\U+0065\U+0072
 50
0.0
 41
1.0
  7
STANDARD
 71
0
 72
1
 11
20.8819218
 21
8.49071513
 31
0.0
100
AcDbText
 73
2
  0
INSERT
  5
354
100
AcDbEntity
100
AcDbBlockReference
  8
doors
 62
256
370
-1
  6
BYLAYER
  2
W-2-0
 10
22.70042343
 20
9.70908783
 30
0.0
 41
0.001
 42
0.001
 43
1.0
 70
0
 71
0
  0
INSERT
  5
355
100
AcDbEntity
100
AcDbBlockReference
  8
doors
 62
256
370
-1
  6
BYLAYER
  2
W-2-1
 10
22.82144641
 20
5.96000647
 30
0.0
 41
0.001
 42
0.001
 43
1.0
 50
-180.0
 70
0
 71
0
  0
TEXT
  5
356
100
AcDbEntity
100
AcDbText
  8
texts
 62
256
370
-1
  6
BYLAYER
 10
-5.36476381
 20
16.24271657
 30
0.0
 40
0.65616798
  1
\U+0042\U+0065\U+0064\U+0072\U+006f\U+006f\U+006d
 50
0.0
 41
1.0
  7
STANDARD
 71
0
 72
1
 11
-4.36476381
 21
16.24271657
 31
0.0
100
AcDbText
 73
2
  0
INSERT
  5
357
100
AcDbEntity
100
AcDbBlockReference
  8
doors
 62
256
370
-1
  6
BYLAYER
  2
W-3-0
 10
-7.71843835
 20
15.09445697
 30
0.0
 41
0.001
 42
0.001
 43
1.0
 50
89.99954586
 70
0
 71
0
  0
ENDSEC
  0
SECTION
  2
OBJECTS
  0
DICTIONARY
  5
C
100
AcDbDictionary
280
0
281
1
  3
ACAD_GROUP
350
D
  3
ACAD_LAYOUT
350
1A
  3
ACAD_MLINESTYLE
350
17
  3
ACAD_PLOTSETTINGS
350
19
  3
ACAD_PLOTSTYLENAME
350
E
  3
AcDbVariableDictionary
350
358
  0
DICTIONARY
  5
D
100
AcDbDictionary
280
0
281
1
  0
ACDBDICTIONARYWDFLT
  5
E
100
AcDbDictionary
281
1
  3
Normal
350
F
100
AcDbDictionaryWithDefault
340
F
  0
ACDBPLACEHOLDER
  5
F
  0
DICTIONARY
  5
17
100
AcDbDictionary
280
0
281
1
  3
Standard
350
18
  0
MLINESTYLE
  5
18
100
AcDbMlineStyle
  2
STANDARD
 70
0
  3

 62
256
 51
90.0
 52
90.0
 71
2
 49
0.5
 62
256
  6
BYLAYER
 49
-0.5
 62
256
  6
BYLAYER
  0
DICTIONARY
  5
19
100
AcDbDictionary
280
0
281
1
  0
DICTIONARY
  5
1A
100
AcDbDictionary
281
1
  3
Layout1
350
1E
  3
Layout2
350
26
  3
Model
350
22
  0
LAYOUT
  5
1E
100
AcDbPlotSettings
  1

  2
none_device
  4

  6

 40
0.0
 41
0.0
 42
0.0
 43
0.0
 44
0.0
 45
0.0
 46
0.0
 47
0.0
 48
0.0
 49
0.0
140
0.0
141
0.0
142
1.0
143
1.0
 70
688
 72
0
 73
0
 74
5
  7

 75
16
147
1.0
148
0.0
149
0.0
100
AcDbLayout
  1
Layout1
 70
1
 71
1
 10
0.0
 20
0.0
 11
420.0
 21
297.0
 12
0.0
 22
0.0
 32
0.0
 14
100000000000000000000.0
 24
100000000000000000000.0
 34
100000000000000000000.0
 15
-100000000000000000000.0
 25
-100000000000000000000.0
 35
-100000000000000000000.0
146
0.0
 13
0.0
 23
0.0
 33
0.0
 16
1.0
 26
0.0
 36
0.0
 17
0.0
 27
1.0
 37
0.0
 76
0
330
1B
  0
LAYOUT
  5
22
100
AcDbPlotSettings
  1

  2
none_device
  4

  6

 40
0.0
 41
0.0
 42
0.0
 43
0.0
 44
0.0
 45
0.0
 46
0.0
 47
0.0
 48
0.0
 49
0.0
140
0.0
141
0.0
142
1.0
143
1.0
 70
1712
 72
0
 73
0
 74
0
  7

 75
0
147
1.0
148
0.0
149
0.0
100
AcDbLayout
  1
Model
 70
1
 71
0
 10
0.0
 20
0.0
 11
12.0
 21
9.0
 12
0.0
 22
0.0
 32
0.0
 14
0.0
 24
0.0
 34
0.0
 15
0.0
 25
0.0
 35
0.0
146
0.0
 13
0.0
 23
0.0
 33
0.0
 16
1.0
 26
0.0
 36
0.0
 17
0.0
 27
1.0
 37
0.0
 76
0
330
1F
  0
LAYOUT
  5
26
100
AcDbPlotSettings
  1

  2
none_device
  4

  6

 40
0.0
 41
0.0
 42
0.0
 43
0.0
 44
0.0
 45
0.0
 46
0.0
 47
0.0
 48
0.0
 49
0.0
140
0.0
141
0.0
142
1.0
143
1.0
 70
688
 72
0
 73
0
 74
5
  7

 75
16
147
1.0
148
0.0
149
0.0
100
AcDbLayout
  1
Layout2
 70
1
 71
2
 10
0.0
 20
0.0
 11
12.0
 21
9.0
 12
0.0
 22
0.0
 32
0.0
 14
0.0
 24
0.0
 34
0.0
 15
0.0
 25
0.0
 35
0.0
146
0.0
 13
0.0
 23
0.0
 33
0.0
 16
1.0
 26
0.0
 36
0.0
 17
0.0
 27
1.0
 37
0.0
 76
0
330
23
  0
DICTIONARY
  5
358
100
AcDbDictionary
281
1
  3
DIMASSOC
350
35A
  3
HIDETEXT
350
359
  0
DICTIONARYVAR
  5
359
100
DictionaryVariables
280
0
  1
2
  0
DICTIONARYVAR
  5
35A
100
DictionaryVariables
280
0
  1
1
  0
ENDSEC
  0
EOF
