0
SECTION
2
HEADER
9
$INSUNITS
70
2
0
ENDSEC
0
SECTION
2
ENTITIES
0
LWPOLYLINE
8
walls
90
4
70
1
10
0
20
0
10
29.2587
20
0
10
29.2587
20
0.5
10
0
20
0.5
0
LWPOLYLINE
8
walls
90
4
70
1
10
0
20
24.6699
10
29.2587
20
24.6699
10
29.2587
20
25.1699
10
0
20
25.1699
0
LWPOLYLINE
8
walls
90
4
70
1
10
0
20
0.5
10
0.5
20
0.5
10
0.5
20
24.6699
10
0
20
24.6699
0
LWPOLYLINE
8
walls
90
4
70
1
10
28.7587
20
0.5
10
29.2587
20
0.5
10
29.2587
20
24.6699
10
28.7587
20
24.6699
0
LWPOLYLINE
8
walls
90
4
70
1
10
0.5
20
9.1699
10
6.3333
20
9.1699
10
6.3333
20
9.6699
10
0.5
20
9.6699
0
LWPOLYLINE
8
walls
90
4
70
1
10
9.3333
20
9.1699
10
15.696
20
9.1699
10
15.696
20
9.6699
10
9.3333
20
9.6699
0
LWPOLYLINE
8
walls
90
4
70
1
10
18.696
20
9.1699
10
22.492
20
9.1699
10
22.492
20
9.6699
10
18.696
20
9.6699
0
LWPOLYLINE
8
walls
90
4
70
1
10
25.492
20
9.1699
10
28.7587
20
9.1699
10
28.7587
20
9.6699
10
25.492
20
9.6699
0
LWPOLYLINE
8
walls
90
4
70
1
10
15.1667
20
9.6699
10
15.6667
20
9.6699
10
15.6667
20
15.6699
10
15.1667
20
15.6699
0
LWPOLYLINE
8
walls
90
4
70
1
10
15.1667
20
18.6699
10
15.6667
20
18.6699
10
15.6667
20
24.6699
10
15.1667
20
24.6699
0
LWPOLYLINE
8
walls
90
4
70
1
10
18.7253
20
9.6699
10
19.2253
20
9.6699
10
19.2253
20
24.6699
10
18.7253
20
24.6699
0
TEXT
8
labels
10
7.8333
20
17.1699
40
1
1
Patient Room 101
0
TEXT
8
labels
10
17.196
20
17.1699
40
1
1
Bathroom 101B
0
TEXT
8
labels
10
23.992
20
17.1699
40
1
1
Office 102
0
TEXT
8
labels
10
14.6293
20
4.835
40
1
1
Corridor A
0
INSERT
8
walls
2
W-D1
10
7.8333
20
9.4199
0
INSERT
8
walls
2
W-D2
10
17.196
20
9.4199
0
INSERT
8
walls
2
W-D3
10
23.992
20
9.4199
0
INSERT
8
walls
2
W-D4
10
15.4167
20
17.1699
0
INSERT
8
walls
2
W-W1
10
7.8333
20
24.9199
0
INSERT
8
walls
2
W-W2
10
23.992
20
24.9199
0
ENDSEC
0
EOF