0
SECTION
2
HEADER
9
$INSUNITS
70
2
0
ENDSEC
0
SECTION
2
ENTITIES
0
LWPOLYLINE
8
walls
90
4
70
1
10
0
20
0
10
37
20
0
10
37
20
0.5
10
0
20
0.5
0
LWPOLYLINE
8
walls
90
4
70
1
10
0
20
24
10
37
20
24
10
37
20
24.5
10
0
20
24.5
0
LWPOLYLINE
8
walls
90
4
70
1
10
0
20
0.5
10
0.5
20
0.5
10
0.5
20
24
10
0
20
24
0
LWPOLYLINE
8
walls
90
4
70
1
10
36.5
20
0.5
10
37
20
0.5
10
37
20
24
10
36.5
20
24
0
LWPOLYLINE
8
walls
90
4
70
1
10
0.5
20
8
10
6
20
8
10
6
20
8.5
10
0.5
20
8.5
0
LWPOLYLINE
8
walls
90
4
70
1
10
9
20
8
10
18
20
8
10
18
20
8.5
10
9
20
8.5
0
LWPOLYLINE
8
walls
90
4
70
1
10
21
20
8
10
27
20
8
10
27
20
8.5
10
21
20
8.5
0
LWPOLYLINE
8
walls
90
4
70
1
10
30
20
8
10
36.5
20
8
10
36.5
20
8.5
10
30
20
8.5
0
LWPOLYLINE
8
walls
90
4
70
1
10
18
20
8.5
10
18.5
20
8.5
10
18.5
20
10
10
18
20
10
0
LWPOLYLINE
8
walls
90
4
70
1
10
18
20
13
10
18.5
20
13
10
18.5
20
24
10
18
20
24
0
LWPOLYLINE
8
walls
90
4
70
1
10
25
20
8.5
10
25.5
20
8.5
10
25.5
20
24
10
25
20
24
0
TEXT
8
labels
10
9.5
20
16.5
40
1
1
Patient Room 101
0
TEXT
8
labels
10
21.5
20
16.5
40
1
1
Bathroom 101B
0
TEXT
8
labels
10
30.5
20
16.5
40
1
1
Office 102
0
TEXT
8
labels
10
18
20
4
40
1
1
Corridor A
0
INSERT
8
walls
2
W-D1
10
7.5
20
8.25
0
INSERT
8
walls
2
W-D2
10
19.5
20
8.25
0
INSERT
8
walls
2
W-D3
10
28.5
20
8.25
0
INSERT
8
walls
2
W-D4
10
18.25
20
11.5
0
INSERT
8
walls
2
W-W1
10
9.5
20
24.25
0
INSERT
8
walls
2
W-W2
10
30.5
20
24.25
0
ENDSEC
0
EOF